SplineFontDB: 3.2
FontName: Vazir-Medium
FullName: Vazir Medium
FamilyName: Vazir Medium
Weight: Medium
Copyright: Copyright (c) 2003 by Bitstream, Inc. All Rights Reserved.\nDejaVu changes are in public domain\nChanges by Saber Rastikerdar are in public domain.
Version: 26.0.1
ItalicAngle: 0
UnderlinePosition: -500
UnderlineWidth: 100
Ascent: 1638
Descent: 410
InvalidEm: 0
LayerCount: 2
Layer: 0 0 "Back" 1
Layer: 1 0 "Fore" 0
PreferredKerning: 4
XUID: [1021 502 1027637223 5473309]
UniqueID: 4024361
UseUniqueID: 1
FSType: 0
OS2Version: 1
OS2_WeightWidthSlopeOnly: 0
OS2_UseTypoMetrics: 1
CreationTime: 1431850356
ModificationTime: 1589449052
PfmFamily: 33
TTFWeight: 500
TTFWidth: 5
LineGap: 0
VLineGap: 0
Panose: 2 11 6 3 3 8 4 2 2 4
OS2TypoAscent: 2100
OS2TypoAOffset: 0
OS2TypoDescent: -1100
OS2TypoDOffset: 0
OS2TypoLinegap: 0
OS2WinAscent: 2100
OS2WinAOffset: 0
OS2WinDescent: 1100
OS2WinDOffset: 0
HheadAscent: 2100
HheadAOffset: 0
HheadDescent: -1100
HheadDOffset: 0
OS2SubXSize: 1331
OS2SubYSize: 1433
OS2SubXOff: 0
OS2SubYOff: 286
OS2SupXSize: 1331
OS2SupYSize: 1433
OS2SupXOff: 0
OS2SupYOff: 983
OS2StrikeYSize: 102
OS2StrikeYPos: 530
OS2CapHeight: 1638
OS2XHeight: 1082
OS2Vendor: '    '
OS2CodePages: 00000041.20080000
OS2UnicodeRanges: 80002003.80000000.00000008.00000000
Lookup: 1 9 0 "Single Substitution 0" { "Single Substitution 0 subtable"  } []
Lookup: 1 9 0 "'fina' Terminal Forms in Arabic lookup 1" { "'fina' Terminal Forms in Arabic lookup 1 subtable"  } ['fina' ('DFLT' <'dflt' > 'arab' <'FAR ' 'KUR ' 'URD ' 'dflt' > ) ]
Lookup: 1 9 0 "'medi' Medial Forms in Arabic lookup 2" { "'medi' Medial Forms in Arabic lookup 2 subtable"  } ['medi' ('DFLT' <'dflt' > 'arab' <'FAR ' 'KUR ' 'URD ' 'dflt' > ) ]
Lookup: 1 9 0 "'init' Initial Forms in Arabic lookup 3" { "'init' Initial Forms in Arabic lookup 3 subtable"  } ['init' ('DFLT' <'dflt' > 'arab' <'FAR ' 'KUR ' 'URD ' 'dflt' > ) ]

StartChar: exclam
Encoding: 33 33 1
GlifName: exclam
Width: 632
VWidth: 2762
GlyphClass: 2
Flags: HW
LayerCount: 2
Fore
SplineSet
163 154 m 0
 163 237.948242188 231.70703125 308 316 308 c 0
 400.291992188 308 469 237.947265625 469 154 c 0
 469 69.908203125 400.091796875 1 316 1 c 0
 231.28515625 1 163 66.9619140625 163 154 c 0
200.439453125 1356 m 5
 435.538085938 1356 l 5
 419.475585938 448 l 1
 217.544921875 448 l 1
 200.439453125 1356 l 5
EndSplineSet
EndChar

StartChar: period
Encoding: 46 46 2
GlifName: period
Width: 632
VWidth: 2762
GlyphClass: 2
Flags: HW
LayerCount: 2
Fore
SplineSet
163 154 m 0
 163 237.948242188 231.70703125 308 316 308 c 0
 400.291992188 308 469 237.947265625 469 154 c 0
 469 69.908203125 400.091796875 1 316 1 c 0
 231.28515625 1 163 66.9619140625 163 154 c 0
EndSplineSet
EndChar

StartChar: colon
Encoding: 58 58 3
GlifName: colon
Width: 632
VWidth: 2762
GlyphClass: 2
Flags: HW
LayerCount: 2
Fore
SplineSet
163 774 m 0
 163 857.948242188 231.70703125 928 316 928 c 0
 400.291992188 928 469 857.947265625 469 774 c 0
 469 689.908203125 400.091796875 621 316 621 c 0
 231.28515625 621 163 686.961914062 163 774 c 0
163 154 m 0
 163 237.948242188 231.70703125 308 316 308 c 0
 400.291992188 308 469 237.947265625 469 154 c 0
 469 69.908203125 400.091796875 1 316 1 c 0
 231.28515625 1 163 66.9619140625 163 154 c 0
EndSplineSet
EndChar

StartChar: uni060C
Encoding: 1548 1548 5
GlifName: afii57388
Width: 669
VWidth: 2770
GlyphClass: 2
Flags: HW
LayerCount: 2
Fore
SplineSet
516.495117188 578.239257812 m 2
 422.862304688 492.631835938 367.754882812 422.478515625 361.536132812 316.34765625 c 1
 459.206054688 309.704101562 496 250.889648438 496 163 c 0
 496 67.357421875 440.151367188 1 341 1 c 4
 216.85546875 1 163 82.154296875 163 195 c 0
 163 395.563476562 267.528320312 552.31640625 416.758789062 667.81640625 c 2
 429.18359375 677.432617188 l 1
 441.467773438 667.637695312 l 1
 515.467773438 608.637695312 l 1
 533.77734375 594.040039062 l 1
 516.495117188 578.239257812 l 2
EndSplineSet
EndChar

StartChar: uni0615
Encoding: 1557 1557 6
GlifName: uni0615
Width: 0
VWidth: 2712
GlyphClass: 4
Flags: HW
AnchorPoint: "Anchor-10" 438.449 1190.96 mark 0
AnchorPoint: "Anchor-9" 438.449 1190.96 mark 0
AnchorPoint: "Anchor-1" 436.616 1958.36 basemark 0
AnchorPoint: "Anchor-1" 438.449 1190.96 mark 0
LayerCount: 2
Fore
SplineSet
400.483108301 1370 m 2
 582.333480966 1370 668.5 1408.47525715 668.5 1481 c 0
 668.5 1532.85219034 631.333452923 1572 576 1572 c 0
 503.535012819 1572 422.081265637 1501.79634645 335.734983909 1369.56251267 c 1
 400.483108301 1370 l 2
233.208435109 1369 m 1
 244.730620897 1387.65705149 256.653842561 1406.28863716 267.5 1423.44709443 c 1
 267.5 1897 l 1
 267.5 1902 l 1
 272.5 1902 l 1
 357 1902 l 1
 362 1902 l 1
 362 1897 l 1
 362 1555.84788162 l 1
 426.570193798 1631.72332585 495.460807328 1672.5 571.5 1672.5 c 0
 687.49467139 1672.5 767.5 1593.29992919 767.5 1484.98220663 c 0
 766.468999499 1340.12663623 642.347668413 1269 402.5 1269 c 2
 125 1269 l 1
 120 1269 l 1
 120 1274 l 1
 120 1364 l 1
 120 1369 l 1
 125 1369 l 1
 233.208435109 1369 l 1
EndSplineSet
EndChar

StartChar: uni061B
Encoding: 1563 1563 7
GlifName: uni061B_
Width: 669
VWidth: 2770
GlyphClass: 2
Flags: HW
LayerCount: 2
Fore
SplineSet
191 154 m 0
 191 237.948242188 259.70703125 308 344 308 c 0
 428.291992188 308 497 237.947265625 497 154 c 0
 497 69.908203125 428.091796875 1 344 1 c 0
 259.28515625 1 191 66.9619140625 191 154 c 0
516.4609375 1025.20800781 m 6
 422.599609375 939.793945312 367.733398438 869.8359375 361.53125 763.33984375 c 5
 459.048828125 756.609375 496 697.512695312 496 610 c 4
 496 514.357421875 440.151367188 448 341 448 c 4
 216.85546875 448 163 529.154296875 163 642 c 4
 163 842.563476562 267.528320312 999.31640625 416.758789062 1114.81640625 c 6
 429.18359375 1124.43261719 l 5
 441.467773438 1114.63769531 l 5
 515.467773438 1055.63769531 l 5
 533.8203125 1041.00585938 l 5
 516.4609375 1025.20800781 l 6
EndSplineSet
EndChar

StartChar: uni061F
Encoding: 1567 1567 8
GlifName: uni061F_
Width: 924
VWidth: 2762
GlyphClass: 2
Flags: HW
LayerCount: 2
Fore
SplineSet
372 154 m 0
 372 237.948242188 440.70703125 308 525 308 c 0
 609.291992188 308 678 237.947265625 678 154 c 0
 678 69.908203125 609.091796875 1 525 1 c 0
 440.28515625 1 372 66.9619140625 372 154 c 0
79 991 m 4
 79 1216.93457031 274.067382812 1366 469 1366 c 4
 731.227539062 1366 844.97265625 1220.09960938 846 951.076171875 c 6
 846.076171875 941 l 5
 826 941 l 5
 670 941 l 5
 650.145507812 941 l 5
 650.000976562 950.854492188 l 6
 649.043945312 1081.8671875 605.80078125 1146 480 1146 c 4
 368.248046875 1146 300 1088.13183594 300 982 c 4
 300 821.224609375 636.665039062 803.55078125 638 470.080078125 c 2
 638.080078125 450 l 1
 618 450 l 1
 433 450 l 1
 413.09765625 450 l 1
 413 469.90234375 l 2
 411.485351562 779.774414062 79 680.68359375 79 991 c 4
EndSplineSet
EndChar

StartChar: uni0621
Encoding: 1569 1569 9
GlifName: uni0621
Width: 830
VWidth: 2950
GlyphClass: 2
Flags: HW
AnchorPoint: "Anchor-7" 445.326 -85.6465 basechar 0
AnchorPoint: "Anchor-10" 401.848 1019.06 basechar 0
LayerCount: 2
Fore
SplineSet
456.182617188 304.015625 m 1
 537.46875 322.587890625 620.803710938 341.014648438 701.537109375 359.49609375 c 2
 722.498046875 364.293945312 l 1
 725.767578125 343.041015625 l 1
 751.767578125 174.041015625 l 1
 754.8984375 153.69140625 l 1
 734.465820312 151.15234375 l 2
 569.590820312 130.665039062 360.432617188 50.8154296875 107.6015625 -87.544921875 c 2
 78 -103.744140625 l 1
 78 -70 l 1
 78 103 l 1
 78 113.498046875 l 1
 86.6396484375 119.4609375 l 2
 143.958007812 159.017578125 197.508789062 188.965820312 247.854492188 210.947265625 c 1
 151.745117188 269.966796875 98 349.127929688 98 454 c 0
 98 669.354492188 244.522460938 808 443 808 c 0
 538.59765625 808 618.359375 775.862304688 682.022460938 713.260742188 c 2
 691.604492188 703.837890625 l 1
 686.501953125 691.40625 l 1
 631.501953125 557.40625 l 1
 622.022460938 534.309570312 l 1
 601.551757812 548.600585938 l 2
 550.799804688 584.03125 504.000976562 601 456 601 c 0
 358.822265625 601 300 548.6015625 300 455 c 0
 300 406.825195312 347.11328125 355.026367188 456.182617188 304.015625 c 1
EndSplineSet
Position2: "Single Positioning lookup 2 subtable" dx=0 dy=0 dh=-178 dv=0
Position2: "Single Positioning lookup 1 subtable" dx=0 dy=0 dh=-120 dv=0
EndChar

StartChar: uni0627
Encoding: 1575 1575 15
GlifName: uni0627
Width: 465
VWidth: 2950
GlyphClass: 2
Flags: HW
AnchorPoint: "Anchor-10" 224.871 1475.46 basechar 0
AnchorPoint: "Anchor-7" 228.587 -218.365 basechar 0
LayerCount: 2
Fore
SplineSet
148 1366 m 1
 317 1366 l 1
 337 1366 l 1
 337 1346 l 1
 337 21 l 1
 337 1 l 1
 317 1 l 1
 148 1 l 1
 128 1 l 1
 128 21 l 1
 128 1346 l 1
 128 1366 l 1
 148 1366 l 1
EndSplineSet
Position2: "Single Positioning lookup 2 subtable" dx=0 dy=0 dh=-143 dv=0
Position2: "Single Positioning lookup 1 subtable" dx=0 dy=0 dh=-127 dv=0
Position2: "Single Positioning lookup 0 subtable" dx=0 dy=0 dh=130 dv=0
Substitution2: "'fina' Terminal Forms in Arabic lookup 1 subtable" uniFE8E
EndChar

StartChar: uni062D
Encoding: 1581 1581 21
GlifName: uni062D_
Width: 1347
VWidth: 2950
GlyphClass: 2
Flags: HW
AnchorPoint: "Anchor-7" 690.833 -810.619 basechar 0
AnchorPoint: "Anchor-10" 601.478 1196.07 basechar 0
LayerCount: 2
Fore
SplineSet
770.912109375 574.755859375 m 1
 760.069335938 579.194335938 751.009765625 582.91015625 737.486328125 588.46484375 c 0
 602.603515625 642.41796875 515.822265625 676 477 676 c 0
 409.677734375 676 338.298828125 630.469726562 291.858398438 569.8125 c 2
 264.8359375 534.784179688 l 1
 254.807617188 521.784179688 l 1
 240.103515625 529.087890625 l 1
 89.103515625 604.087890625 l 1
 70.0390625 613.556640625 l 1
 80.6767578125 631.994140625 l 1
 95.8095703125 658.2265625 l 1
 182.755859375 800.03125 318.540039062 894 478 894 c 0
 568.013671875 894 671.056640625 853.319335938 789.734375 795.9921875 c 0
 996.206054688 695.25 1118.53125 653.73828125 1229.04199219 647.97265625 c 2
 1249.50390625 646.905273438 l 1
 1247.94140625 626.474609375 l 1
 1234.94140625 456.474609375 l 1
 1233.63867188 439.438476562 l 1
 1216.60839844 438.064453125 l 2
 683.75390625 395.076171875 285 166.078125 285 -115 c 0
 285 -348.021484375 446.796875 -466 798 -466 c 0
 938.918945312 -466 1074.91894531 -433.759765625 1204.49707031 -372.897460938 c 2
 1227.47070312 -362.106445312 l 1
 1232.58886719 -386.966796875 l 1
 1267.58886719 -556.966796875 l 1
 1270.74609375 -572.299804688 l 1
 1256.61914062 -579.046875 l 2
 1119.59570312 -644.491210938 964.384765625 -677 784 -677 c 0
 374.47265625 -677 79 -506.997070312 79 -131 c 0
 79 189.532226562 322.9921875 456.743164062 770.912109375 574.755859375 c 1
EndSplineSet
Substitution2: "'fina' Terminal Forms in Arabic lookup 1 subtable" uniFEA2
Substitution2: "'medi' Medial Forms in Arabic lookup 2 subtable" uniFEA4
Substitution2: "'init' Initial Forms in Arabic lookup 3 subtable" uniFEA3
EndChar

StartChar: uni062F
Encoding: 1583 1583 23
GlifName: uni062F_
Width: 963
VWidth: 2950
GlyphClass: 2
Flags: HW
AnchorPoint: "Anchor-10" 371.137 1229.03 basechar 0
AnchorPoint: "Anchor-7" 432.24 -221.316 basechar 0
LayerCount: 2
Fore
SplineSet
101.966796875 246.602539062 m 2
 185.142578125 229.76953125 255.904296875 221 317 221 c 0
 565.299804688 221 669 280.969726562 669 384 c 0
 669 496.918945312 537.483398438 645.987304688 264.338867188 818.078125 c 2
 247.029296875 828.984375 l 1
 258.32421875 846.041992188 l 1
 356.32421875 994.041992188 l 1
 366.8671875 1009.96386719 l 1
 383.258789062 1000.16796875 l 2
 712.627929688 803.349609375 885 600.780273438 885 387 c 0
 885 129.795898438 691.6015625 2 330 2 c 0
 244.5703125 2 165.180664062 11.150390625 93.8095703125 26.4443359375 c 2
 78 29.83203125 l 1
 78 46 l 1
 78 227 l 1
 78 251.453125 l 1
 101.966796875 246.602539062 l 2
EndSplineSet
Position2: "Single Positioning lookup 2 subtable" dx=0 dy=0 dh=-178 dv=0
Position2: "Single Positioning lookup 1 subtable" dx=0 dy=0 dh=-173 dv=0
Substitution2: "'fina' Terminal Forms in Arabic lookup 1 subtable" uniFEAA
EndChar

StartChar: uni0631
Encoding: 1585 1585 25
GlifName: uni0631
Width: 780
VWidth: 2142
GlyphClass: 2
Flags: HW
AnchorPoint: "Anchor-10" 493.256 868.2 basechar 0
AnchorPoint: "Anchor-7" 322.969 -609.998 basechar 0
LayerCount: 2
Fore
SplineSet
618.55078125 554.475585938 m 2
 673.500976562 418.1171875 702 272.149414062 702 155 c 0
 702 -217.27734375 481.306640625 -446.399414062 53.7333984375 -527.6484375 c 2
 37.400390625 -530.751953125 l 1
 31.3642578125 -515.260742188 l 1
 -28.6357421875 -361.260742188 l 1
 -37.373046875 -338.834960938 l 1
 -13.7265625 -334.350585938 l 2
 328.80859375 -269.38671875 493.084960938 -108.393554688 495 150.07421875 c 0
 495 237.353515625 469.543945312 363.647460938 419.59375 481.176757812 c 2
 411.302734375 500.684570312 l 1
 431.258789062 507.829101562 l 1
 593.258789062 565.829101562 l 1
 611.36328125 572.311523438 l 1
 618.55078125 554.475585938 l 2
EndSplineSet
Position2: "Single Positioning lookup 2 subtable" dx=0 dy=0 dh=-30 dv=0
Position2: "Single Positioning lookup 1 subtable" dx=0 dy=0 dh=-30 dv=0
Substitution2: "'fina' Terminal Forms in Arabic lookup 1 subtable" uniFEAE
EndChar

StartChar: uni0633
Encoding: 1587 1587 27
GlifName: uni0633
Width: 2456
VWidth: 2068
GlyphClass: 2
Flags: HW
AnchorPoint: "Anchor-10" 1764.53 902.1 basechar 0
AnchorPoint: "Anchor-7" 710.902 -696.086 basechar 0
LayerCount: 2
Fore
SplineSet
1531 0 m 0
 1463.546875 0 1406.890625 14.09765625 1360.796875 41.0478515625 c 1
 1351.671875 -134.405273438 1294.16210938 -271.99609375 1186.82617188 -367.913085938 c 0
 1072.61035156 -469.978515625 916.295898438 -520 721 -520 c 0
 297.475585938 -520 78 -318.629882812 78 76 c 0
 78 218.879882812 108.649414062 364.529296875 169.500976562 512.602539062 c 2
 177.07421875 531.029296875 l 1
 195.530273438 523.528320312 l 1
 350.530273438 460.528320312 l 1
 368.611328125 453.178710938 l 1
 361.70703125 434.924804688 l 2
 313.712890625 308.037109375 290 190.087890625 290 81 c 0
 290 -179.796875 430.282226562 -307 728 -307 c 0
 1017.30273438 -307 1156.35449219 -168.50390625 1157 120.022460938 c 0
 1157 237.286132812 1127.88085938 357.28515625 1068.9609375 480.364257812 c 2
 1059.26074219 500.625 l 1
 1078.89648438 507.364257812 l 1
 1249.5078125 565.916992188 l 1
 1268.78222656 572.532226562 l 1
 1275.03515625 553.13671875 l 1
 1334.03515625 370.13671875 l 2
 1367.00488281 267.875 1425.22460938 220.9296875 1533.0859375 220 c 0
 1653.16894531 220 1698 280.090820312 1698 409 c 0
 1698 439.766601562 1694.70605469 499.053710938 1688.05859375 585.465820312 c 2
 1686.59082031 604.551757812 l 1
 1705.59375 606.854492188 l 1
 1870.59375 626.854492188 l 1
 1891.46484375 629.384765625 l 1
 1892.95019531 608.412109375 l 1
 1908.95117188 382.390625 l 2
 1915.63964844 284.930664062 1957.09277344 220 2047 220 c 0
 2121.421875 220 2166 277.068359375 2166 422 c 0
 2166 490.623046875 2151.75878906 577.0625 2122.7421875 680.602539062 c 2
 2117.28222656 700.083984375 l 1
 2136.82519531 705.319335938 l 1
 2304.82519531 750.319335938 l 1
 2323.34375 755.279296875 l 1
 2329.08300781 736.986328125 l 2
 2361.60644531 633.317382812 2378 533.27734375 2378 437 c 0
 2378 204.923828125 2292.20898438 1.0712890625 2048.04394531 0 c 0
 1938.37988281 0 1855.38378906 42.99609375 1803.24902344 126.790039062 c 1
 1732.37402344 42.0048828125 1641.20898438 0 1531 0 c 0
EndSplineSet
Position2: "Single Positioning lookup 2 subtable" dx=0 dy=0 dh=-178 dv=0
Position2: "Single Positioning lookup 1 subtable" dx=0 dy=0 dh=-173 dv=0
Substitution2: "'fina' Terminal Forms in Arabic lookup 1 subtable" uniFEB2
Substitution2: "'medi' Medial Forms in Arabic lookup 2 subtable" uniFEB4
Substitution2: "'init' Initial Forms in Arabic lookup 3 subtable" uniFEB3
EndChar

StartChar: uni0635
Encoding: 1589 1589 29
GlifName: uni0635
Width: 2575
VWidth: 2950
GlyphClass: 2
Flags: HW
AnchorPoint: "Anchor-7" 710.902 -696.086 basechar 0
AnchorPoint: "Anchor-10" 2052.53 1148.1 basechar 0
LayerCount: 2
Fore
SplineSet
1752.93261719 221 m 2
 2118.33398438 221 2279 298.90234375 2279 433 c 0
 2279 531.409179688 2209.33007812 605 2104 605 c 0
 1968.29492188 605 1811.73632812 475.818359375 1642.10253906 220.250976562 c 1
 1752.93261719 221 l 2
1157 120.033203125 m 0
 1157 239.55859375 1126.89941406 359.577148438 1068.96679688 480.350585938 c 2
 1059.24414062 500.619140625 l 1
 1080.5078125 507.916992188 l 1
 1249.5078125 565.916992188 l 1
 1268.78222656 572.532226562 l 1
 1275.03515625 553.13671875 l 1
 1334.02636719 370.1640625 l 2
 1357.97363281 296.612304688 1384.58398438 261.662109375 1409.26953125 251.840820312 c 1
 1634.55566406 630.78515625 1859.45898438 827 2098 827 c 0
 2327.28515625 827 2497 659.29296875 2497 441.96484375 c 0
 2495.9375 143.52734375 2238.34570312 0 1757 0 c 2
 1706 0 l 2
 1553.77539062 0 1440.94335938 16.1513671875 1361.13964844 46.97265625 c 1
 1344.04882812 -330.984375 1094.09375 -520 721 -520 c 0
 296.803710938 -520 78 -318.606445312 78 76 c 0
 78 218.879882812 108.649414062 364.529296875 169.500976562 512.602539062 c 2
 177.07421875 531.029296875 l 1
 195.530273438 523.528320312 l 1
 350.530273438 460.528320312 l 1
 368.606445312 453.180664062 l 1
 361.708007812 434.928710938 l 2
 314.349609375 309.625976562 290 193.072265625 290 81 c 0
 290 -179.783203125 430.612304688 -307 728 -307 c 0
 1015.63867188 -307 1156.03222656 -168.500976562 1157 120.033203125 c 0
EndSplineSet
Position2: "Single Positioning lookup 2 subtable" dx=0 dy=0 dh=-178 dv=0
Position2: "Single Positioning lookup 1 subtable" dx=0 dy=0 dh=-173 dv=0
Substitution2: "'fina' Terminal Forms in Arabic lookup 1 subtable" uniFEBA
Substitution2: "'medi' Medial Forms in Arabic lookup 2 subtable" uniFEBC
Substitution2: "'init' Initial Forms in Arabic lookup 3 subtable" uniFEBB
EndChar

StartChar: uni0637
Encoding: 1591 1591 31
GlifName: uni0637
Width: 1471
VWidth: 2950
GlyphClass: 2
Flags: HW
AnchorPoint: "Anchor-10" 476.36 1498.58 basechar 0
AnchorPoint: "Anchor-7" 636.602 -218.453 basechar 0
LayerCount: 2
Fore
SplineSet
648.932617188 222 m 2
 1014.33398438 222 1175 299.90234375 1175 434 c 0
 1175 532.409179688 1105.33007812 606 1000 606 c 0
 864.294921875 606 707.736328125 476.818359375 538.102539062 221.250976562 c 1
 648.932617188 222 l 2
308.842773438 220 m 1
 331.104492188 255.927734375 352.450195312 289.293945312 373 321.790039062 c 1
 373 1346 l 5
 373 1366 l 5
 393 1366 l 5
 562 1366 l 5
 582 1366 l 5
 582 1346 l 5
 582 610.391601562 l 1
 706.920898438 750.256835938 842.073242188 827 991 827 c 0
 1227.97851562 827 1393 664.200195312 1393 441.928710938 c 0
 1390.87597656 143.506835938 1133.39160156 0 653 0 c 2
 98 0 l 1
 78 0 l 1
 78 20 l 1
 78 200 l 1
 78 220 l 1
 98 220 l 1
 308.842773438 220 l 1
EndSplineSet
Position2: "Single Positioning lookup 2 subtable" dx=0 dy=0 dh=-178 dv=0
Position2: "Single Positioning lookup 1 subtable" dx=0 dy=0 dh=-173 dv=0
Substitution2: "'fina' Terminal Forms in Arabic lookup 1 subtable" uniFEC2
Substitution2: "'medi' Medial Forms in Arabic lookup 2 subtable" uniFEC4
Substitution2: "'init' Initial Forms in Arabic lookup 3 subtable" uniFEC3
EndChar

StartChar: uni0639
Encoding: 1593 1593 33
GlifName: uni0639
Width: 1306
VWidth: 2970
GlyphClass: 2
Flags: HW
AnchorPoint: "Anchor-7" 670.833 -810.619 basechar 0
AnchorPoint: "Anchor-10" 694.478 1384.07 basechar 0
LayerCount: 2
Fore
SplineSet
957.889648438 785.743164062 m 2
 860.377929688 842.872070312 779.333984375 871 715 871 c 0
 606.265625 871 515 800.8671875 515 690 c 0
 515 605.926757812 556.26171875 561.998046875 613.263671875 490.744140625 c 1
 729.971679688 510.833007812 827.740234375 521 912 521 c 0
 974.861328125 521 1035.55664062 516.9453125 1095.0234375 510.897460938 c 2
 1115.57519531 508.807617188 l 1
 1112.82128906 488.333984375 l 1
 1089.82128906 317.333984375 l 1
 1087.38085938 299.189453125 l 1
 1069.09179688 300.020507812 l 2
 1025.53417969 302.000976562 991.965820312 302 971 302 c 0
 495.385742188 302 284 137.274414062 284 -137 c 0
 284 -338.591796875 443.119140625 -462 766 -462 c 0
 900.788085938 -462 1034.89160156 -429.791015625 1164.61035156 -369.844726562 c 2
 1187.50390625 -359.265625 l 1
 1192.58886719 -383.966796875 l 1
 1227.58886719 -553.966796875 l 1
 1230.70703125 -569.111328125 l 1
 1216.83496094 -575.942382812 l 2
 1081.62792969 -642.522460938 927.409179688 -674 755 -674 c 0
 383.291015625 -674 78 -503.404296875 78 -144 c 0
 78 78.720703125 176.1328125 298.5703125 405.208984375 412.163085938 c 1
 333.53125 503.520507812 302 600.099609375 302 703 c 0
 302 908.138671875 491.383789062 1089 705 1089 c 0
 811.35546875 1089 926.091796875 1047.01171875 1045.2890625 965.509765625 c 2
 1059.1328125 956.043945312 l 1
 1052.22460938 940.76171875 l 1
 986.224609375 794.76171875 l 1
 977.068359375 774.5078125 l 1
 957.889648438 785.743164062 l 2
EndSplineSet
Substitution2: "'fina' Terminal Forms in Arabic lookup 1 subtable" uniFECA
Substitution2: "'medi' Medial Forms in Arabic lookup 2 subtable" uniFECC
Substitution2: "'init' Initial Forms in Arabic lookup 3 subtable" uniFECB
EndChar

StartChar: uni0640
Encoding: 1600 1600 35
GlifName: afii57440
Width: 286
VWidth: 2950
GlyphClass: 2
Flags: HW
AnchorPoint: "Anchor-10" 143.774 870.11 basechar 0
AnchorPoint: "Anchor-7" 147.7 -216.739 basechar 0
LayerCount: 2
Fore
SplineSet
-20 0 m 1
 -20 220 l 1
 306 220 l 5
 306 0 l 5
 -20 0 l 1
EndSplineSet
Position2: "Single Positioning lookup 2 subtable" dx=0 dy=0 dh=-178 dv=0
Position2: "Single Positioning lookup 1 subtable" dx=0 dy=0 dh=-173 dv=0
EndChar

StartChar: uni0643
Encoding: 1603 1603 38
GlifName: uni0643
Width: 1831
VWidth: 2950
GlyphClass: 2
Flags: HW
AnchorPoint: "Anchor-10" 916.11 1260.05 basechar 0
AnchorPoint: "Anchor-7" 900.268 -206.468 basechar 0
LayerCount: 2
Fore
SplineSet
708.560546875 612.96875 m 6
 770.706054688 605.952148438 794.361328125 602 839 602 c 4
 940.883789062 602 1020 602.779296875 1020 680 c 4
 1020 736.923828125 989.932617188 742.702148438 921.978515625 743 c 4
 830.919921875 743.399414062 748 791.204101562 748 929 c 4
 748 1041.703125 820.147460938 1125.578125 972.252929688 1125.578125 c 4
 1005.31054688 1125.578125 1042.13867188 1122.1328125 1082.87109375 1114.92382812 c 6
 1087 1114.19238281 l 5
 1087 1110 l 5
 1087 1015 l 5
 1087 1009.25390625 l 5
 1081.30859375 1010.04785156 l 6
 1040.71484375 1015.71191406 1006.00488281 1018.39941406 976.748046875 1018.39941406 c 4
 882.673828125 1018.39941406 847 981.462890625 847 938 c 4
 847 888.358398438 868.09375 857.387695312 940.02734375 857 c 4
 1069.90136719 856.30078125 1118 804.174804688 1118 684 c 4
 1118 537.2890625 1029.54492188 494 846 494 c 4
 793.599609375 494 773.024414062 499.090820312 707.250976562 509.056640625 c 6
 703 509.700195312 l 5
 703 514 l 5
 703 608 l 5
 703 613.596679688 l 5
 708.560546875 612.96875 l 6
978 220 m 2
 1450.55664062 220 1494 312 1494 490 c 6
 1494 1346 l 5
 1494 1366 l 5
 1514 1366 l 5
 1683 1366 l 5
 1703 1366 l 5
 1703 1346 l 5
 1703 492 l 6
 1703 163 1567.44433594 0 985 0 c 2
 840 0 l 2
 358.274414062 0 78 165.641601562 78 504 c 0
 78 596.009765625 98.67578125 684.692382812 133.62890625 765.90625 c 2
 141.151367188 783.384765625 l 1
 158.982421875 776.741210938 l 1
 311.982421875 719.741210938 l 1
 330.764648438 712.744140625 l 1
 323.7265625 693.977539062 l 2
 303.521484375 640.098632812 293 584.411132812 293 529.045898438 c 0
 293.920898438 326.485351562 463.388671875 220 830 220 c 2
 978 220 l 2
EndSplineSet
Position2: "Single Positioning lookup 2 subtable" dx=0 dy=0 dh=-143 dv=0
Position2: "Single Positioning lookup 1 subtable" dx=0 dy=0 dh=-104 dv=0
Position2: "Single Positioning lookup 0 subtable" dx=0 dy=0 dh=130 dv=0
Substitution2: "'fina' Terminal Forms in Arabic lookup 1 subtable" uniFEDA
Substitution2: "'medi' Medial Forms in Arabic lookup 2 subtable" uniFEDC
Substitution2: "'init' Initial Forms in Arabic lookup 3 subtable" uniFEDB
EndChar

StartChar: uni0644
Encoding: 1604 1604 39
GlifName: uni0644
Width: 1377
VWidth: 2950
GlyphClass: 2
Flags: HW
AnchorPoint: "Anchor-7" 662.902 -688.086 basechar 0
AnchorPoint: "Anchor-10" 654.908 1025.66 basechar 0
LayerCount: 2
Fore
SplineSet
353.615234375 370.686523438 m 2
 310.18359375 260.134765625 289 168.33984375 289 56 c 0
 289 -188.657226562 413.51171875 -307 675 -307 c 0
 918.327148438 -307 1037 -180 1038 88.0224609375 c 2
 1041 1346.04589844 l 5
 1041.04589844 1366 l 5
 1061 1366 l 5
 1229 1366 l 5
 1249.015625 1366 l 5
 1249 1345.984375 l 5
 1248 127 l 2
 1248 -300 1054.29589844 -520 674 -520 c 0
 281.133789062 -520 78 -324.936523438 78 57 c 0
 78 194.771484375 105.836914062 313.995117188 161.517578125 448.642578125 c 2
 169.114257812 467.013671875 l 1
 187.530273438 459.528320312 l 1
 342.530273438 396.528320312 l 1
 360.842773438 389.084960938 l 1
 353.615234375 370.686523438 l 2
EndSplineSet
Position2: "Single Positioning lookup 2 subtable" dx=0 dy=0 dh=-60 dv=0
Position2: "Single Positioning lookup 1 subtable" dx=0 dy=0 dh=-58 dv=0
Position2: "Single Positioning lookup 0 subtable" dx=0 dy=0 dh=130 dv=0
Substitution2: "'fina' Terminal Forms in Arabic lookup 1 subtable" uniFEDE
Substitution2: "'medi' Medial Forms in Arabic lookup 2 subtable" uniFEE0
Substitution2: "'init' Initial Forms in Arabic lookup 3 subtable" uniFEDF
EndChar

StartChar: uni0645
Encoding: 1605 1605 40
GlifName: uni0645
Width: 1230
VWidth: 2620
GlyphClass: 2
Flags: HW
AnchorPoint: "Anchor-10" 763.952 1040.2 basechar 0
AnchorPoint: "Anchor-7" 714.983 -318.909 basechar 0
LayerCount: 2
Fore
SplineSet
583.889648438 322.87109375 m 1
 697.729492188 236.305664062 785.756835938 195 842.877929688 195 c 0
 913.303710938 195.858398438 945 230.29296875 945 315 c 0
 945 431.309570312 881.771484375 516 781 516 c 0
 700.416992188 516 634.791992188 455.266601562 583.889648438 322.87109375 c 1
92.0361328125 -636.194335938 m 6
 85.0224609375 -518.978515625 81 -418.515625 81 -313 c 4
 81 27.3564453125 116.966796875 308.509765625 370.397460938 366.353515625 c 1
 469.59765625 611.348632812 605.314453125 739.94140625 779.939453125 741 c 0
 1008.2890625 741 1152 550.060546875 1152 327 c 0
 1152 127.229492188 1051.04296875 -23 843 -23 c 0
 769.416015625 -23 685.015625 6.521484375 588.71484375 61.8427734375 c 0
 556.782226562 81.80078125 524.005859375 99.1357421875 486.837890625 118.221679688 c 0
 460.020507812 132.092773438 435.588867188 138 419.095703125 138 c 0
 339.598632812 137.235351562 294 18.8232421875 294 -285 c 4
 294 -415.494140625 298.975585938 -526.872070312 307.9296875 -633.323242188 c 6
 309.752929688 -655 l 5
 288 -655 l 5
 112 -655 l 5
 93.1611328125 -655 l 5
 92.0361328125 -636.194335938 l 6
EndSplineSet
Position2: "Single Positioning lookup 2 subtable" dx=0 dy=0 dh=-178 dv=0
Position2: "Single Positioning lookup 1 subtable" dx=0 dy=0 dh=-173 dv=0
Substitution2: "'init' Initial Forms in Arabic lookup 3 subtable" uniFEE3
Substitution2: "'medi' Medial Forms in Arabic lookup 2 subtable" uniFEE4
Substitution2: "'fina' Terminal Forms in Arabic lookup 1 subtable" uniFEE2
EndChar

StartChar: uni0647
Encoding: 1607 1607 42
GlifName: uni0647
Width: 922
VWidth: 2950
GlyphClass: 2
Flags: HW
AnchorPoint: "Anchor-10" 409.775 1219.01 basechar 0
AnchorPoint: "Anchor-7" 445.63 -222.576 basechar 0
LayerCount: 2
Fore
SplineSet
447.60546875 628.739257812 m 1
 330.991210938 523.369140625 285 443.129882812 285 369 c 0
 285 269.352539062 329.493164062 220 460 220 c 0
 591.609375 220 637 269.451171875 637 370 c 4
 637 436.759765625 581.063476562 519.044921875 447.60546875 628.739257812 c 1
380.81640625 968.13671875 m 2
 691.493164062 740.640625 844 546.973632812 844 364 c 4
 844 157.1875 697.272460938 7.12109375 461.131835938 4 c 0
 220.682617188 4 78 134.387695312 78 364 c 0
 78 505.03125 146.52734375 639.1953125 287.6328125 781.985351562 c 1
 258.901367188 806.885742188 l 1
 244.853515625 819.061523438 l 1
 255.970703125 833.9609375 l 1
 352.970703125 963.9609375 l 1
 364.82421875 979.846679688 l 1
 380.81640625 968.13671875 l 2
EndSplineSet
Position2: "Single Positioning lookup 2 subtable" dx=0 dy=0 dh=-178 dv=0
Position2: "Single Positioning lookup 1 subtable" dx=0 dy=0 dh=-173 dv=0
Substitution2: "'fina' Terminal Forms in Arabic lookup 1 subtable" uniFEEA
Substitution2: "'medi' Medial Forms in Arabic lookup 2 subtable" uniFEEC
Substitution2: "'init' Initial Forms in Arabic lookup 3 subtable" uniFEEB
EndChar

StartChar: uni0648
Encoding: 1608 1608 43
GlifName: uni0648
Width: 880
VWidth: 2142
GlyphClass: 2
Flags: HW
AnchorPoint: "Anchor-7" 415.969 -619.998 basechar 0
AnchorPoint: "Anchor-10" 430.256 1050.2 basechar 0
LayerCount: 2
Fore
SplineSet
587.927734375 9.396484375 m 1
 522.668945312 1.63671875 480.327148438 -2 457 -2 c 0
 210.545898438 -2 78 103.7265625 78 316 c 0
 78 549.03515625 217.365234375 760 428 760 c 0
 691.3359375 760 802 465.08203125 802 186 c 0
 802 -195.120117188 588.724609375 -448.125 171.747070312 -527.645507812 c 2
 155.404296875 -530.762695312 l 1
 149.364257812 -515.260742188 l 1
 89.3642578125 -361.260742188 l 1
 80.59765625 -338.758789062 l 1
 104.338867188 -334.337890625 l 2
 374.625976562 -284.008789062 530.231445312 -160.112304688 587.927734375 9.396484375 c 1
594.931640625 233.678710938 m 1
 578.515625 446.1875 516.114257812 535 420 535 c 0
 344.700195312 535 283 441.862304688 283 331 c 0
 283 253.703125 333.231445312 212 458 212 c 0
 502.1640625 212 549.713867188 220.923828125 594.931640625 233.678710938 c 1
EndSplineSet
Position2: "Single Positioning lookup 2 subtable" dx=0 dy=0 dh=-30 dv=0
Position2: "Single Positioning lookup 1 subtable" dx=0 dy=0 dh=-30 dv=0
Substitution2: "'fina' Terminal Forms in Arabic lookup 1 subtable" uniFEEE
EndChar

StartChar: uni0649
Encoding: 1609 1609 44
GlifName: uni0649
Width: 1477
VWidth: 2950
GlyphClass: 2
Flags: HW
AnchorPoint: "Anchor-7" 716.902 -656.086 basechar 0
AnchorPoint: "Anchor-10" 644.6 956.22 basechar 0
LayerCount: 2
Fore
SplineSet
379.508789062 487.422851562 m 2
 319.040039062 339.71875 289 219.475585938 289 102 c 0
 289 -158.9296875 428.829101562 -287.025390625 724.033203125 -288 c 0
 957.865234375 -288 1197 -184.825195312 1197 -22 c 0
 1197 5.3134765625 1163.140625 16 1118 16 c 2
 974 16 l 2
 803.588867188 16 708 111.453125 708 283 c 0
 708 566.182617188 940.54296875 746.53515625 1191.55859375 746.53515625 c 0
 1230.29785156 746.53515625 1303.70703125 745.122070312 1379.69238281 713.461914062 c 2
 1394.73730469 707.192382812 l 1
 1391.63378906 691.192382812 l 1
 1359.63378906 526.192382812 l 1
 1355.38574219 504.284179688 l 1
 1334.07226562 510.8984375 l 2
 1278.59863281 528.114257812 1229.89550781 531.233398438 1191.96875 531.233398438 c 0
 1024.13476562 531.233398438 917 405.93359375 917 296 c 0
 917 243.872070312 921.006835938 232 984 232 c 2
 1164.04199219 232 l 2
 1314.60058594 231.372070312 1399 140.930664062 1399 18 c 0
 1399 -316.16015625 1115.98339844 -499 719 -499 c 0
 296.7265625 -499 78 -297.528320312 78 99 c 0
 78 244.459960938 114.924804688 394.244140625 187.583984375 565.799804688 c 2
 195.270507812 583.950195312 l 1
 213.530273438 576.528320312 l 1
 368.530273438 513.528320312 l 1
 387.10546875 505.978515625 l 1
 379.508789062 487.422851562 l 2
EndSplineSet
Position2: "Single Positioning lookup 2 subtable" dx=0 dy=0 dh=-60 dv=0
Position2: "Single Positioning lookup 1 subtable" dx=0 dy=0 dh=-58 dv=0
Substitution2: "'fina' Terminal Forms in Arabic lookup 1 subtable" uniFEF0
Substitution2: "'medi' Medial Forms in Arabic lookup 2 subtable" uniFBE9
Substitution2: "'init' Initial Forms in Arabic lookup 3 subtable" uniFBE8
EndChar

StartChar: uni064B
Encoding: 1611 1611 46
GlifName: uni064B_
Width: 0
VWidth: 2316
GlyphClass: 4
Flags: HW
AnchorPoint: "Anchor-10" 583.551 1123.65 mark 0
AnchorPoint: "Anchor-9" 583.551 1123.65 mark 0
AnchorPoint: "Anchor-1" 553.285 1596.25 basemark 0
AnchorPoint: "Anchor-1" 583.551 1123.65 mark 0
LayerCount: 2
Fore
SplineSet
322 1076 m 1
 322 1180 l 1
 322 1183.35768781 l 1
 325.108024057 1184.62822072 l 1
 780.108024057 1370.62822072 l 1
 787 1373.4455999 l 1
 787 1366 l 1
 787 1263 l 1
 787 1259.64913344 l 1
 783.900681343 1258.37534753 l 1
 328.900681343 1071.37534753 l 1
 322 1068.53924333 l 1
 322 1076 l 1
322 1288 m 1
 322 1392 l 1
 322 1395.35768781 l 1
 325.108024057 1396.62822072 l 1
 780.108024057 1582.62822072 l 1
 787 1585.4455999 l 1
 787 1578 l 1
 787 1475 l 1
 787 1471.64913344 l 1
 783.900681343 1470.37534753 l 1
 328.900681343 1283.37534753 l 1
 322 1280.53924333 l 1
 322 1288 l 1
EndSplineSet
EndChar

StartChar: uni064C
Encoding: 1612 1612 47
GlifName: uni064C_
Width: 0
VWidth: 2316
GlyphClass: 4
Flags: HW
AnchorPoint: "Anchor-10" 680.906 1278.67 mark 0
AnchorPoint: "Anchor-9" 680.906 1278.67 mark 0
AnchorPoint: "Anchor-1" 637.739 1852.46 basemark 0
AnchorPoint: "Anchor-1" 680.906 1278.67 mark 0
LayerCount: 2
Fore
SplineSet
484 1629 m 0
 484 1729.05477917 555.037558591 1796 652 1796 c 0
 749.502659876 1796 819 1729.8986434 819 1628 c 0
 819 1590.00544811 809.654142839 1549.63055867 794.039458443 1510.90744928 c 1
 809.500362015 1508.58747262 820.343431184 1508 830 1508 c 2
 835 1508 l 1
 835 1503 l 1
 835 1427 l 1
 835 1421.7437539 l 1
 829.750311915 1422.00623831 l 2
 810.458808408 1422.97081348 787.094110607 1424.96729285 757.039851403 1430.35472982 c 1
 692.95842221 1280.59489422 598.90224861 1205.99202128 471.867219481 1205.99202128 c 0
 334.967229309 1205.99202128 265.994039725 1333.35264228 263.000643449 1519.9197873 c 2
 262.932292721 1524.17983141 l 1
 267.127518383 1524.92328913 l 1
 346.127518383 1538.92328913 l 1
 351.877288374 1539.94223571 l 1
 351.998915284 1534.10414407 l 2
 355.007557496 1389.68931789 397.266229999 1294 473 1294 c 0
 543.270059814 1294 608.316117917 1345.35399614 665.704146525 1445.27662736 c 1
 561.8454573 1482.48115835 484 1532.16480731 484 1629 c 0
706.093184249 1528.95257809 m 1
 719.74741739 1561.61527371 731 1596.97561208 731 1627 c 0
 731 1672.4518915 696.767194245 1706 656 1706 c 0
 608.243151317 1706 574 1674.37111037 574 1625 c 0
 574 1573.73614198 641.805531364 1546.37134787 706.093184249 1528.95257809 c 1
EndSplineSet
EndChar

StartChar: uni064D
Encoding: 1613 1613 48
GlifName: uni064D_
Width: 0
VWidth: 2316
GlyphClass: 4
Flags: HW
AnchorPoint: "Anchor-7" 542.278 32.7109 mark 0
AnchorPoint: "Anchor-6" 542.278 32.7109 mark 0
AnchorPoint: "Anchor-0" 592.022 -407.025 basemark 0
AnchorPoint: "Anchor-0" 542.278 32.7109 mark 0
LayerCount: 2
Fore
SplineSet
327 -446 m 1
 327 -342 l 1
 327 -338.639524341 l 1
 330.111580725 -337.37032694 l 1
 786.111580725 -151.37032694 l 1
 793 -148.560576973 l 1
 793 -156 l 1
 793 -260 l 1
 793 -263.360475659 l 1
 789.888419275 -264.62967306 l 1
 333.888419275 -450.62967306 l 1
 327 -453.439423027 l 1
 327 -446 l 1
327 -234 m 1
 327 -130 l 1
 327 -126.639524341 l 1
 330.111580725 -125.37032694 l 1
 786.111580725 60.6296730601 l 1
 793 63.4394230274 l 1
 793 56 l 1
 793 -48 l 1
 793 -51.3604756589 l 1
 789.888419275 -52.6296730601 l 1
 333.888419275 -238.62967306 l 1
 327 -241.439423027 l 1
 327 -234 l 1
EndSplineSet
EndChar

StartChar: uni064E
Encoding: 1614 1614 49
GlifName: uni064E_
Width: 0
VWidth: 2316
GlyphClass: 4
Flags: HW
AnchorPoint: "Anchor-10" 545.66 1397.63 mark 0
AnchorPoint: "Anchor-9" 545.66 1397.63 mark 0
AnchorPoint: "Anchor-1" 541.396 1651.77 basemark 0
AnchorPoint: "Anchor-1" 545.66 1397.63 mark 0
LayerCount: 2
Fore
SplineSet
291 1349 m 1
 291 1453 l 1
 291 1456.36047566 l 1
 294.111580725 1457.62967306 l 1
 750.111580725 1643.62967306 l 1
 757 1646.43942303 l 1
 757 1639 l 1
 757 1535 l 1
 757 1531.63952434 l 1
 753.888419275 1530.37032694 l 1
 297.888419275 1344.37032694 l 1
 291 1341.56057697 l 1
 291 1349 l 1
EndSplineSet
EndChar

StartChar: uni064F
Encoding: 1615 1615 50
GlifName: uni064F_
Width: 0
VWidth: 2316
GlyphClass: 4
Flags: HW
AnchorPoint: "Anchor-10" 591.295 1339.37 mark 0
AnchorPoint: "Anchor-9" 591.295 1339.37 mark 0
AnchorPoint: "Anchor-1" 542.134 1865.4 basemark 0
AnchorPoint: "Anchor-1" 591.295 1339.37 mark 0
LayerCount: 2
Fore
SplineSet
723 1422 m 2
 695.828597383 1422 670.423744292 1423.924512 645.263920105 1427.60101005 c 1
 578.013907168 1336.07955349 443.430108816 1286.96120214 280.273977998 1278.00751204 c 2
 275 1277.71808642 l 1
 275 1283 l 1
 275 1361 l 1
 275 1365.56291871 l 1
 279.543894354 1365.97915331 l 2
 404.441303527 1377.42013735 507.377602858 1407.62116358 555.778698254 1451.92412839 c 1
 465.209130505 1471.51142808 375 1532.09835108 375 1626 c 0
 375 1726.48549335 446.259447738 1793 543 1793 c 0
 640.040078137 1793 711 1725.9877249 711 1625 c 0
 711 1587.07224029 702.155983978 1548.08466552 687.024745786 1510.00762978 c 1
 698.717778369 1508.33340963 710.693343945 1507 723 1507 c 2
 728 1507 l 1
 728 1502 l 1
 728 1427 l 1
 728 1422 l 1
 723 1422 l 2
597.093184249 1525.95257809 m 1
 610.74741739 1558.61527371 622 1593.97561208 622 1624 c 0
 622 1669.90534222 588.646496609 1702 547 1702 c 0
 498.751670299 1702 465 1671.64435205 465 1622 c 0
 465 1570.73614198 532.805531364 1543.37134787 597.093184249 1525.95257809 c 1
EndSplineSet
EndChar

StartChar: uni0650
Encoding: 1616 1616 51
GlifName: uni0650
Width: 0
VWidth: 2316
GlyphClass: 4
Flags: HW
AnchorPoint: "Anchor-7" 571.144 -44.8242 mark 0
AnchorPoint: "Anchor-6" 571.144 -44.8242 mark 0
AnchorPoint: "Anchor-0" 619.091 -324.624 basemark 0
AnchorPoint: "Anchor-0" 571.144 -44.8242 mark 0
LayerCount: 2
Fore
SplineSet
338 -346 m 1
 338 -242 l 1
 338 -238.642312191 l 1
 341.108024057 -237.37177928 l 1
 796.108024057 -51.3717792801 l 1
 803 -48.5544001035 l 1
 803 -56 l 1
 803 -159 l 1
 803 -162.350866557 l 1
 799.900681343 -163.624652466 l 1
 344.900681343 -350.624652466 l 1
 338 -353.460756666 l 1
 338 -346 l 1
EndSplineSet
EndChar

StartChar: uni0651
Encoding: 1617 1617 52
GlifName: uni0651
Width: 0
VWidth: 2393
GlyphClass: 4
Flags: HW
AnchorPoint: "Anchor-10" 598.801 1453.71 mark 0
AnchorPoint: "Anchor-9" 598.801 1453.71 mark 0
AnchorPoint: "Anchor-1" 570.087 1839.1 basemark 0
AnchorPoint: "Anchor-1" 598.801 1453.71 mark 0
LayerCount: 2
Fore
SplineSet
612.996814272 1758.17845765 m 2
 614.000971112 1730.06206613 614.004587142 1703.12300544 615.986340519 1676.36933484 c 0
 620.470748312 1615.82594199 641.34635892 1579 681 1579 c 0
 724.05315381 1579 743 1608.63609599 743 1675 c 0
 743 1699.26222254 737.071760902 1739.14084547 726.104330813 1791.98391772 c 2
 725.039469487 1797.11461319 l 1
 730.214424756 1797.93790153 l 1
 818.214424756 1811.93790153 l 1
 822.562078279 1812.62957368 l 1
 823.798687035 1808.40449377 l 2
 835.924815406 1766.97355517 842 1725.50040198 842 1685 c 0
 842 1548.85809616 791.592387537 1478.03639671 690.02550954 1477 c 0
 649.245973611 1477 604.695041619 1495.30738022 582.56488639 1526.6395246 c 1
 557.730953684 1453.72703234 490.941331312 1433 432 1433 c 0
 334.970559993 1433 288.873817788 1497.58668621 288.873817788 1616.0779836 c 0
 288.873817788 1652.67729872 293.821732821 1686.68261077 302.176180894 1717.31558703 c 2
 303.365055224 1721.6747929 l 1
 307.821994937 1720.93196962 l 1
 385.821994937 1707.93196962 l 1
 391.043065303 1707.06179122 l 1
 389.87720501 1701.89869564 l 2
 382.974742541 1671.33064756 381 1643.7216864 381 1620 c 0
 381 1565.55463135 402.168629097 1541 444 1541 c 0
 523.873006789 1541 526.4140625 1595.95464715 526.4140625 1719.33203125 c 0
 526.4140625 1731.62153421 526.293296642 1744.45790791 526.001181741 1757.89129853 c 2
 525.890090813 1763 l 1
 531 1763 l 1
 608 1763 l 1
 612.824616331 1763 l 1
 612.996814272 1758.17845765 l 2
EndSplineSet
EndChar

StartChar: uni0652
Encoding: 1618 1618 53
GlifName: uni0652
Width: 0
VWidth: 2316
GlyphClass: 4
Flags: HW
AnchorPoint: "Anchor-10" 593.219 1239.43 mark 0
AnchorPoint: "Anchor-9" 593.219 1239.43 mark 0
AnchorPoint: "Anchor-1" 589.537 1682.66 basemark 0
AnchorPoint: "Anchor-1" 593.219 1239.43 mark 0
LayerCount: 2
Fore
SplineSet
505 1462 m 0
 505 1412.8082802 544.685385891 1374 594 1374 c 0
 643.263689127 1374 682 1412.73634132 682 1462 c 0
 682 1511.31460159 643.191746384 1551 594 1551 c 0
 544.757474878 1551 505 1511.24253911 505 1462 c 0
416 1462 m 0
 416 1559.77191372 496.228026179 1640 594 1640 c 0
 691.771913722 1640 772 1559.77197382 772 1462 c 0
 772 1364.22808628 691.771973821 1284 594 1284 c 0
 496.228086278 1284 416 1364.22802618 416 1462 c 0
EndSplineSet
EndChar

StartChar: uni0653
Encoding: 1619 1619 54
GlifName: uni0653
Width: 0
VWidth: 2673
GlyphClass: 4
Flags: HW
AnchorPoint: "Anchor-10" 461.017 1539.11 mark 0
AnchorPoint: "Anchor-9" 461.017 1539.11 mark 0
AnchorPoint: "Anchor-1" 449.017 1883.25 basemark 0
AnchorPoint: "Anchor-1" 461.017 1539.11 mark 0
LayerCount: 2
Fore
SplineSet
373.235351562 1645.82714844 m 0
 313.234375 1645.82714844 256.13716723 1601.29444761 203.138871709 1537.87025789 c 2
 197.529221531 1531.15706997 l 1
 191.343145751 1537.34314575 l 1
 90.3427734375 1628.34277344 l 1
 85.599609375 1633.0859375 l 1
 89.443359375 1638.58398438 l 2
 158.365234375 1737.16894531 241.3984375 1803.68457031 338.674804688 1803.68457031 c 0
 425.3515625 1803.68457031 493.28515625 1752.62207031 574.038085938 1752.62207031 c 0
 626.640625 1752.62207031 684.767578125 1773.93554688 748.38671875 1806.13769531 c 2
 755.560546875 1809.76855469 l 1
 759.155273438 1802.578125 l 1
 825.155417528 1680.57770876 l 1
 828.429214084 1674.03011565 l 1
 822.197196984 1670.18945395 l 2
 752.448963731 1627.20507764 678.432617188 1599.77539062 600.071289062 1599.77539062 c 0
 516.64453125 1599.77539062 449.083984375 1645.82714844 373.235351562 1645.82714844 c 0
EndSplineSet
EndChar

StartChar: uni0657
Encoding: 1623 1623 57
GlifName: uni0657
Width: 0
VWidth: 2316
GlyphClass: 4
Flags: HW
AnchorPoint: "Anchor-10" 513.285 1400.55 mark 0
AnchorPoint: "Anchor-9" 513.285 1400.55 mark 0
AnchorPoint: "Anchor-1" 537.285 2069.85 basemark 0
AnchorPoint: "Anchor-1" 513.285 1400.55 mark 0
LayerCount: 2
Fore
SplineSet
265.124960956 1809.99843823 m 2
 304.358787057 1809.01759258 347.71461718 1805.98683215 392.881103662 1801.25204894 c 1
 493.905044067 1943.85577726 623.584882781 2022.88925735 784.533296457 2037.97817113 c 2
 790 2038.49067459 l 1
 790 2033 l 1
 790 1955 l 1
 790 1950.74734112 l 1
 785.802468983 1950.06481576 l 2
 666.206216065 1930.61827057 569.005038794 1873.8586189 494.458981628 1780.66761205 c 1
 579.790004948 1754.05741094 663 1698.09475739 663 1599 c 0
 663 1505.19842535 595.891184632 1433 501 1433 c 0
 406.244339287 1433 327 1499.62395605 327 1603 c 0
 327 1631.44559175 334.060675802 1671.50397997 348.331140834 1717.47660332 c 1
 323.088518456 1719.3127248 296.195980529 1721 265 1721 c 2
 260 1721 l 1
 260 1726 l 1
 260 1805 l 1
 260 1810.12656226 l 1
 265.124960956 1809.99843823 l 2
501 1521 m 0
 546.12704559 1521 572 1551.08074682 572 1597 c 0
 572 1652.77624618 504.399179975 1686.98009098 439.977070212 1703.1286155 c 1
 422.748015945 1661.05605279 415 1630.36185962 415 1605 c 0
 415 1555.75238902 453.794716518 1521 501 1521 c 0
EndSplineSet
EndChar

StartChar: uni065A
Encoding: 1626 1626 58
GlifName: uni065A_
Width: 0
VWidth: 2316
GlyphClass: 4
Flags: HW
AnchorPoint: "Anchor-10" 573.285 1350.55 mark 0
AnchorPoint: "Anchor-9" 573.285 1350.55 mark 0
AnchorPoint: "Anchor-1" 571.012 1862.38 basemark 0
AnchorPoint: "Anchor-1" 573.285 1350.55 mark 0
LayerCount: 2
Fore
SplineSet
497.704368254 1441.44118232 m 1
 304.704368254 1765.44118232 l 1
 300.201739206 1773 l 1
 309 1773 l 1
 433 1773 l 1
 435.871851662 1773 l 1
 437.318894504 1770.51935513 l 1
 573.01535582 1537.89685001 l 1
 709.688944267 1770.53274524 l 1
 711.138456437 1773 l 1
 714 1773 l 1
 838 1773 l 1
 846.821605559 1773 l 1
 842.289799352 1765.43141644 l 1
 648.289799352 1441.43141644 l 1
 646.833951238 1439 l 1
 644 1439 l 1
 502 1439 l 1
 499.158529329 1439 l 1
 497.704368254 1441.44118232 l 1
EndSplineSet
EndChar

StartChar: uni0660
Encoding: 1632 1632 59
GlifName: afii57392
Width: 799
VWidth: 2655
GlyphClass: 2
Flags: HW
LayerCount: 2
Fore
SplineSet
160.779651847 503.063865915 m 1
 383.97984716 727.163475291 l 1
 398.093744321 741.334246227 l 1
 412.264288695 727.220121596 l 1
 638.163702758 502.220121596 l 1
 652.362313545 488.078042298 l 1
 638.191940312 473.907669064 l 1
 414.092330936 249.808059688 l 1
 399.950195312 235.665924065 l 1
 385.808059688 249.808059688 l 1
 160.808059688 474.808059688 l 1
 146.694331963 488.921787413 l 1
 160.779651847 503.063865915 l 1
EndSplineSet
EndChar

StartChar: uni0661
Encoding: 1633 1633 60
GlifName: afii57393
Width: 651
VWidth: 2950
GlyphClass: 2
Flags: HW
LayerCount: 2
Fore
SplineSet
292.23828125 1308.20703125 m 6
 428.62109375 1005.13476562 497 652.103515625 497 225 c 6
 497 20 l 1
 497 0 l 1
 477 0 l 1
 307 0 l 1
 287 0 l 1
 287 20 l 1
 287 228 l 6
 287 652.112304688 224.185546875 980.983398438 100.041992188 1234.1953125 c 6
 90.255859375 1254.15625 l 5
 111.135742188 1261.78515625 l 5
 267.135742188 1318.78515625 l 5
 284.60546875 1325.16894531 l 5
 292.23828125 1308.20703125 l 6
EndSplineSet
EndChar

StartChar: uni0662
Encoding: 1634 1634 61
GlifName: afii57394
Width: 1114
VWidth: 2950
GlyphClass: 2
Flags: HW
LayerCount: 2
Fore
SplineSet
287 228 m 6
 287 652.112304688 224.185546875 980.983398438 100.041992188 1234.1953125 c 6
 90.220703125 1254.22851562 l 5
 111.204101562 1261.80957031 l 5
 266.204101562 1317.80957031 l 5
 284.788085938 1324.52441406 l 5
 291.7265625 1306.02246094 l 6
 321.641601562 1226.25 352.684570312 1147.13378906 382.705078125 1067.08105469 c 4
 427.569335938 949.668945312 491.927734375 895 624 895 c 4
 752.0859375 895 810 980.36328125 810 1130 c 4
 810 1180.77832031 799.830078125 1246.32617188 793.258789062 1286.79394531 c 6
 789.891601562 1307.52832031 l 5
 810.765625 1309.875 l 5
 979.765625 1328.875 l 5
 999.321289062 1331.07324219 l 5
 1001.8359375 1311.55566406 l 6
 1007.5625 1267.11621094 1016 1200.67773438 1016 1140 c 4
 1016 861.146484375 878.857421875 682 626 682 c 4
 561.354492188 682 516.573242188 690.706054688 462.563476562 711.369140625 c 5
 486.455078125 533.395507812 497 375.520507812 497 225 c 6
 497 20 l 1
 497 0 l 1
 477 0 l 1
 307 0 l 1
 287 0 l 1
 287 20 l 1
 287 228 l 6
EndSplineSet
EndChar

StartChar: uni0663
Encoding: 1635 1635 62
GlifName: afii57395
Width: 1411
VWidth: 2950
GlyphClass: 2
Flags: HW
LayerCount: 2
Fore
SplineSet
287 228 m 6
 287 652.112304688 224.185546875 980.983398438 100.041992188 1234.1953125 c 6
 90.220703125 1254.22851562 l 5
 111.204101562 1261.80957031 l 5
 266.204101562 1317.80957031 l 5
 285.094726562 1324.63476562 l 5
 291.838867188 1305.71484375 l 6
 327.779296875 1204.8828125 364.797851562 1104.83007812 400.829101562 1003.74121094 c 4
 426.946289062 930.795898438 479.698242188 895.928710938 566.107421875 895 c 4
 634.953125 895 676.9921875 963.720703125 678 1141.05664062 c 4
 678 1173.33496094 679 1206.44921875 679 1238 c 6
 679 1256.3828125 l 5
 697.317382812 1257.92871094 l 5
 851.317382812 1270.92871094 l 5
 872.370117188 1272.70605469 l 5
 872.991210938 1251.58789062 l 6
 873.978515625 1218.02148438 875.983398438 1182.84570312 876.98828125 1148.67871094 c 4
 884.034179688 965.501953125 929.581054688 895 999 895 c 4
 1083.00683594 895 1108 971.615234375 1108 1074 c 4
 1108 1167.35058594 1096.28417969 1234.63769531 1087.29296875 1286.58886719 c 6
 1083.69433594 1307.38183594 l 5
 1104.64941406 1309.86132812 l 5
 1273.64941406 1329.86132812 l 5
 1293.33691406 1332.19140625 l 5
 1295.83984375 1312.52539062 l 6
 1302.84082031 1257.515625 1313 1179.328125 1313 1080 c 4
 1313 855.143554688 1214.76660156 682 995 682 c 4
 912.452148438 682 836.704101562 715.068359375 772.209960938 782.912109375 c 5
 708.243164062 713.927734375 635.58984375 682 568 682 c 4
 534.1484375 682 498.325195312 687.19921875 464.801757812 700.502929688 c 5
 487.348632812 527.522460938 497 383.657226562 497 225 c 6
 497 20 l 1
 497 0 l 1
 477 0 l 1
 307 0 l 1
 287 0 l 1
 287 20 l 1
 287 228 l 6
EndSplineSet
EndChar

StartChar: uni0664
Encoding: 1636 1636 63
GlifName: afii57396
Width: 1006
VWidth: 2950
GlyphClass: 2
Flags: HW
LayerCount: 2
Fore
SplineSet
775.459960938 606.443359375 m 2
 464.869934904 506.052555208 334 413.341796875 334 331 c 0
 334 259.305664062 454.838867188 220 704 220 c 2
 896 220 l 1
 915.779296875 220 l 1
 915.999023438 200.22265625 l 1
 917.999023438 20.22265625 l 1
 918.223632812 0 l 1
 898 0 l 1
 696.973632812 0 l 2
 323.98046875 1 111 102.232421875 111 327 c 0
 111 482.58203125 243.557617188 572.567382812 469.090820312 682.19140625 c 1
 292.682617188 732.36328125 194 822.609375 194 983 c 0
 194 1208.63085938 413.740234375 1315.94824219 655.874023438 1319 c 0
 701.0703125 1319 750.549804688 1315.95996094 800.430664062 1309.8515625 c 2
 819.333984375 1307.53710938 l 1
 817.947265625 1288.54296875 l 1
 804.947265625 1110.54296875 l 1
 803.418945312 1089.62109375 l 1
 782.59375 1092.14550781 l 2
 750.23828125 1096.06738281 721.045898438 1098 694 1098 c 0
 506.607421875 1098 429 1057.92773438 429 966 c 0
 429 891.41015625 529.1484375 845.229492188 767.696289062 824.927734375 c 2
 785.797851562 823.387695312 l 1
 785.999023438 805.220703125 l 1
 787.999023438 624.220703125 l 1
 788.149414062 610.544921875 l 1
 775.459960938 606.443359375 l 2
EndSplineSet
EndChar

StartChar: uni0665
Encoding: 1637 1637 64
GlifName: afii57397
Width: 1177
VWidth: 2950
GlyphClass: 2
Flags: HW
LayerCount: 2
Fore
SplineSet
564.008789062 931.650390625 m 5
 393.427734375 743.47265625 309 597.9609375 309 478 c 0
 309 331.481445312 397.901367188 218 595 218 c 0
 776.286132812 218 869 331.919921875 869 485 c 0
 869 626.034179688 757.119140625 772.884765625 564.008789062 931.650390625 c 5
481.62109375 1285.27734375 m 6
 878.0390625 1002.26464844 1081 792.665039062 1081 462 c 0
 1081 197.733398438 898.525390625 0 591 0 c 0
 265.267578125 0 97 204.244140625 97 461 c 0
 97 686.443359375 202.345703125 845.5859375 390.196289062 1068.03417969 c 5
 348.740234375 1100.19824219 l 5
 333.571289062 1111.96777344 l 5
 344.7109375 1127.60449219 l 5
 453.7109375 1280.60449219 l 5
 465.327148438 1296.91015625 l 5
 481.62109375 1285.27734375 l 6
EndSplineSet
EndChar

StartChar: uni0666
Encoding: 1638 1638 65
GlifName: afii57398
Width: 1175
VWidth: 2950
GlyphClass: 2
Flags: HW
LayerCount: 2
Fore
SplineSet
816.56640625 15.2734375 m 2
 736.982421875 342.452148438 692.869140625 635.76953125 683.5546875 1030.1640625 c 5
 581.0546875 1004.11816406 508.477539062 999 404 999 c 4
 271.234375 999 206.51171875 1016.43457031 84.7236328125 1071.79296875 c 6
 73 1077.12207031 l 5
 73 1090 l 5
 73 1287 l 5
 73 1318.2578125 l 5
 101.380859375 1305.15917969 l 6
 230.392578125 1245.61523438 298.944335938 1226 450 1226 c 4
 594.891601562 1226 704.208984375 1247.21777344 856.634765625 1307.59472656 c 6
 883.594726562 1318.2734375 l 5
 883.998046875 1289.27832031 l 6
 891.984375 715.284179688 942.947265625 347.10546875 1039.16015625 25.736328125 c 2
 1046.86425781 -0 l 1
 1020 0 l 1
 836 0 l 1
 820.28125 0 l 1
 816.56640625 15.2734375 l 2
EndSplineSet
EndChar

StartChar: uni0667
Encoding: 1639 1639 66
GlifName: afii57399
Width: 1246
VWidth: 2950
GlyphClass: 2
Flags: HW
LayerCount: 2
Fore
SplineSet
522.30078125 16.5439453125 m 2
 432.66015625 527.497070312 270.033203125 918.459960938 83.26171875 1204.05371094 c 6
 71.3720703125 1222.23339844 l 5
 90.470703125 1232.58398438 l 5
 245.470703125 1316.58398438 l 5
 262.420898438 1325.76953125 l 5
 272.22265625 1309.16796875 l 6
 407.84375 1079.44140625 546.646484375 765.526367188 623.765625 392.817382812 c 1
 699.727539062 767.387695312 838.029296875 1079.2265625 973.77734375 1309.16796875 c 6
 983.579101562 1325.76953125 l 5
 1000.52929688 1316.58398438 l 5
 1155.52929688 1232.58398438 l 5
 1174.62792969 1222.23339844 l 5
 1162.73828125 1204.05371094 l 6
 975.983398438 918.486328125 814.344726562 527.522460938 724.69921875 16.5439453125 c 2
 721.796875 -0 l 1
 705 0 l 1
 542 0 l 1
 525.203125 0 l 1
 522.30078125 16.5439453125 l 2
EndSplineSet
EndChar

StartChar: uni0668
Encoding: 1640 1640 67
GlifName: afii57400
Width: 1246
VWidth: 2950
GlyphClass: 2
Flags: HW
LayerCount: 2
Fore
SplineSet
542 1305 m 5
 705 1305 l 5
 721.796875 1305 l 5
 724.69921875 1288.45605469 l 6
 814.344726562 777.477539062 975.983398438 386.514648438 1162.73828125 100.946289062 c 2
 1174.62792969 82.7666015625 l 1
 1155.52929688 72.416015625 l 1
 1000.52929688 -11.583984375 l 1
 983.579101562 -20.76953125 l 1
 973.77734375 -4.16796875 l 2
 838.17578125 225.524414062 699.326171875 539.591796875 623.765625 912.182617188 c 5
 546.236328125 537.490234375 407.993164062 225.811523438 272.22265625 -4.16796875 c 2
 262.420898438 -20.76953125 l 1
 245.470703125 -11.583984375 l 1
 90.470703125 72.416015625 l 1
 71.3720703125 82.7666015625 l 1
 83.26171875 100.946289062 l 2
 270.033203125 386.540039062 432.66015625 777.502929688 522.30078125 1288.45605469 c 6
 525.203125 1305 l 5
 542 1305 l 5
EndSplineSet
EndChar

StartChar: uni0669
Encoding: 1641 1641 68
GlifName: afii57401
Width: 1026
GlyphClass: 2
Flags: HW
LayerCount: 2
Fore
SplineSet
87 907 m 4
 87 1107.8046875 247.026367188 1313 462 1313 c 4
 745.155273438 1313 819.36328125 1090.11425781 833.974609375 808.013671875 c 4
 849.31640625 499.166992188 860.321289062 276.724609375 866.993164062 20.5205078125 c 2
 867.52734375 -0 l 1
 847 0 l 1
 679 0 l 1
 659.514648438 0 l 1
 659.006835938 19.478515625 l 2
 655.650390625 148.14453125 645.758789062 439.748046875 641.6796875 592.973632812 c 5
 603.229492188 583.43359375 550.11328125 574 483 574 c 4
 227.580078125 574 87 670.279296875 87 907 c 4
461 1102 m 4
 368.975585938 1102 293 1004.79980469 293 907 c 4
 293 825.818359375 334.40234375 784 486 784 c 4
 526.500976562 784 590.438476562 795.171875 626.021484375 804.025390625 c 5
 619.278320312 909.29296875 608.717773438 997.864257812 573.994140625 1048.72265625 c 4
 551.052734375 1082.32226562 518.153320312 1102 461 1102 c 4
EndSplineSet
EndChar

StartChar: uni066A
Encoding: 1642 1642 69
GlifName: afii57381
Width: 1033
VWidth: 4036
GlyphClass: 2
Flags: HW
LayerCount: 2
Fore
SplineSet
750 1350 m 1
 882 1290 l 1
 900 1282 l 1
 302 -1 l 1
 284 7 l 1
 152 67 l 1
 133 75 l 1
 732 1358 l 1
 750 1350 l 1
617 213 m 0
 617 297 686 367 770 367 c 0
 854 367 923 297 923 213 c 0
 923 129 854 60 770 60 c 0
 685 60 617 126 617 213 c 0
110 1139 m 0
 110 1223 179 1293 263 1293 c 0
 347 1293 416 1223 416 1139 c 0
 416 1055 347 986 263 986 c 0
 178 986 110 1052 110 1139 c 0
EndSplineSet
EndChar

StartChar: uni066B
Encoding: 1643 1643 70
GlifName: uni066B_
Width: 772
VWidth: 2950
GlyphClass: 2
Flags: HW
LayerCount: 2
Fore
SplineSet
541.826171875 751.405273438 m 1
 668.826171875 697.405273438 l 1
 687.352539062 689.52734375 l 1
 679.353515625 671.052734375 l 1
 217.353515625 -395.947265625 l 1
 209.421875 -414.265625 l 1
 191.087890625 -406.368164062 l 1
 61.087890625 -350.368164062 l 1
 42.62890625 -342.416992188 l 1
 50.6708984375 -323.997070312 l 1
 515.670898438 741.002929688 l 1
 523.596679688 759.15625 l 1
 541.826171875 751.405273438 l 1
EndSplineSet
PairPos2: "'kern' Horizontal Kerning lookup 4 subtable 1" uni06F2 dx=-130 dy=0 dh=-130 dv=0 dx=0 dy=0 dh=0 dv=0
PairPos2: "'kern' Horizontal Kerning lookup 4 subtable 1" uni06F3 dx=-130 dy=0 dh=-130 dv=0 dx=0 dy=0 dh=0 dv=0
PairPos2: "'kern' Horizontal Kerning lookup 4 subtable 1" uni06F4 dx=-110 dy=0 dh=-110 dv=0 dx=0 dy=0 dh=0 dv=0
EndChar

StartChar: uni066C
Encoding: 1644 1644 71
GlifName: uni066C_
Width: 560
GlyphClass: 2
Flags: HW
LayerCount: 2
Fore
SplineSet
165.919616125 -315.939395391 m 1
 70.9196161248 -243.939395391 l 1
 55.3911820575 -232.17047694 l 1
 66.7505615464 -216.33999357 l 2
 127.564294402 -131.589696464 164.276796031 -34.7891152609 167 52.2767907262 c 2
 167 219 l 1
 167 239 l 1
 187 239 l 1
 358 239 l 1
 378 239 l 1
 378 219 l 1
 378 74 l 2
 378 -85.668430415 283.441091168 -240.02056739 190.619699852 -315.515900736 c 2
 178.435931315 -325.425444798 l 1
 165.919616125 -315.939395391 l 1
EndSplineSet
EndChar

StartChar: uni066D
Encoding: 1645 1645 72
GlifName: afii63167
Width: 1436
VWidth: 2948
GlyphClass: 2
Flags: HW
LayerCount: 2
Fore
SplineSet
151 1059 m 1
 568.518065947 1059 l 1
 698.998777521 1456.24127746 l 1
 718 1514.08944367 l 1
 737.001222479 1456.24127746 l 1
 867.481934053 1059 l 1
 1285 1059 l 1
 1346.08003475 1059 l 1
 1296.82927642 1022.87336925 l 1
 959.511152077 775.442309559 l 1
 1089.01043316 379.213165958 l 1
 1108.08318443 320.856240412 l 1
 1058.29691896 356.781556978 l 1
 718 602.336720088 l 1
 377.703081044 356.781556978 l 1
 327.916815568 320.856240412 l 1
 346.989566844 379.213165958 l 1
 476.488847923 775.442309559 l 1
 139.170723577 1022.87336925 l 1
 89.9199652515 1059 l 1
 151 1059 l 1
EndSplineSet
EndChar

StartChar: uni066E
Encoding: 1646 1646 73
GlifName: uni066E_
Width: 1777
VWidth: 2950
GlyphClass: 2
Flags: HW
AnchorPoint: "Anchor-10" 973.36 1433.35 basechar 0
AnchorPoint: "Anchor-7" 923.36 -239.261 basechar 0
LayerCount: 2
Fore
SplineSet
975 0 m 6
 840 0 l 2
 358 0 78 166 78 504 c 0
 78 596 99 685 134 766 c 2
 141 783 l 1
 159 777 l 1
 312 720 l 1
 331 713 l 1
 324 694 l 2
 304 640 293 584 293 529 c 0
 294 326 463 220 830 220 c 2
 968 220 l 6
 1249 220 1486 222 1486 468 c 4
 1486 525 1473 608 1450 709 c 6
 1446 728 l 5
 1465 732 l 5
 1625 772 l 5
 1643 777 l 5
 1649 759 l 6
 1683 657 1699 566 1699 483 c 4
 1699 61 1385 0 975 0 c 6
EndSplineSet
Substitution2: "'fina' Terminal Forms in Arabic lookup 1 subtable" uni066E.fina
EndChar

StartChar: uni066F
Encoding: 1647 1647 74
GlifName: uni066F_
Width: 1437
VWidth: 2950
GlyphClass: 2
Flags: HW
AnchorPoint: "Anchor-10" 115.809 1380.22 basechar 0
AnchorPoint: "Anchor-7" 329.219 -743.353 basechar 0
LayerCount: 2
Fore
SplineSet
1140.98632812 310.58984375 m 1
 1122.58007812 445.911132812 1073.95703125 584 971 584 c 0
 902.315429688 584 831 504.983398438 831 396 c 0
 831 326.567382812 875.409179688 289 987 289 c 0
 1038.2109375 289 1090.30273438 297.03515625 1140.98632812 310.58984375 c 1
361.708007812 494.928710938 m 2
 314.349609375 369.625976562 290 253.072265625 290 141 c 0
 290 -119.022460938 426.79296875 -247 725 -247 c 0
 1041.40332031 -247 1147.6796875 -120.822265625 1159.1171875 102.53125 c 1
 1100.58007812 87.5244140625 1039.50585938 79 971 79 c 0
 753.203125 79 631 177.826171875 631 369 c 0
 631 577.576171875 755.986328125 799 978 799 c 0
 1267.24316406 799 1359 478.268554688 1359 176 c 0
 1359 -247.9375 1160.36035156 -460 721 -460 c 0
 293.78125 -460 78 -258.510742188 78 136 c 0
 78 278.879882812 108.649414062 424.529296875 169.500976562 572.602539062 c 2
 177.07421875 591.029296875 l 1
 195.530273438 583.528320312 l 1
 350.530273438 520.528320312 l 1
 368.606445312 513.180664062 l 1
 361.708007812 494.928710938 l 2
EndSplineSet
Substitution2: "'fina' Terminal Forms in Arabic lookup 1 subtable" uni066F.fina
EndChar

StartChar: uni0670
Encoding: 1648 1648 75
GlifName: uni0670
Width: 0
VWidth: 2574
GlyphClass: 4
Flags: HW
AnchorPoint: "Anchor-10" 636.984 1500.61 mark 0
AnchorPoint: "Anchor-9" 636.984 1500.61 mark 0
AnchorPoint: "Anchor-1" 636.984 1957.18 basemark 0
AnchorPoint: "Anchor-1" 636.984 1500.61 mark 0
LayerCount: 2
Fore
SplineSet
588 1568 m 1
 588 1930 l 1
 588 1935 l 1
 593 1935 l 1
 681 1935 l 1
 686 1935 l 1
 686 1930 l 1
 686 1568 l 1
 686 1563 l 1
 681 1563 l 1
 593 1563 l 1
 588 1563 l 1
 588 1568 l 1
EndSplineSet
EndChar

StartChar: uni0674
Encoding: 1652 1652 76
GlifName: uni0674
Width: 551
VWidth: 2539
GlyphClass: 2
Flags: HW
LayerCount: 2
Fore
SplineSet
175.199613339 1972.04570265 m 1
 129.028745497 2013.07072556 111 2061.25749568 111 2133 c 0
 111 2263.74641802 208.737951791 2346 317 2346 c 0
 366.235274638 2346 413.202053426 2330.92939977 455.665548141 2304.47220821 c 2
 458.000353415 2303.01749067 l 1
 458.021338886 2300.26665837 l 1
 458.930518573 2181.088924 l 1
 458.998506745 2172.1768504 l 1
 451.3572475 2176.76387943 l 2
 410.605749968 2201.22690265 371.524386886 2213 331 2213 c 0
 282.224177333 2213 236 2187.22883778 236 2120.00001562 c 0
 237.018251636 2079.28649219 259.502674417 2048.81364113 320.999795413 2025.99995763 c 0
 327.567635625 2023.81034153 333.371508304 2022.1953125 338.90234375 2022.1953125 c 0
 341.689318567 2022.1953125 341.527773158 2022.19875102 346.359186227 2023.26006191 c 0
 390.100419388 2031.6494063 435.772208132 2041.29440044 479.032307442 2049.82824786 c 2
 485 2051.00548459 l 1
 485 2044.92278447 l 1
 485 1928.93916352 l 1
 485 1925.00019181 l 1
 481.170478254 1924.07809567 l 1
 84.1704782541 1828.48595808 l 1
 78 1827.00019182 l 1
 78 1833.34702593 l 1
 78 1946.00679526 l 1
 78 1949.99973449 l 1
 81.8940341861 1950.88294534 l 1
 175.199613339 1972.04570265 l 1
EndSplineSet
EndChar

StartChar: uni06A1
Encoding: 1697 1697 80
GlifName: uni06A_1
Width: 1781
VWidth: 2950
GlyphClass: 2
Flags: HW
AnchorPoint: "Anchor-10" 637.853 1648.62 basechar 0
AnchorPoint: "Anchor-7" 620.182 -334.248 basechar 0
LayerCount: 2
Fore
SplineSet
1507.75390625 383.12890625 m 5
 1451.94726562 368.552734375 1391.40234375 361 1328 361 c 4
 1104.20800781 361 982 460.03125 982 658 c 4
 982 872.09765625 1110.59667969 1081 1328 1081 c 4
 1599.86621094 1081 1703 775.193359375 1703 480.947265625 c 4
 1700.93847656 87.119140625 1527.93554688 0 1127 0 c 6
 837 0 l 2
 347.118164062 0 78 165.9765625 78 504 c 0
 78 596.009765625 98.67578125 684.692382812 133.62890625 765.90625 c 2
 141.151367188 783.384765625 l 1
 158.982421875 776.741210938 l 1
 311.982421875 719.741210938 l 1
 330.764648438 712.744140625 l 1
 323.7265625 693.977539062 l 2
 303.513671875 640.076171875 293 584.465820312 293 529 c 0
 293 326.974609375 475.088867188 220 833 220 c 2
 1148 220 l 6
 1386.06445312 220 1494.95410156 254.186523438 1507.75390625 383.12890625 c 5
1491.82714844 592.610351562 m 5
 1472.23828125 727.258789062 1423.68164062 865 1322 865 c 4
 1253.1328125 865 1182 787.931640625 1182 677 c 4
 1182 607.743164062 1226.13085938 571 1339 571 c 4
 1389.30371094 571 1440.24023438 578.966796875 1491.82714844 592.610351562 c 5
EndSplineSet
Substitution2: "'init' Initial Forms in Arabic lookup 3 subtable" uni06A1.init
Substitution2: "'medi' Medial Forms in Arabic lookup 2 subtable" uni06A1.medi
Substitution2: "'fina' Terminal Forms in Arabic lookup 1 subtable" uni06A1.fina
EndChar

StartChar: uni06A9
Encoding: 1705 1705 81
GlifName: uni06A_9
Width: 1865
VWidth: 2950
GlyphClass: 2
Flags: HW
AnchorPoint: "Anchor-7" 900.268 -206.468 basechar 0
AnchorPoint: "Anchor-10" 1193.88 1364.67 basechar 0
LayerCount: 2
Fore
SplineSet
1169.24902344 1000.89160156 m 1
 1331.8203125 862.969726562 1454.23535156 760.967773438 1529.24023438 680.193359375 c 4
 1615.81835938 585.561523438 1662.06542969 489.615234375 1662.06542969 375.299804688 c 0
 1662.06542969 118.31640625 1438.31835938 0 1031 0 c 2
 840 0 l 2
 358.599609375 0 78 165.205078125 78 504 c 0
 78 596.108398438 98.2421875 685.313476562 133.737304688 766.477539062 c 2
 141.338867188 783.859375 l 1
 159.096679688 777.185546875 l 1
 312.442382812 719.559570312 l 1
 331.192382812 712.513671875 l 1
 324.118164062 693.774414062 l 2
 303.599609375 639.416992188 293 584.0703125 293 529.036132812 c 0
 293.927734375 326.739257812 463.26171875 220 830 220 c 2
 1030 220 l 2
 1321.52636719 220 1446.00488281 284.907226562 1446.00488281 391.697265625 c 0
 1446.00488281 451.418945312 1416.14453125 501.32421875 1348.69042969 564.866210938 c 4
 1247.12304688 659.463867188 1155.30273438 728.299804688 1075.90722656 790.823242188 c 0
 997.7578125 851.4921875 955 918.41796875 955 992 c 0
 955 1086.08496094 1007 1155 1107.14453125 1191.45410156 c 2
 1804.67871094 1449.39746094 l 1
 1804.67871094 1420.64453125 l 1
 1804.67871094 1249.64453125 l 1
 1804.67871094 1235.73144531 l 1
 1169.24902344 1000.89160156 l 1
EndSplineSet
Position2: "Single Positioning lookup 2 subtable" dx=0 dy=0 dh=-226 dv=0
Position2: "Single Positioning lookup 1 subtable" dx=0 dy=0 dh=-219 dv=0
Position2: "Single Positioning lookup 0 subtable" dx=0 dy=0 dh=180 dv=0
Substitution2: "'init' Initial Forms in Arabic lookup 3 subtable" uniFB90
Substitution2: "'medi' Medial Forms in Arabic lookup 2 subtable" uniFB91
Substitution2: "'fina' Terminal Forms in Arabic lookup 1 subtable" uniFB8F
EndChar

StartChar: uni06BA
Encoding: 1722 1722 83
GlifName: afii57514
Width: 1447
VWidth: 2950
GlyphClass: 2
Flags: HW
LayerCount: 2
Fore
SplineSet
1080.5078125 577.916992188 m 1
 1249.5078125 635.916992188 l 1
 1267.62207031 642.133789062 l 1
 1274.61816406 624.305664062 l 2
 1337.37988281 464.365234375 1369 309.833007812 1369 160 c 0
 1369 -237.3125 1115.41796875 -450 721 -450 c 0
 296.771484375 -450 78 -247.6015625 78 146 c 0
 78 288.879882812 108.649414062 434.529296875 169.500976562 582.602539062 c 2
 177.07421875 601.029296875 l 1
 195.530273438 593.528320312 l 1
 350.530273438 530.528320312 l 1
 368.606445312 523.180664062 l 1
 361.708007812 504.928710938 l 2
 314.349609375 379.625976562 290 263.072265625 290 151 c 0
 290 -108.791992188 430.65625 -237 728 -237 c 0
 1015.59570312 -237 1156.03222656 -97.44921875 1157 190.033203125 c 0
 1157 309.55859375 1126.89941406 429.577148438 1068.96679688 550.350585938 c 2
 1059.24414062 570.619140625 l 1
 1080.5078125 577.916992188 l 1
EndSplineSet
Substitution2: "'fina' Terminal Forms in Arabic lookup 1 subtable" uniFB9F
EndChar

StartChar: uni06F0
Encoding: 1776 1776 86
GlifName: uni06F_0
Width: 902
VWidth: 2655
GlyphClass: 2
Flags: HW
LayerCount: 2
Fore
SplineSet
125.080078125 493 m 4
 125.080078125 672.450195312 271.549804688 818.919921875 451 818.919921875 c 4
 630.450195312 818.919921875 776.919921875 672.450195312 776.919921875 493 c 4
 776.919921875 313.549804688 630.450195312 167.080078125 451 167.080078125 c 4
 271.549804688 167.080078125 125.080078125 313.549804688 125.080078125 493 c 4
312 493 m 4
 312 416 375 353 451 353 c 4
 527 353 590 416 590 493 c 4
 590 569 528 631 451 631 c 4
 374 631 312 569 312 493 c 4
EndSplineSet
PairPos2: "'kern' Horizontal Kerning lookup 4 subtable 1" uni06F2 dx=-100 dy=0 dh=-100 dv=0 dx=0 dy=0 dh=0 dv=0
PairPos2: "'kern' Horizontal Kerning lookup 4 subtable 1" uni06F3 dx=-100 dy=0 dh=-100 dv=0 dx=0 dy=0 dh=0 dv=0
PairPos2: "'kern' Horizontal Kerning lookup 4 subtable 1" uni06F4 dx=-10 dy=0 dh=-10 dv=0 dx=0 dy=0 dh=0 dv=0
PairPos2: "'kern' Horizontal Kerning lookup 4 subtable 1" uni06F7 dx=-100 dy=0 dh=-100 dv=0 dx=0 dy=0 dh=0 dv=0
PairPos2: "'kern' Horizontal Kerning lookup 4 subtable 1" uni06F8 dx=-46 dy=0 dh=-46 dv=0 dx=0 dy=0 dh=0 dv=0
PairPos2: "'kern' Horizontal Kerning lookup 4 subtable 1" uni06F6 dx=-20 dy=0 dh=-20 dv=0 dx=0 dy=0 dh=0 dv=0
EndChar

StartChar: uni06F4
Encoding: 1780 1780 90
GlifName: uni06F_4
Width: 1193
VWidth: 2950
GlyphClass: 2
Flags: HW
LayerCount: 2
Fore
SplineSet
1084.0625 654.697265625 m 6
 998.475585938 616.998046875 915.294921875 594 820 594 c 4
 663.421875 594 544.993164062 636.79296875 459.864257812 700.249023438 c 5
 481.056640625 518.0703125 492 363.6796875 492 225 c 6
 492 20 l 1
 492 0 l 1
 472 0 l 1
 302 0 l 1
 282 0 l 1
 282 20 l 1
 282 228 l 6
 282 652.112304688 219.185546875 980.983398438 95.0419921875 1234.1953125 c 6
 85.2001953125 1254.27050781 l 5
 106.243164062 1261.82421875 l 5
 262.243164062 1317.82421875 l 5
 281.225585938 1324.63867188 l 5
 287.879882812 1305.59863281 l 5
 359.879882812 1099.59863281 l 6
 388.70703125 1017.12109375 407.337890625 972.797851562 420.012695312 949.34375 c 5
 444.822265625 1133.68652344 571.842773438 1327 796 1327 c 4
 946.9140625 1327 1034.65722656 1261.00683594 1048 1251 c 6
 1059.86425781 1242.10253906 l 5
 1054.79589844 1228.16503906 l 5
 998.795898438 1074.16503906 l 5
 991.126953125 1053.07617188 l 5
 942.564453125 1077.35644531 912.358398438 1106.40722656 807.034179688 1106.40722656 c 4
 689.877929688 1106.40722656 619.55859375 1009.3203125 608.771484375 899.052734375 c 4
 602.806640625 838.083984375 605.579101562 844.234375 652.549804688 827.953125 c 4
 690.161132812 814.916992188 737.578125 807 799 807 c 4
 887.301757812 807 966.552734375 830.961914062 1045.57226562 862.569335938 c 6
 1069.40039062 872.100585938 l 5
 1072.82128906 846.666015625 l 5
 1095.82128906 675.666015625 l 5
 1097.82617188 660.759765625 l 5
 1084.0625 654.697265625 l 6
EndSplineSet
Substitution2: "'locl' Localized Forms in Arabic lookup 10 subtable" uni06F4.urdu
PairPos2: "'kern' Horizontal Kerning lookup 4 subtable 1" uni06F0 dx=-64 dy=0 dh=-64 dv=0 dx=0 dy=0 dh=0 dv=0
PairPos2: "'kern' Horizontal Kerning lookup 4 subtable 1" uni06F5 dx=-40 dy=0 dh=-40 dv=0 dx=0 dy=0 dh=0 dv=0
PairPos2: "'kern' Horizontal Kerning lookup 4 subtable 1" uni06F8 dx=-64 dy=0 dh=-64 dv=0 dx=0 dy=0 dh=0 dv=0
PairPos2: "'kern' Horizontal Kerning lookup 4 subtable 1" uni06F1 dx=-64 dy=0 dh=-64 dv=0 dx=0 dy=0 dh=0 dv=0
PairPos2: "'kern' Horizontal Kerning lookup 4 subtable 1" uni06F9 dx=-64 dy=0 dh=-64 dv=0 dx=0 dy=0 dh=0 dv=0
EndChar

StartChar: uni06F5
Encoding: 1781 1781 91
GlifName: uni06F_5
Width: 1246
VWidth: 2950
GlyphClass: 2
Flags: HW
LayerCount: 2
Fore
SplineSet
396 210 m 0
 471 210 504 231 541 431 c 2
 544 447 l 1
 561 447 l 1
 685 447 l 1
 702 447 l 1
 705 430 l 2
 738 232 777 210 854 210 c 0
 910 210 946 252 946 344 c 0
 946 538 853 709 619 959 c 5
 400 666 300 505 300 344 c 0
 300 256 346 210 396 210 c 0
549 1328 m 6
 971 936 1150 659 1150 345 c 0
 1150 113 1040 0 854 0 c 0
 754 0 668 60 624 147 c 1
 584 60 505 0 397 0 c 0
 217 0 96 120 96 345 c 0
 96 610 268 838 465 1108 c 5
 416 1156 l 5
 404 1168 l 5
 414 1182 l 5
 519 1325 l 5
 532 1343 l 5
 549 1328 l 6
EndSplineSet
PairPos2: "'kern' Horizontal Kerning lookup 4 subtable 1" uni06F2 dx=-100 dy=0 dh=-100 dv=0 dx=0 dy=0 dh=0 dv=0
PairPos2: "'kern' Horizontal Kerning lookup 4 subtable 1" uni06F3 dx=-100 dy=0 dh=-100 dv=0 dx=0 dy=0 dh=0 dv=0
PairPos2: "'kern' Horizontal Kerning lookup 4 subtable 1" uni06F4 dx=-42 dy=0 dh=-42 dv=0 dx=0 dy=0 dh=0 dv=0
PairPos2: "'kern' Horizontal Kerning lookup 4 subtable 1" uni06F6 dx=-42 dy=0 dh=-42 dv=0 dx=0 dy=0 dh=0 dv=0
PairPos2: "'kern' Horizontal Kerning lookup 4 subtable 1" uni06F7 dx=-100 dy=0 dh=-100 dv=0 dx=0 dy=0 dh=0 dv=0
PairPos2: "'kern' Horizontal Kerning lookup 4 subtable 1" uni06F8 dx=-38 dy=0 dh=-38 dv=0 dx=0 dy=0 dh=0 dv=0
EndChar

StartChar: uni06F6
Encoding: 1782 1782 92
GlifName: uni06F_6
Width: 1009
VWidth: 2950
GlyphClass: 2
Flags: HW
LayerCount: 2
Fore
SplineSet
872.548828125 879.524414062 m 5
 879.208007812 856.572265625 l 5
 926.208007812 694.572265625 l 5
 931.029296875 677.953125 l 5
 644.258789062 543.0625 486.637773655 347.879727556 294.622070312 -44.6875 c 1
 275.8125 -36.2470703125 l 1
 119.8125 33.7529296875 l 1
 102.231445312 41.6416015625 l 5
 210.800731883 275.18216899 306.684570312 412.590820312 441.6484375 562.658203125 c 5
 225.774414062 607.067382812 113 739.189453125 113 889 c 4
 113 1102.01074219 272.106445312 1320 528 1320 c 4
 593.774414062 1320 677.900390625 1311.40429688 770.005859375 1250.69921875 c 6
 783.596679688 1241.74121094 l 5
 777.5859375 1226.61425781 l 5
 717.5859375 1075.61425781 l 5
 709.498046875 1055.25976562 l 5
 689.9609375 1065.15917969 l 6
 617.83203125 1101.70410156 574.975585938 1103 535 1103 c 4
 424.4609375 1103 327 989.952148438 327 896 c 4
 327 838.389648438 389.344726562 758.81640625 621.505859375 738.288085938 c 5
 713.47265625 796.24609375 754 821 851.129882812 868.924804688 c 6
 872.548828125 879.524414062 l 5
EndSplineSet
Substitution2: "'locl' Localized Forms in Arabic lookup 10 subtable" uni0666
PairPos2: "'kern' Horizontal Kerning lookup 4 subtable 1" uni06F7 dx=-40 dy=0 dh=-40 dv=0 dx=0 dy=0 dh=0 dv=0
PairPos2: "'kern' Horizontal Kerning lookup 4 subtable 1" uni06F8 dx=-40 dy=0 dh=-40 dv=0 dx=0 dy=0 dh=0 dv=0
PairPos2: "'kern' Horizontal Kerning lookup 4 subtable 1" uni06F9 dx=-30 dy=0 dh=-30 dv=0 dx=0 dy=0 dh=0 dv=0
EndChar

StartChar: uniFB8F
Encoding: 64399 64399 107
GlifName: uniF_B_8F_
Width: 1941
VWidth: 2950
GlyphClass: 2
Flags: HW
AnchorPoint: "Anchor-10" 1193.88 1364.67 basechar 0
AnchorPoint: "Anchor-7" 900.268 -206.468 basechar 0
LayerCount: 2
Fore
SplineSet
1169.24902344 1000.89160156 m 1
 1327.15136719 865.607421875 1452.56152344 764.450195312 1529.6796875 680.583007812 c 4
 1586.05371094 620.034179688 1628.22363281 552.431640625 1661.84179688 458.70703125 c 0
 1719.33496094 295.97265625 1809.59667969 220 1933 220 c 2
 1961 220 l 1
 1961 200 l 1
 1961 20 l 1
 1961 0 l 1
 1933 0 l 2
 1789.57519531 0 1674.22363281 58.6845703125 1584.62011719 166.099609375 c 1
 1491.90527344 52.021484375 1309.90234375 0 1030 0 c 2
 838 0 l 2
 357.231445312 0 78 165.689453125 78 504 c 0
 78 596.009765625 98.67578125 684.692382812 133.62890625 765.90625 c 2
 141.151367188 783.384765625 l 1
 158.982421875 776.741210938 l 1
 311.982421875 719.741210938 l 1
 330.764648438 712.744140625 l 1
 323.7265625 693.977539062 l 2
 303.521484375 640.098632812 293 584.411132812 293 529.045898438 c 0
 293.920898438 326.421875 462.4453125 220 828 220 c 2
 1030 220 l 2
 1321.69433594 220 1446 285.3984375 1446 393 c 0
 1446 451.252929688 1414.21582031 501.392578125 1347.31738281 564.413085938 c 4
 1241.64160156 663.109375 1150.91699219 732.836914062 1075.73535156 791.202148438 c 0
 997.235351562 852.142578125 955 918.599609375 955 992 c 0
 955 1086.0078125 1008 1155 1107.14453125 1191.45410156 c 2
 1804.67871094 1449.39746094 l 1
 1804.67871094 1420.64453125 l 1
 1804.67871094 1249.64453125 l 1
 1804.67871094 1235.73144531 l 1
 1169.24902344 1000.89160156 l 1
EndSplineSet
EndChar

StartChar: uniFB9F
Encoding: 64415 64415 115
GlifName: uniF_B_9F_
Width: 1528
VWidth: 2950
GlyphClass: 2
Flags: HW
AnchorPoint: "Anchor-10" 687.458 1384.61 basechar 0
AnchorPoint: "Anchor-7" 579.902 -782.086 basechar 0
LayerCount: 2
Fore
SplineSet
1157 120.034179688 m 0
 1157 239.318359375 1126.39257812 359.600585938 1068.73632812 480.22265625 c 2
 1059.08691406 500.411132812 l 1
 1080.22753906 507.743164062 l 1
 1249.16601562 566.333984375 l 1
 1268.52050781 573.046875 l 1
 1274.76757812 553.537109375 l 1
 1347.1328125 327.521484375 l 2
 1371.40527344 252.833984375 1411.75390625 220 1508 220 c 2
 1548 220 l 5
 1548 200 l 5
 1548 20 l 5
 1548 0 l 5
 1512 0 l 2
 1443.60449219 0 1395.51269531 13.5849609375 1360.50878906 37.697265625 c 1
 1338.16894531 -325.684570312 1091.76953125 -520 721 -520 c 0
 296.6171875 -520 77.99609375 -318.458984375 77.99609375 76.2255859375 c 0
 77.99609375 219.265625 108.83984375 365.239257812 169.5859375 513.000976562 c 2
 177.17578125 531.462890625 l 1
 195.65234375 523.909179688 l 1
 350.99609375 460.403320312 l 1
 369.092773438 453.004882812 l 1
 362.107421875 434.744140625 l 2
 314.306640625 309.793945312 290 192.916992188 290 81 c 0
 290 -179.890625 430.846679688 -307 728 -307 c 0
 1015.56933594 -307 1156.02832031 -168.455078125 1157 120.034179688 c 0
EndSplineSet
EndChar

StartChar: uniFBE8
Encoding: 64488 64488 118
GlifName: uniF_B_E_8
Width: 672
VWidth: 2950
GlyphClass: 2
Flags: HW
AnchorPoint: "Anchor-10" 311.384 1371 basechar 0
AnchorPoint: "Anchor-7" 303.422 -205.625 basechar 0
LayerCount: 2
Fore
SplineSet
545.166992188 764.712890625 m 2
 576.6953125 658.940429688 594 537.302734375 594 438 c 0
 594 133.33203125 441.659179688 0 129 0 c 2
 -20 0 l 5
 -20 20 l 5
 -20 200 l 5
 -20 220 l 5
 129 220 l 2
 320.008789062 220 383 251.391601562 383 435 c 0
 383 510.703125 369.232421875 620.653320312 346.561523438 714.293945312 c 2
 341.890625 733.587890625 l 1
 361.149414062 738.403320312 l 1
 521.149414062 778.403320312 l 1
 539.703125 783.041015625 l 1
 545.166992188 764.712890625 l 2
EndSplineSet
EndChar

StartChar: uniFBE9
Encoding: 64489 64489 119
GlifName: uniF_B_E_9
Width: 767
VWidth: 2950
GlyphClass: 2
Flags: HW
AnchorPoint: "Anchor-10" 315.665 1315.09 basechar 0
AnchorPoint: "Anchor-7" 380.537 -159.742 basechar 0
LayerCount: 2
Fore
SplineSet
763 0 m 2
 631.587890625 0 546.116210938 43.853515625 490.625976562 127.970703125 c 1
 412.78515625 40.4833984375 286.544921875 0 129 0 c 2
 -20 0 l 1
 -20 20 l 1
 -20 200 l 1
 -20 220 l 1
 131 220 l 2
 325.126953125 220 382.078125 259.614257812 383 407.0625 c 0
 383 471.3984375 379.229492188 544.89453125 375.043945312 607.669921875 c 2
 373.77734375 626.674804688 l 1
 392.698242188 628.8671875 l 1
 556.698242188 647.8671875 l 1
 577.59765625 650.288085938 l 1
 578.958007812 629.29296875 l 1
 594.956054688 382.319335938 l 2
 602.391601562 269.86328125 653.342773438 220 765 220 c 2
 765 220 773.333007812 220 787 220 c 5
 787 200 l 5
 787 20 l 5
 787 0 l 5
 772.666992188 0 763 0 763 0 c 2
EndSplineSet
EndChar

StartChar: uniFE73
Encoding: 65139 65139 127
GlifName: uniF_E_73
Width: 672
VWidth: 2950
GlyphClass: 2
Flags: HW
AnchorPoint: "Anchor-10" 342.943 1030.47 basechar 0
AnchorPoint: "Anchor-7" 416.943 -188.304 basechar 0
LayerCount: 2
Fore
SplineSet
318.336914062 444.018554688 m 2
 318.336914062 295.189453125 410.903320312 220.342773438 618.00390625 220.342773438 c 2
 684.674804688 220.342773438 l 1
 686.674804688 220.342773438 l 1
 696.674804688 220.342773438 l 5
 696.674804688 200.342773438 l 5
 696.674804688 198.342773438 l 5
 696.674804688 23.5537109375 l 5
 696.674804688 21.5537109375 l 5
 696.674804688 1.5537109375 l 5
 686.674804688 1.5537109375 l 1
 684.674804688 1.5537109375 l 1
 607.991210938 1.5537109375 l 2
 269.403320312 1.8564453125 91.544921875 151.5703125 91.544921875 446.563476562 c 2
 91.544921875 466.69140625 l 1
 91.544921875 468.69140625 l 1
 91.544921875 488.69140625 l 1
 111.544921875 488.69140625 l 1
 113.544921875 488.69140625 l 1
 296.336914062 488.69140625 l 1
 298.336914062 488.69140625 l 1
 318.336914062 488.69140625 l 1
 318.336914062 468.69140625 l 1
 318.336914062 466.69140625 l 1
 318.336914062 444.018554688 l 2
EndSplineSet
EndChar

StartChar: uniFE8E
Encoding: 65166 65166 153
GlifName: uniF_E_8E_
Width: 527
VWidth: 2950
GlyphClass: 2
Flags: HW
AnchorPoint: "Anchor-10" 230.697 1481.11 basechar 0
AnchorPoint: "Anchor-7" 292.078 -221.903 basechar 0
LayerCount: 2
Fore
SplineSet
522 0 m 2
 268.338867188 0 128 127 128 425 c 2
 128 1346 l 5
 128 1366 l 5
 148 1366 l 5
 317 1366 l 5
 337 1366 l 5
 337 1346 l 5
 337 424 l 2
 337 264 398.919921875 220 522 220 c 2
 547 220 l 1
 547 200 l 1
 547 20 l 1
 547 0 l 1
 522 0 l 2
EndSplineSet
EndChar

StartChar: uniFEA2
Encoding: 65186 65186 173
GlifName: uniF_E_A_2
Width: 1378
VWidth: 2950
GlyphClass: 2
Flags: HW
AnchorPoint: "Anchor-7" 690.833 -810.619 basechar 0
AnchorPoint: "Anchor-10" 601.478 1196.07 basechar 0
LayerCount: 2
Fore
SplineSet
1256.61914062 -579.046875 m 2
 1119.59570312 -644.491210938 964.384765625 -677 784 -677 c 0
 374.47265625 -677 79 -506.997070312 79 -131 c 0
 79 188.578125 322.961914062 456.65234375 770.918945312 574.752929688 c 1
 760.059570312 579.198242188 751.014648438 582.908203125 737.486328125 588.46484375 c 0
 602.603515625 642.41796875 515.822265625 676 477 676 c 0
 409.677734375 676 338.298828125 630.469726562 291.858398438 569.8125 c 2
 264.8359375 534.784179688 l 1
 254.807617188 521.784179688 l 1
 240.103515625 529.087890625 l 1
 89.103515625 604.087890625 l 1
 70.0390625 613.556640625 l 1
 80.6767578125 631.994140625 l 1
 95.8095703125 658.2265625 l 1
 182.755859375 800.03125 318.540039062 894 478 894 c 0
 568.013671875 894 671.056640625 853.319335938 789.734375 795.9921875 c 0
 996.206054688 695.25 1118.53125 653.73828125 1229.04199219 647.97265625 c 2
 1249.37597656 646.912109375 l 1
 1247.95117188 626.599609375 l 2
 1243.93359375 569.349609375 1238.93359375 513.349609375 1234.95117188 456.599609375 c 2
 1233.734375 439.26953125 l 1
 1216.40527344 438.049804688 l 2
 1153.12109375 433.592773438 1093.90429688 426.434570312 1040.36328125 419.48828125 c 1
 1046.58105469 257.268554688 1117.51953125 220 1300 220 c 2
 1398 220 l 5
 1398 200 l 5
 1398 20 l 5
 1398 0 l 5
 1303 0 l 2
 1009.875 0 859.817382812 97.9208984375 850.465820312 380.587890625 c 1
 468.366210938 267.912109375 285 75.3251953125 285 -115 c 0
 285 -348.021484375 446.796875 -466 798 -466 c 0
 938.918945312 -466 1074.91894531 -433.759765625 1204.49707031 -372.897460938 c 2
 1227.47070312 -362.106445312 l 1
 1232.58886719 -386.966796875 l 1
 1267.58886719 -556.966796875 l 1
 1270.74609375 -572.299804688 l 1
 1256.61914062 -579.046875 l 2
EndSplineSet
EndChar

StartChar: uniFEA3
Encoding: 65187 65187 174
GlifName: uniF_E_A_3
Width: 1334
VWidth: 2950
GlyphClass: 2
Flags: HW
AnchorPoint: "Anchor-10" 591.825 1150.07 basechar 0
AnchorPoint: "Anchor-7" 553.524 -216.745 basechar 0
LayerCount: 2
Fore
SplineSet
-20 20 m 5
 -20 200 l 5
 -20 220 l 5
 143 220 l 2
 396.272460938 220 577.732421875 307.659179688 860.760742188 453.73828125 c 2
 899.7890625 474.252929688 l 1
 872.688476562 485.817382812 832.28515625 503.624023438 755.5 534.458984375 c 0
 620.447265625 589.48046875 534.084960938 622 495 622 c 0
 427.677734375 622 356.298828125 576.469726562 309.858398438 515.8125 c 2
 282.8359375 480.784179688 l 1
 272.807617188 467.784179688 l 1
 258.103515625 475.087890625 l 1
 107.103515625 550.087890625 l 1
 88.0390625 559.556640625 l 1
 98.6767578125 577.994140625 l 1
 113.809570312 604.2265625 l 1
 200.755859375 746.03125 336.540039062 840 496 840 c 0
 586.013671875 840 689.056640625 799.319335938 807.734375 741.9921875 c 0
 1014.20605469 641.25 1136.53125 599.73828125 1247.04199219 593.97265625 c 2
 1266.22460938 592.971679688 l 1
 1265.99902344 573.764648438 l 1
 1263.99902344 403.764648438 l 1
 1263.79003906 386.076171875 l 1
 1246.20898438 384.122070312 l 2
 1170.65917969 375.727539062 1074.27539062 334.280273438 870.330078125 226.309570312 c 0
 626.073242188 97.4892578125 415.396484375 0 140 0 c 2
 -20 0 l 5
 -20 20 l 5
EndSplineSet
Position2: "Single Positioning lookup 2 subtable" dx=0 dy=0 dh=-178 dv=0
Position2: "Single Positioning lookup 1 subtable" dx=0 dy=0 dh=-173 dv=0
EndChar

StartChar: uniFEA4
Encoding: 65188 65188 175
GlifName: uniF_E_A_4
Width: 1351
VWidth: 2950
GlyphClass: 2
Flags: HW
AnchorPoint: "Anchor-10" 591.825 1150.07 basechar 0
AnchorPoint: "Anchor-7" 553.524 -216.745 basechar 0
LayerCount: 2
Fore
SplineSet
1246.20898438 384.122070312 m 2
 1197.20800781 378.677734375 1136.36816406 364.66015625 1063.06835938 330.827148438 c 1
 1073.03125 257.15625 1143.07714844 220 1317 220 c 2
 1371 220 l 1
 1371 200 l 1
 1371 20 l 1
 1371 0 l 1
 1313 0 l 2
 1077.46191406 0 932.18359375 69.9833984375 897.72265625 241.994140625 c 1
 653.099609375 110.388671875 407.5546875 0 140 0 c 2
 -20 0 l 5
 -20 20 l 5
 -20 200 l 5
 -20 220 l 5
 143 220 l 2
 396.272460938 220 577.732421875 307.659179688 860.760742188 453.73828125 c 2
 899.7890625 474.252929688 l 1
 872.688476562 485.817382812 832.28515625 503.624023438 755.5 534.458984375 c 0
 620.447265625 589.48046875 534.084960938 622 495 622 c 0
 427.677734375 622 356.298828125 576.469726562 309.858398438 515.8125 c 2
 282.8359375 480.784179688 l 1
 272.807617188 467.784179688 l 1
 258.103515625 475.087890625 l 1
 107.103515625 550.087890625 l 1
 88.0390625 559.556640625 l 1
 98.6767578125 577.994140625 l 1
 113.809570312 604.2265625 l 1
 200.755859375 746.03125 336.540039062 840 496 840 c 0
 586.013671875 840 689.056640625 799.319335938 807.734375 741.9921875 c 0
 1014.20605469 641.25 1136.53125 599.73828125 1247.04199219 593.97265625 c 2
 1266.22460938 592.971679688 l 1
 1265.99902344 573.764648438 l 1
 1263.99902344 403.764648438 l 1
 1263.79003906 386.076171875 l 1
 1246.20898438 384.122070312 l 2
EndSplineSet
EndChar

StartChar: uniFEAA
Encoding: 65194 65194 181
GlifName: uniF_E_A_A_
Width: 1055
VWidth: 2950
GlyphClass: 2
Flags: HW
AnchorPoint: "Anchor-7" 401.24 -221.316 basechar 0
AnchorPoint: "Anchor-10" 506.848 1173.53 basechar 0
LayerCount: 2
Fore
SplineSet
102.758789062 248.86328125 m 2
 180.922851562 229.71484375 242.442382812 221 307 221 c 0
 538.549804688 221 634.006835938 275.8984375 634.006835938 366.581054688 c 0
 634.006835938 391.010742188 605.741210938 475.239257812 544.440429688 618.944335938 c 2
 424.202148438 901.158203125 l 1
 416.5859375 919.034179688 l 1
 434.234375 927.163085938 l 1
 595.548828125 1001.46484375 l 1
 614.806640625 1010.33496094 l 1
 622.5390625 990.592773438 l 1
 830.62109375 459.298828125 l 2
 908.427734375 260.791992188 965.385742188 220 1033 220 c 6
 1075 220 l 1
 1075 200 l 1
 1075 20 l 1
 1075 0 l 1
 1033 0 l 6
 920.877929688 0 832.43359375 54.47265625 768.463867188 149.541992188 c 1
 672.103515625 49.859375 526.287109375 1 322 1 c 0
 229.458007812 1 158.456054688 10.4306640625 93.3154296875 26.1240234375 c 2
 78 29.8134765625 l 1
 78 45.5673828125 l 1
 78 229.4375 l 1
 78 254.928710938 l 1
 102.758789062 248.86328125 l 2
EndSplineSet
EndChar

StartChar: uniFEAE
Encoding: 65198 65198 185
GlifName: uniF_E_A_E_
Width: 860
VWidth: 2142
GlyphClass: 2
Flags: HW
AnchorPoint: "Anchor-7" 322.969 -609.998 basechar 0
AnchorPoint: "Anchor-10" 493.256 868.2 basechar 0
LayerCount: 2
Fore
SplineSet
495 150.07421875 m 0
 495 237.213867188 469.612304688 362.985351562 419.282226562 480.995117188 c 2
 410.981445312 500.45703125 l 1
 430.879882812 507.649414062 l 1
 592.928710938 566.221679688 l 1
 612.45703125 573.280273438 l 1
 618.778320312 553.500976562 l 1
 680.140625 361.4921875 l 2
 711.958007812 262.186523438 758.323242188 220 841 220 c 2
 879 220 l 1
 879 200 l 1
 879 20 l 1
 879 0 l 1
 852 0 l 2
 774.72265625 0 726.3125 10.8076171875 692.80078125 33.814453125 c 1
 654.2421875 -262.48046875 433.875976562 -456.552734375 53.9189453125 -527.380859375 c 2
 37.6728515625 -530.409179688 l 1
 31.6357421875 -515.025390625 l 1
 -28.87109375 -360.830078125 l 1
 -37.6767578125 -338.389648438 l 1
 -13.99609375 -333.877929688 l 2
 329.049804688 -268.522460938 493.077148438 -108.594726562 495 150.07421875 c 0
EndSplineSet
EndChar

StartChar: uniFEB2
Encoding: 65202 65202 189
GlifName: uniF_E_B_2
Width: 2553
VWidth: 2068
GlyphClass: 2
Flags: HW
AnchorPoint: "Anchor-7" 710.902 -696.086 basechar 0
AnchorPoint: "Anchor-10" 1764.53 902.1 basechar 0
LayerCount: 2
Fore
SplineSet
1531 0 m 0
 1463.546875 0 1406.890625 14.09765625 1360.796875 41.0478515625 c 1
 1351.671875 -134.405273438 1294.16210938 -271.99609375 1186.82617188 -367.913085938 c 0
 1072.61035156 -469.978515625 916.295898438 -520 721 -520 c 0
 297.475585938 -520 78 -318.629882812 78 76 c 0
 78 218.879882812 108.649414062 364.529296875 169.500976562 512.602539062 c 2
 177.07421875 531.029296875 l 1
 195.530273438 523.528320312 l 1
 350.530273438 460.528320312 l 1
 368.611328125 453.178710938 l 1
 361.70703125 434.924804688 l 2
 313.712890625 308.037109375 290 190.087890625 290 81 c 0
 290 -179.796875 430.282226562 -307 728 -307 c 0
 1017.30273438 -307 1156.35449219 -168.50390625 1157 120.022460938 c 0
 1157 237.286132812 1127.88085938 357.28515625 1068.9609375 480.364257812 c 2
 1059.26074219 500.625 l 1
 1078.89648438 507.364257812 l 1
 1249.5078125 565.916992188 l 1
 1268.78222656 572.532226562 l 1
 1275.03515625 553.13671875 l 1
 1334.02734375 370.161132812 l 2
 1367.26171875 267.94921875 1425.25878906 220.9296875 1533.0859375 220 c 0
 1653.16894531 220 1698 280.090820312 1698 409 c 0
 1698 439.766601562 1694.70605469 499.053710938 1688.05859375 585.465820312 c 2
 1686.59082031 604.551757812 l 1
 1705.59375 606.854492188 l 1
 1870.59375 626.854492188 l 1
 1891.46484375 629.384765625 l 1
 1892.95019531 608.412109375 l 1
 1908.95117188 382.390625 l 2
 1915.62792969 285.111328125 1957.98730469 220 2048 220 c 0
 2125.10253906 220 2167 272.93359375 2167 407 c 0
 2167 450.71875 2163.70214844 517.450195312 2157.05566406 606.51171875 c 2
 2155.63378906 625.556640625 l 1
 2174.59375 627.854492188 l 1
 2339.59375 647.854492188 l 1
 2360.59082031 650.399414062 l 1
 2361.95800781 629.29296875 l 1
 2377.95605469 382.323242188 l 2
 2385.40234375 270.01171875 2437.40625 220 2543 220 c 2
 2573 220 l 5
 2573 200 l 5
 2573 20 l 5
 2573 0 l 5
 2545 0 l 2
 2426.2578125 0 2332.30566406 36.943359375 2283.99316406 119.940429688 c 1
 2230.2890625 38.4853515625 2154.80957031 0 2049 0 c 0
 1939.42578125 0 1855.54199219 42.994140625 1803.26269531 126.806640625 c 1
 1732.36035156 41.98828125 1641.21386719 0 1531 0 c 0
EndSplineSet
EndChar

StartChar: uniFEB3
Encoding: 65203 65203 190
GlifName: uniF_E_B_3
Width: 1562
VWidth: 2068
GlyphClass: 2
Flags: HW
AnchorPoint: "Anchor-7" 758.902 -220.086 basechar 0
AnchorPoint: "Anchor-10" 852.53 930.1 basechar 0
LayerCount: 2
Fore
SplineSet
1153 220 m 0
 1227.390625 220 1272 277.389648438 1272 422 c 0
 1272 490.221679688 1257.43261719 576.723632812 1228.72167969 680.67578125 c 2
 1223.35546875 700.103515625 l 1
 1242.82519531 705.319335938 l 1
 1410.82519531 750.319335938 l 1
 1429.34375 755.279296875 l 1
 1435.08300781 736.986328125 l 2
 1467.60644531 633.317382812 1484 533.27734375 1484 437 c 0
 1484 205 1398.32714844 1.0712890625 1154.04394531 0 c 0
 1044.07226562 0 960.182617188 43.30078125 908.188476562 126.866210938 c 1
 837.141601562 42.2958984375 746.573242188 0 636 0 c 0
 512.390625 0 421.278320312 41.2392578125 370.004882812 124.139648438 c 1
 304.809570312 39.068359375 195.561523438 0 49 0 c 2
 -20 0 l 5
 -20 20 l 5
 -20 200 l 5
 -20 220 l 5
 51 220 l 2
 207.4765625 220 273 262.936523438 273 409 c 0
 273 441.916015625 270.040039062 500.689453125 263.067382812 585.358398438 c 2
 261.48828125 604.5390625 l 1
 280.59375 606.854492188 l 1
 445.59375 626.854492188 l 1
 466.46484375 629.384765625 l 1
 467.950195312 608.412109375 l 1
 483.947265625 382.458984375 l 2
 491.446289062 283.08984375 540.267578125 220 638 220 c 0
 758.131835938 220 803 280.549804688 803 409 c 0
 803 439.873046875 800.0390625 498.71484375 793.064453125 585.395507812 c 2
 791.5234375 604.54296875 l 1
 810.59375 606.854492188 l 1
 975.59375 626.854492188 l 1
 996.46484375 629.384765625 l 1
 997.950195312 608.412109375 l 1
 1013.95117188 382.390625 l 2
 1020.62695312 285.119140625 1063.04882812 220 1153 220 c 0
EndSplineSet
Position2: "Single Positioning lookup 2 subtable" dx=0 dy=0 dh=-178 dv=0
Position2: "Single Positioning lookup 1 subtable" dx=0 dy=0 dh=-173 dv=0
EndChar

StartChar: uniFEB4
Encoding: 65204 65204 191
GlifName: uniF_E_B_4
Width: 1658
VWidth: 2068
GlyphClass: 2
Flags: HW
AnchorPoint: "Anchor-10" 852.53 930.1 basechar 0
AnchorPoint: "Anchor-7" 758.902 -220.086 basechar 0
LayerCount: 2
Fore
SplineSet
369.934570312 124.037109375 m 1
 304.958984375 39.1796875 195.826171875 0 49 0 c 2
 -20 0 l 1
 -20 20 l 1
 -20 200 l 1
 -20 220 l 1
 51 220 l 2
 207.52734375 220 273 263.256835938 273 409 c 0
 273 441.8125 269.708007812 501.02734375 263.061523438 585.4296875 c 2
 261.556640625 604.546875 l 1
 280.59375 606.854492188 l 1
 445.59375 626.854492188 l 1
 466.46484375 629.384765625 l 1
 467.950195312 608.412109375 l 1
 483.947265625 382.458984375 l 2
 491.44921875 283.05078125 539.913085938 220 638 220 c 0
 758.240234375 220 803 280.090820312 803 409 c 0
 803 439.766601562 799.706054688 499.0546875 793.05859375 585.465820312 c 2
 791.590820312 604.551757812 l 1
 810.59375 606.854492188 l 1
 975.59375 626.854492188 l 1
 996.46484375 629.384765625 l 1
 997.950195312 608.412109375 l 1
 1013.95117188 382.390625 l 2
 1020.62792969 285.111328125 1062.98730469 220 1153 220 c 0
 1230.10253906 220 1272 272.932617188 1272 407 c 0
 1272 450.717773438 1268.70214844 517.450195312 1262.05566406 606.51171875 c 2
 1260.63378906 625.556640625 l 1
 1279.59375 627.854492188 l 1
 1444.59375 647.854492188 l 1
 1465.59082031 650.399414062 l 1
 1466.95800781 629.29296875 l 1
 1482.95605469 382.323242188 l 2
 1490.40234375 270.01171875 1542.40527344 220 1648 220 c 2
 1678 220 l 5
 1678 200 l 5
 1678 20 l 5
 1678 0 l 5
 1650 0 l 2
 1531.25878906 0 1437.30566406 36.943359375 1388.99316406 119.940429688 c 1
 1335.2890625 38.4853515625 1259.80957031 0 1154 0 c 0
 1044.42578125 0 960.541992188 42.994140625 908.262695312 126.806640625 c 1
 837.353515625 41.98046875 746.259765625 0 635.950195312 0 c 0
 512.162109375 0.619140625 420.940429688 41.076171875 369.934570312 124.037109375 c 1
EndSplineSet
EndChar

StartChar: uniFEBA
Encoding: 65210 65210 197
GlifName: uniF_E_B_A_
Width: 2610
VWidth: 2970
GlyphClass: 2
Flags: HW
AnchorPoint: "Anchor-10" 2052.53 1148.1 basechar 0
AnchorPoint: "Anchor-7" 710.902 -696.086 basechar 0
LayerCount: 2
Fore
SplineSet
1752.93261719 221 m 2
 2118.33398438 221 2279 298.90234375 2279 433 c 0
 2279 531.409179688 2209.33007812 605 2104 605 c 0
 1968.29492188 605 1811.73632812 475.818359375 1642.10253906 220.250976562 c 1
 1752.93261719 221 l 2
1157 120.033203125 m 0
 1157 239.55859375 1126.89941406 359.577148438 1068.96679688 480.350585938 c 2
 1059.24414062 500.619140625 l 1
 1080.5078125 507.916992188 l 1
 1249.5078125 565.916992188 l 1
 1268.78222656 572.532226562 l 1
 1275.03515625 553.13671875 l 1
 1334.05859375 370.064453125 l 2
 1357.26855469 296.135742188 1384.94238281 261.146484375 1409.3046875 251.811523438 c 1
 1635.69140625 629.935546875 1862.265625 827 2096 827 c 0
 2331.05566406 827 2497 663.155273438 2497 442 c 0
 2497 365.1953125 2468.44238281 290.13671875 2429.51269531 229.334960938 c 1
 2464.56542969 223.770507812 2517.2734375 220 2600 220 c 2
 2630 220 l 5
 2630 200 l 5
 2630 20 l 5
 2630 0 l 5
 2601 0 l 2
 2445.35839844 0 2332.12890625 32.9833984375 2256.92871094 89.236328125 c 1
 2145.39550781 32.0673828125 1975.99511719 0 1757 0 c 2
 1706 0 l 2
 1553.77539062 0 1440.94335938 16.1513671875 1361.13964844 46.97265625 c 1
 1344.04882812 -330.984375 1094.09375 -520 721 -520 c 0
 296.803710938 -520 78 -318.606445312 78 76 c 0
 78 218.879882812 108.649414062 364.529296875 169.500976562 512.602539062 c 2
 177.07421875 531.029296875 l 1
 195.530273438 523.528320312 l 1
 350.530273438 460.528320312 l 1
 368.606445312 453.180664062 l 1
 361.708007812 434.928710938 l 2
 314.349609375 309.625976562 290 193.072265625 290 81 c 0
 290 -179.783203125 430.612304688 -307 728 -307 c 0
 1015.63867188 -307 1156.03222656 -168.500976562 1157 120.033203125 c 0
EndSplineSet
EndChar

StartChar: uniFEBB
Encoding: 65211 65211 198
GlifName: uniF_E_B_B_
Width: 1654
VWidth: 2950
GlyphClass: 2
Flags: HW
AnchorPoint: "Anchor-10" 1112.53 1148.1 basechar 0
AnchorPoint: "Anchor-7" 679.209 -222.348 basechar 0
LayerCount: 2
Fore
SplineSet
831.932617188 221 m 2
 1197.33398438 221 1358 298.90234375 1358 433 c 0
 1358 531.409179688 1288.33007812 605 1183 605 c 0
 1047.29492188 605 890.736328125 475.818359375 721.102539062 220.250976562 c 1
 831.932617188 221 l 2
489.40234375 253.606445312 m 1
 715.912109375 630.235351562 941.600585938 827 1175 827 c 0
 1410.05566406 827 1576 663.185546875 1576 441.96484375 c 0
 1574.9375 143.52734375 1317.34570312 0 836 0 c 2
 785 0 l 2
 550.725585938 0 401.51171875 41.966796875 327.32421875 133.541015625 c 1
 255.1796875 45.3662109375 169.670898438 0 20 0 c 2
 -20.111328125 0 l 5
 -20 20.111328125 l 5
 -19 200.111328125 l 5
 -18.8896484375 220 l 5
 20 220 l 2
 188.39453125 220 223 273.020507812 223 408 c 0
 223 466.9765625 218.032226562 545.845703125 215.024414062 607.017578125 c 2
 214.110351562 625.600585938 l 1
 232.579101562 627.852539062 l 1
 396.579101562 647.852539062 l 1
 417.420898438 650.39453125 l 1
 418.947265625 629.454101562 l 1
 436.943359375 382.501953125 l 2
 442.946289062 305.325195312 462.500976562 267.91796875 489.40234375 253.606445312 c 1
EndSplineSet
Position2: "Single Positioning lookup 2 subtable" dx=0 dy=0 dh=-178 dv=0
Position2: "Single Positioning lookup 1 subtable" dx=0 dy=0 dh=-173 dv=0
EndChar

StartChar: uniFEBC
Encoding: 65212 65212 199
GlifName: uniF_E_B_C_
Width: 1689
VWidth: 2970
GlyphClass: 2
Flags: HW
AnchorPoint: "Anchor-10" 1112.53 1148.1 basechar 0
AnchorPoint: "Anchor-7" 679.209 -222.348 basechar 0
LayerCount: 2
Fore
SplineSet
831.932617188 221 m 2
 1197.33398438 221 1358 298.90234375 1358 433 c 0
 1358 531.409179688 1288.33007812 605 1183 605 c 0
 1047.29492188 605 890.736328125 475.818359375 721.102539062 220.250976562 c 1
 831.932617188 221 l 2
489.413085938 253.600585938 m 1
 716.946289062 631.266601562 942.627929688 827 1176 827 c 0
 1412.21484375 827 1576 661.942382812 1576 440 c 0
 1576 363.620117188 1546.35253906 289.180664062 1507.88476562 228.755859375 c 1
 1540.95898438 223.662109375 1599.17675781 220 1679 220 c 2
 1709 220 l 5
 1709 200 l 5
 1709 20 l 5
 1709 0 l 5
 1679 0 l 2
 1523.36816406 0 1411.03808594 32.994140625 1335.92578125 89.234375 c 1
 1224.39941406 32.0703125 1054.99316406 0 836 0 c 2
 785 0 l 2
 553.334960938 0 403.500976562 38.4638671875 327.533203125 129.859375 c 1
 255.633789062 42.2216796875 169.506835938 0 20 0 c 2
 -20 0 l 1
 -20 20 l 1
 -20 200 l 1
 -20 220 l 1
 19 220 l 2
 188.411132812 220 223 274.102539062 223 407 c 0
 223 468 218.033203125 545.82421875 215.024414062 607.017578125 c 2
 214.110351562 625.600585938 l 1
 232.579101562 627.852539062 l 1
 396.579101562 647.852539062 l 1
 417.420898438 650.39453125 l 1
 418.947265625 629.454101562 l 1
 436.943359375 382.501953125 l 2
 442.946289062 305.322265625 462.491210938 267.923828125 489.413085938 253.600585938 c 1
EndSplineSet
EndChar

StartChar: uniFEC2
Encoding: 65218 65218 205
GlifName: uniF_E_C_2
Width: 1510
VWidth: 2970
GlyphClass: 2
Flags: HW
AnchorPoint: "Anchor-7" 636.602 -218.453 basechar 0
AnchorPoint: "Anchor-10" 470.36 1476.78 basechar 0
LayerCount: 2
Fore
SplineSet
648.932617188 222 m 2
 1014.33398438 222 1175 299.90234375 1175 434 c 0
 1175 532.55078125 1106.23242188 606 1001 606 c 0
 865.26953125 606 707.739257812 476.71875 538.106445312 221.250976562 c 1
 648.932617188 222 l 2
1323.83984375 227.329101562 m 1
 1356.24707031 222.873046875 1416.78808594 220 1500 220 c 2
 1530 220 l 1
 1530 200 l 1
 1530 20 l 1
 1530 0 l 1
 1501 0 l 2
 1330.46582031 0 1229.25292969 35.689453125 1158.67480469 88.4755859375 c 1
 1047.06152344 34.8505859375 864.701171875 0 653 0 c 2
 98 0 l 1
 78 0 l 1
 78 20 l 1
 78 200 l 1
 78 220 l 1
 98 220 l 1
 308.861328125 220 l 1
 331.439453125 256.211914062 353.255859375 289.263671875 373 321.6015625 c 1
 373 1346 l 5
 373 1366 l 5
 393 1366 l 5
 562 1366 l 5
 582 1366 l 5
 582 1346 l 5
 582 610.66015625 l 1
 706.720703125 750.903320312 841.438476562 827 992 827 c 0
 1226.09472656 827 1392 663.131835938 1392 442 c 0
 1392 368.319335938 1362.99414062 291.325195312 1323.83984375 227.329101562 c 1
EndSplineSet
EndChar

StartChar: uniFEC3
Encoding: 65219 65219 206
GlifName: uniF_E_C_3
Width: 1293
VWidth: 2950
GlyphClass: 2
Flags: HW
AnchorPoint: "Anchor-7" 481.602 -218.453 basechar 0
AnchorPoint: "Anchor-10" 292.36 1515.78 basechar 0
LayerCount: 2
Fore
SplineSet
470.932617188 222 m 2
 836.333984375 222 997 299.90234375 997 434 c 0
 997 532.409179688 927.330078125 606 822 606 c 0
 686.294921875 606 529.736328125 476.818359375 360.102539062 221.250976562 c 1
 470.932617188 222 l 2
404 610.0546875 m 1
 530.377929688 750.302734375 668.228515625 827 819 827 c 0
 1050.41015625 827 1215 659.958984375 1215 442 c 0
 1215 143.587890625 958.327148438 0 476 0 c 2
 -20 0 l 1
 -20 20 l 1
 -20 200 l 1
 -20 220 l 1
 129.092773438 220 l 1
 151.49609375 254.615234375 174.903320312 289.206054688 195 320.803710938 c 1
 195 1346 l 5
 195 1366 l 5
 215 1366 l 5
 384 1366 l 5
 404 1366 l 5
 404 1346 l 5
 404 610.0546875 l 1
EndSplineSet
Position2: "Single Positioning lookup 2 subtable" dx=0 dy=0 dh=-178 dv=0
Position2: "Single Positioning lookup 1 subtable" dx=0 dy=0 dh=-173 dv=0
EndChar

StartChar: uniFEC4
Encoding: 65220 65220 207
GlifName: uniF_E_C_4
Width: 1332
VWidth: 2970
GlyphClass: 2
Flags: HW
AnchorPoint: "Anchor-10" 289.36 1473.78 basechar 0
AnchorPoint: "Anchor-7" 481.602 -218.453 basechar 0
LayerCount: 2
Fore
SplineSet
470.932617188 222 m 2
 836.333984375 222 997 299.90234375 997 434 c 0
 997 532.409179688 927.330078125 606 822 606 c 0
 686.294921875 606 529.736328125 476.818359375 360.102539062 221.250976562 c 1
 470.932617188 222 l 2
1145.85546875 227.297851562 m 1
 1179.27050781 222.749023438 1238.375 220 1322 220 c 2
 1352 220 l 1
 1352 200 l 1
 1352 20 l 1
 1352 0 l 1
 1321 0 l 2
 1150.39550781 0 1050.87597656 36.7333984375 980.666015625 89.466796875 c 1
 869.213867188 35.8212890625 687.74609375 0 476 0 c 2
 -20 0 l 1
 -20 20 l 1
 -20 200 l 1
 -20 220 l 1
 130.842773438 220 l 1
 153.104492188 255.927734375 174.450195312 289.293945312 195 321.790039062 c 1
 195 1346 l 5
 195 1366 l 5
 215 1366 l 5
 384 1366 l 5
 404 1366 l 5
 404 1346 l 5
 404 609.840820312 l 1
 531.500976562 750.733398438 666.860351562 827 816 827 c 0
 1048.21972656 827 1215 661.135742188 1215 442 c 0
 1215 368.17578125 1185.12402344 291.186523438 1145.85546875 227.297851562 c 1
EndSplineSet
EndChar

StartChar: uniFECA
Encoding: 65226 65226 213
GlifName: uniF_E_C_A_
Width: 1199
VWidth: 2970
GlyphClass: 2
Flags: HW
AnchorPoint: "Anchor-7" 610.833 -810.619 basechar 0
AnchorPoint: "Anchor-10" 574.833 1186.24 basechar 0
LayerCount: 2
Fore
SplineSet
1077.20019531 -588.241210938 m 2
 965.133789062 -638.620117188 836.182617188 -663 689 -663 c 0
 340.7421875 -663 78 -500.7734375 78 -178 c 0
 78 34.392578125 211.439453125 204.64453125 408.2890625 336.32421875 c 1
 240.336914062 439.811523438 148 541.595703125 148 649 c 0
 148 825.784179688 415.466796875 886 616 886 c 0
 820.015625 886 1074 838.362304688 1074 653 c 0
 1074 553.092773438 971.288085938 444.841796875 785.9609375 324.805664062 c 1
 897.28515625 254.954101562 1002.64550781 220 1159 220 c 2
 1219 220 l 1
 1219 200 l 1
 1219 20 l 1
 1219 0 l 1
 1159 0 l 2
 964.146484375 0 793.893554688 71.8212890625 600.90625 205.389648438 c 1
 405.0625 93.2578125 285 -34.0029296875 285 -178 c 0
 285 -339.008004292 424.047746814 -452.004955748 693.779491097 -452.004955748 c 0
 801.956454854 -452.004955748 913.387559295 -428.263427037 1026.35253906 -381.51953125 c 2
 1048.70996094 -372.268554688 l 1
 1053.58886719 -395.966796875 l 1
 1088.58886719 -565.966796875 l 1
 1091.82226562 -581.668945312 l 1
 1077.20019531 -588.241210938 l 2
603.939453125 459.806640625 m 1
 781.084960938 557.823242188 858.130859375 623.529296875 859 638.01171875 c 0
 858.861328125 646.775390625 799.635742188 672 615 672 c 0
 431.28515625 672 371 644.147460938 371 627 c 0
 371 611.19921875 443.361328125 547.615234375 603.939453125 459.806640625 c 1
EndSplineSet
EndChar

StartChar: uniFECB
Encoding: 65227 65227 214
GlifName: uniF_E_C_B_
Width: 1057
VWidth: 2950
GlyphClass: 2
Flags: HW
AnchorPoint: "Anchor-10" 550.493 1207.05 basechar 0
AnchorPoint: "Anchor-7" 484.511 -217.021 basechar 0
LayerCount: 2
Fore
SplineSet
964.9453125 147.904296875 m 2
 645.400390625 48.4228515625 352.420898438 0 85 0 c 2
 -20 0 l 5
 -20 20 l 5
 -20 200 l 5
 -20 220 l 5
 236.571289062 220 l 1
 189.626953125 284.259765625 151 357.809570312 151 466 c 0
 151 705.490234375 318.21875 909 585 909 c 0
 730.5625 909 848.501953125 860.823242188 942.219726562 766.063476562 c 2
 951.861328125 756.315429688 l 1
 946.245117188 743.80859375 l 1
 880.245117188 596.80859375 l 1
 869.62109375 573.14453125 l 1
 849.4375 589.4375 l 2
 768.696289062 654.614257812 692.98828125 686.072265625 616.877929688 687 c 0
 466.25390625 687 361 585.5546875 361 460 c 0
 361 426.860351562 377.250976562 320.189453125 502.5625 264.079101562 c 0
 509.646484375 260.538085938 522.068359375 257.46484375 526.3046875 258.442382812 c 2
 954.106445312 366.392578125 l 1
 979 372.673828125 l 1
 979 347 l 1
 979 167 l 1
 979 152.279296875 l 1
 964.9453125 147.904296875 l 2
EndSplineSet
Position2: "Single Positioning lookup 2 subtable" dx=0 dy=0 dh=-178 dv=0
Position2: "Single Positioning lookup 1 subtable" dx=0 dy=0 dh=-173 dv=0
EndChar

StartChar: uniFEDA
Encoding: 65242 65242 229
GlifName: uniF_E_D_A_
Width: 1891
VWidth: 2950
GlyphClass: 2
Flags: HW
AnchorPoint: "Anchor-10" 916.11 1260.05 basechar 0
AnchorPoint: "Anchor-7" 900.268 -206.468 basechar 0
LayerCount: 2
Fore
SplineSet
708.560546875 612.96875 m 6
 770.706054688 605.952148438 794.361328125 602 839 602 c 4
 940.883789062 602 1020 602.779296875 1020 680 c 4
 1020 736.923828125 989.932617188 742.702148438 921.978515625 743 c 4
 830.919921875 743.399414062 748 791.204101562 748 929 c 4
 748 1041.703125 820.147460938 1125.578125 972.252929688 1125.578125 c 4
 1005.31054688 1125.578125 1042.13867188 1122.1328125 1082.87109375 1114.92382812 c 6
 1087 1114.19238281 l 5
 1087 1110 l 5
 1087 1015 l 5
 1087 1009.25390625 l 5
 1081.30859375 1010.04785156 l 6
 1040.71484375 1015.71191406 1006.00488281 1018.39941406 976.748046875 1018.39941406 c 4
 882.673828125 1018.39941406 847 981.462890625 847 938 c 4
 847 888.358398438 868.09375 857.387695312 940.02734375 857 c 4
 1069.90136719 856.30078125 1118 804.174804688 1118 684 c 4
 1118 537.2890625 1029.54492188 494 846 494 c 4
 793.599609375 494 773.024414062 499.090820312 707.250976562 509.056640625 c 6
 703 509.700195312 l 5
 703 514 l 5
 703 608 l 5
 703 613.596679688 l 5
 708.560546875 612.96875 l 6
978 220 m 2
 1450.55664062 220 1494 312 1494 490 c 6
 1494 1346 l 5
 1494 1366 l 5
 1514 1366 l 5
 1683 1366 l 5
 1703 1366 l 5
 1703 1346 l 5
 1703 492 l 6
 1703 298 1721.10546875 220 1876 220 c 6
 1911 220 l 5
 1911 200 l 5
 1911 20 l 5
 1911 0 l 5
 1878 0 l 6
 1702.43554688 0 1617.64160156 54.0947265625 1574.71484375 162.900390625 c 5
 1440.72070312 33.62109375 1307.48632812 0 985 0 c 2
 840 0 l 2
 358.274414062 0 78 165.641601562 78 504 c 0
 78 596.009765625 98.67578125 684.692382812 133.62890625 765.90625 c 2
 141.151367188 783.384765625 l 1
 158.982421875 776.741210938 l 1
 311.982421875 719.741210938 l 1
 330.764648438 712.744140625 l 1
 323.7265625 693.977539062 l 2
 303.521484375 640.098632812 293 584.411132812 293 529.045898438 c 0
 293.920898438 326.485351562 463.388671875 220 830 220 c 2
 978 220 l 2
EndSplineSet
EndChar

StartChar: uniFEDB
Encoding: 65243 65243 230
GlifName: uniF_E_D_B_
Width: 950
VWidth: 2950
GlyphClass: 2
Flags: HW
AnchorPoint: "Anchor-10" 327.533 1390.15 basechar 0
AnchorPoint: "Anchor-7" 310.991 -213.935 basechar 0
LayerCount: 2
Fore
SplineSet
254.0703125 1001.16015625 m 1
 414.16796875 865.422851562 536.571289062 764.477539062 614.6640625 680.600585938 c 4
 702.505859375 585.524414062 746 490.325195312 746 376 c 0
 746 120.435546875 561.62109375 0 166 0 c 2
 -20 0 l 1
 -20 20 l 1
 -20 200 l 1
 -20 220 l 1
 165 220 l 2
 440.620117188 220 531 282.724609375 531 393 c 0
 531 451.25 499.20703125 501.400390625 432.327148438 564.403320312 c 4
 330.704101562 659.052734375 239.856445312 728.893554688 160.680664062 791.244140625 c 0
 82.287109375 852.102539062 40 918.616210938 40 992 c 0
 40 1086.0078125 93.92578125 1155.46777344 191.965820312 1191.72265625 c 2
 889.5 1449.66601562 l 1
 889.5 1420.91308594 l 1
 889.5 1249.91308594 l 1
 889.5 1236 l 1
 254.0703125 1001.16015625 l 1
EndSplineSet
Position2: "Single Positioning lookup 2 subtable" dx=0 dy=0 dh=-226 dv=0
Position2: "Single Positioning lookup 1 subtable" dx=0 dy=0 dh=-219 dv=0
Position2: "Single Positioning lookup 0 subtable" dx=0 dy=0 dh=180 dv=0
EndChar

StartChar: uniFEDC
Encoding: 65244 65244 231
GlifName: uniF_E_D_C_
Width: 1027
VWidth: 2950
GlyphClass: 2
Flags: HW
AnchorPoint: "Anchor-10" 327.533 1390.15 basechar 0
AnchorPoint: "Anchor-7" 310.991 -213.935 basechar 0
LayerCount: 2
Fore
SplineSet
254.0703125 1001.16015625 m 1
 413.1484375 865.438476562 536.60546875 764.44140625 614.637695312 680.627929688 c 0
 671.055664062 620.03125 714.231445312 551.442382812 746.857421875 458.662109375 c 0
 804.321289062 296.01171875 894.6015625 220 1018 220 c 2
 1047 220 l 1
 1047 200 l 1
 1047 20 l 1
 1047 0 l 1
 1018 0 l 2
 873.946289062 0 759 58.111328125 669.821289062 165.653320312 c 1
 582.440429688 52.6357421875 433.302734375 0 166 0 c 2
 -20 0 l 1
 -20 20 l 1
 -20 200 l 1
 -20 220 l 1
 165 220 l 2
 440.620117188 220 531 282.724609375 531 393 c 0
 531 451.25 499.20703125 501.400390625 432.327148438 564.403320312 c 0
 330.704101562 659.052734375 239.856445312 728.893554688 160.680664062 791.244140625 c 0
 82.287109375 852.102539062 40 918.616210938 40 992 c 0
 40 1086.0078125 93 1155 191.965820312 1191.72265625 c 2
 889.5 1449.66601562 l 1
 889.5 1420.91308594 l 1
 889.5 1249.91308594 l 1
 889.5 1236 l 1
 254.0703125 1001.16015625 l 1
EndSplineSet
EndChar

StartChar: uniFEDE
Encoding: 65246 65246 233
GlifName: uniF_E_D_E_
Width: 1439
VWidth: 2950
GlyphClass: 2
Flags: HW
AnchorPoint: "Anchor-7" 662.902 -688.086 basechar 0
AnchorPoint: "Anchor-10" 654.908 1025.66 basechar 0
LayerCount: 2
Fore
SplineSet
353.615234375 370.686523438 m 2
 310.18359375 260.134765625 289 168.33984375 289 56 c 0
 289 -188.657226562 413.51171875 -307 675 -307 c 0
 919.364257812 -307 1039 -180 1039 88.0302734375 c 2
 1041 1344 l 5
 1041 1346 l 5
 1041 1366 l 5
 1061 1366 l 5
 1229 1366 l 5
 1249.02050781 1366 l 5
 1249 1345.97949219 l 5
 1248 413 l 2
 1248 278 1285.79101562 220 1428 220 c 2
 1459 220 l 1
 1459 200 l 1
 1459 20 l 1
 1459 0 l 1
 1430 0 l 2
 1340.98339844 0 1290.06933594 20.037109375 1246.70703125 54.595703125 c 1
 1228.97753906 -316.354492188 1039.57617188 -520 674 -520 c 0
 280.192382812 -520 78 -325.9609375 78 55 c 0
 78 193.747070312 105.821289062 313.958007812 161.517578125 448.642578125 c 2
 169.114257812 467.013671875 l 1
 187.530273438 459.528320312 l 1
 342.530273438 396.528320312 l 1
 360.842773438 389.084960938 l 1
 353.615234375 370.686523438 l 2
EndSplineSet
EndChar

StartChar: uniFEDF
Encoding: 65247 65247 234
GlifName: uniF_E_D_F_
Width: 608
VWidth: 2950
GlyphClass: 2
Flags: HW
AnchorPoint: "Anchor-10" 365.751 1520.65 basechar 0
AnchorPoint: "Anchor-7" 259.812 -218.234 basechar 0
LayerCount: 2
Fore
SplineSet
-20 20 m 1
 -20 200 l 1
 -20 220 l 1
 61 220 l 2
 230.479492188 220 271 283 271 423 c 2
 271 1346 l 5
 271 1366 l 5
 291 1366 l 5
 460 1366 l 5
 480 1366 l 5
 480 1346 l 5
 480 424 l 2
 480 151 366.09375 0 60 0 c 2
 -20 0 l 1
 -20 20 l 1
EndSplineSet
Position2: "Single Positioning lookup 2 subtable" dx=0 dy=0 dh=-143 dv=0
Position2: "Single Positioning lookup 1 subtable" dx=0 dy=0 dh=-104 dv=0
Position2: "Single Positioning lookup 0 subtable" dx=0 dy=0 dh=130 dv=0
EndChar

StartChar: uniFEE0
Encoding: 65248 65248 235
GlifName: uniF_E_E_0
Width: 670
VWidth: 2950
GlyphClass: 2
Flags: HW
AnchorPoint: "Anchor-7" 259.812 -218.234 basechar 0
AnchorPoint: "Anchor-10" 364.751 1520.65 basechar 0
LayerCount: 2
Fore
SplineSet
368.259765625 129.916015625 m 1
 300.0625 44.177734375 203.774414062 0 43 0 c 2
 -20 0 l 1
 -20 20 l 1
 -20 200 l 1
 -20 220 l 1
 45 220 l 2
 215.672851562 220 271 281 271 409.072265625 c 2
 271 1346 l 5
 271 1366 l 5
 291 1366 l 5
 460 1366 l 5
 480 1366 l 5
 480 1346 l 5
 480 409 l 2
 480 277 523.541992188 220 658 220 c 2
 690 220 l 1
 690 200 l 1
 690 20 l 1
 690 0 l 1
 660 0 l 2
 520.043945312 0 436.114257812 46.69921875 368.259765625 129.916015625 c 1
EndSplineSet
EndChar

StartChar: uniFEE2
Encoding: 65250 65250 237
GlifName: uniF_E_E_2
Width: 1296
VWidth: 2620
GlyphClass: 2
Flags: HW
AnchorPoint: "Anchor-10" 763.952 1040.2 basechar 0
AnchorPoint: "Anchor-7" 714.983 -318.909 basechar 0
LayerCount: 2
Fore
SplineSet
92.0361328125 -636.194335938 m 6
 85.0224609375 -518.978515625 81 -418.515625 81 -313 c 4
 81 27.3583984375 116.9453125 308.50390625 370.423828125 366.359375 c 1
 470.606445312 612.350585938 606.313476562 741 780 741 c 0
 994.321289062 741 1104.67675781 588.479492188 1144.57128906 394.122070312 c 0
 1170.97460938 271.881835938 1220.04199219 220 1288 220 c 2
 1316 220 l 1
 1316 200 l 1
 1316 20 l 1
 1316 0 l 1
 1288 0 l 2
 1209.16992188 0 1137.39746094 27.291015625 1085.34277344 88.94921875 c 1
 1030.71875 10.8857421875 955.434570312 -23 846 -23 c 0
 763.127929688 -23 680.59375 5.7119140625 587.526367188 61.9609375 c 0
 556.043945312 81.6376953125 522.858398438 99.2119140625 485.837890625 118.221679688 c 0
 458.965820312 132.122070312 434.553710938 138 419.095703125 138 c 0
 339.598632812 137.235351562 294 18.8232421875 294 -285 c 4
 294 -415.494140625 298.975585938 -526.872070312 307.9296875 -633.323242188 c 6
 309.752929688 -655 l 5
 288 -655 l 5
 112 -655 l 5
 93.1611328125 -655 l 5
 92.0361328125 -636.194335938 l 6
582.889648438 322.87109375 m 1
 696.729492188 236.305664062 784.756835938 195 841.877929688 195 c 0
 912.303710938 195.858398438 944 230.29296875 944 315 c 0
 944 431.309570312 880.771484375 516 780 516 c 0
 699.416992188 516 633.791992188 455.266601562 582.889648438 322.87109375 c 1
EndSplineSet
EndChar

StartChar: uniFEE3
Encoding: 65251 65251 238
GlifName: uniF_E_E_3
Width: 1048
VWidth: 2950
GlyphClass: 2
Flags: HW
AnchorPoint: "Anchor-10" 583.952 1040.2 basechar 0
AnchorPoint: "Anchor-7" 514.594 -217.063 basechar 0
LayerCount: 2
Fore
SplineSet
410.861328125 330.325195312 m 1
 494.979492188 236.469726562 571.13671875 193 641 193 c 0
 726.821289062 193 763 229.686523438 763 312 c 0
 763 436.403320312 700.03125 515 601 515 c 0
 522.469726562 515 458.357421875 457.12109375 410.861328125 330.325195312 c 1
304.1953125 135.453125 m 1
 222.232421875 47.640625 129.676757812 0 23 0 c 2
 -20 0 l 5
 -20 20 l 5
 -20 200 l 5
 -20 220 l 5
 18 220 l 2
 123.716796875 220 187.131835938 327.823242188 237.786132812 439.26171875 c 0
 327.10546875 636.169921875 444.995117188 741 597 741 c 0
 824.313476562 741 970 547.15625 970 327 c 0
 970 111.177734375 858.713867188 -22 655 -22 c 0
 524.291015625 -22 413.815429688 34.5732421875 304.1953125 135.453125 c 1
EndSplineSet
Position2: "Single Positioning lookup 2 subtable" dx=0 dy=0 dh=-178 dv=0
Position2: "Single Positioning lookup 1 subtable" dx=0 dy=0 dh=-173 dv=0
EndChar

StartChar: uniFEE4
Encoding: 65252 65252 239
GlifName: uniF_E_E_4
Width: 1112
VWidth: 2950
GlyphClass: 2
Flags: HW
AnchorPoint: "Anchor-10" 583.952 1040.2 basechar 0
AnchorPoint: "Anchor-7" 534.594 -217.063 basechar 0
LayerCount: 2
Fore
SplineSet
410.853515625 330.236328125 m 1
 493.739257812 236.719726562 569.991210938 193 645 193 c 0
 730.12890625 193 766 229.056640625 766 308 c 0
 766 430.0546875 699.012695312 515 597 515 c 0
 520.831054688 515 458.446289062 456.661132812 410.853515625 330.236328125 c 1
906.440429688 89.91796875 m 1
 845.982421875 10.9423828125 766.5390625 -22 653 -22 c 0
 528.146484375 -22 411.799804688 33.5986328125 303.981445312 135.223632812 c 1
 222.440429688 47.8623046875 129.591796875 0 23 0 c 2
 -20 0 l 1
 -20 20 l 1
 -20 200 l 1
 -20 220 l 1
 18 220 l 2
 125.688476562 220 189.0859375 329.688476562 237.745117188 439.170898438 c 0
 326.126953125 635.237304688 444.95703125 741 597 741 c 0
 811.640625 741 925.612304688 579.688476562 964.577148438 394.090820312 c 0
 990.052734375 271.612304688 1039.25097656 220 1105 220 c 2
 1132 220 l 5
 1132 200 l 5
 1132 20 l 5
 1132 0 l 5
 1104 0 l 2
 1027.1953125 0 957.422851562 28.162109375 906.440429688 89.91796875 c 1
EndSplineSet
EndChar

StartChar: uniFEEA
Encoding: 65258 65258 245
GlifName: uniF_E_E_A_
Width: 1038
VWidth: 2970
GlyphClass: 2
Flags: HW
AnchorPoint: "Anchor-10" 662.464 1242.36 basechar 0
AnchorPoint: "Anchor-7" 469.642 -216.09 basechar 0
LayerCount: 2
Fore
SplineSet
78 432 m 0
 78 638.908203125 250.252929688 792.053710938 582.592773438 897.931640625 c 1
 578.237304688 925.92578125 l 1
 575.314453125 944.717773438 l 1
 593.935546875 948.583007812 l 1
 752.935546875 981.583007812 l 1
 773.862304688 985.92578125 l 1
 776.80859375 964.7578125 l 1
 858.8125 375.73046875 l 2
 872.759765625 273.452148438 927.998046875 220 1027 220 c 2
 1058 220 l 5
 1058 200 l 5
 1058 20 l 5
 1058 0 l 5
 1023 0 l 2
 842.223632812 0 732.041992188 80.7626953125 689.512695312 221.891601562 c 1
 612.362304688 162.939453125 526.624023438 132 431 132 c 0
 242.393554688 132 78 223.634765625 78 432 c 0
615.081054688 695.680664062 m 1
 391.184570312 610.2578125 292 528.809570312 292 444 c 0
 292 375.162109375 333.090820312 340 425 340 c 0
 531.051757812 340 641 404.962890625 641 502 c 0
 641 520.2578125 640.041015625 537.234375 637.233398438 555.951171875 c 2
 615.081054688 695.680664062 l 1
EndSplineSet
EndChar

StartChar: uniFEEB
Encoding: 65259 65259 246
GlifName: uniF_E_E_B_
Width: 1369
VWidth: 2950
GlyphClass: 2
Flags: HW
AnchorPoint: "Anchor-10" 609.134 1222.79 basechar 0
AnchorPoint: "Anchor-7" 510.852 -219.953 basechar 0
LayerCount: 2
Fore
SplineSet
502.803710938 281.544921875 m 1
 605.234375 325.32421875 654.124023438 405.137695312 655 483.112304688 c 0
 655 582.19140625 597.76171875 632 504 632 c 0
 404.549804688 632 343 575.924804688 343 488 c 0
 343 405.884765625 395.455078125 325.043945312 502.803710938 281.544921875 c 1
593.754882812 988.981445312 m 2
 1050.21386719 766.732421875 1291 574.404296875 1291 373 c 0
 1291 133.252929688 1121.06738281 10 879 10 c 0
 746.755859375 10 579.239257812 44.8994140625 485.315429688 75.8017578125 c 1
 372.020507812 34.6259765625 213.674804688 0 75 0 c 2
 -20 0 l 5
 -20 20 l 5
 -20 200 l 5
 -20 220 l 5
 63 220 l 2
 132.532226562 220 181.265625 220.702148438 233.970703125 225.2734375 c 1
 165.870117188 294.91015625 133 378.505859375 133 486 c 0
 133 694.640625 296.479492188 821.584960938 482.76953125 826.829101562 c 1
 491.481445312 842.6484375 l 1
 567.481445312 980.6484375 l 1
 576.65625 997.307617188 l 1
 593.754882812 988.981445312 l 2
815.545898438 643.772460938 m 1
 837.416015625 601.45703125 845 557.18359375 845 503 c 0
 845 391.491210938 804.08203125 296.1875 733.509765625 221.265625 c 1
 779.732421875 217.081054688 825.588867188 215 862 215 c 0
 1010.47851562 215 1076 264.200195312 1076 370 c 0
 1076 437.0546875 993.42578125 531.879882812 815.545898438 643.772460938 c 1
EndSplineSet
Position2: "Single Positioning lookup 2 subtable" dx=0 dy=0 dh=-178 dv=0
Position2: "Single Positioning lookup 1 subtable" dx=0 dy=0 dh=-173 dv=0
EndChar

StartChar: uniFEEC
Encoding: 65260 65260 247
GlifName: uniF_E_E_C_
Width: 1002
VWidth: 2950
GlyphClass: 2
Flags: HW
AnchorPoint: "Anchor-7" 597.16 -689.603 basechar 0
AnchorPoint: "Anchor-10" 551.648 1155.04 basechar 0
LayerCount: 2
Fore
SplineSet
607.407226562 -538.060546875 m 2
 379.645507812 -429.697265625 246.213867188 -249.635742188 200.19140625 0 c 1
 -20 0 l 1
 -20 20 l 1
 -20 200 l 1
 -20 220 l 1
 185.040039062 220 l 1
 204.125 551.775390625 275.40234375 836 548 836 c 0
 725.21875 836 830 695.942382812 830 507 c 0
 830 274.327148438 630.291992188 43.7890625 399.98046875 0.53515625 c 1
 424.787109375 -114.012695312 478.888671875 -197.951171875 565.583007812 -263.118164062 c 1
 575.802734375 -6.2734375 726.583984375 220 988 220 c 2
 1022 220 l 5
 1022 200 l 5
 1022 20 l 5
 1022 0 l 5
 986 0 l 2
 830.5078125 0 753 -95.27734375 753 -310 c 0
 753 -337.51953125 753.99609375 -369.993164062 756.907226562 -400.073242188 c 2
 757.831054688 -409.62109375 l 1
 750.963867188 -416.318359375 l 1
 629.963867188 -534.318359375 l 1
 619.989257812 -544.045898438 l 1
 607.407226562 -538.060546875 l 2
388.16015625 220.678710938 m 1
 524.1875 237.638671875 631 357.6953125 631 507 c 0
 631 590.6875 593.51171875 622 546 622 c 0
 457.228515625 622 404.502929688 504.576171875 388.16015625 220.678710938 c 1
EndSplineSet
EndChar

StartChar: uniFEFB
Encoding: 65275 65275 262
GlifName: uniF_E_F_B_
Width: 1212
VWidth: 2950
GlyphClass: 3
Flags: HW
AnchorPoint: "Anchor-9" 221.642 1466.64 baselig 1
AnchorPoint: "Anchor-6" 288.021 -224.333 baselig 1
AnchorPoint: "Anchor-6" 925.078 -220.55 baselig 0
AnchorPoint: "Anchor-9" 975.01 1517.81 baselig 0
LayerCount: 2
Fore
SplineSet
177.54296875 235.837890625 m 2
 254.818359375 225.930664062 326.916015625 221 399 221 c 0
 424.803710938 221 452.515625 221.592773438 476.721679688 222.643554688 c 1
 407.397460938 457.923828125 287.466796875 746.53515625 91.6640625 1196.01269531 c 2
 84.34375 1212.81738281 l 1
 100.448242188 1221.57128906 l 1
 249.448242188 1302.57128906 l 1
 268.969726562 1313.18359375 l 1
 277.4765625 1292.65722656 l 2
 473.228515625 820.319335938 595.91796875 518.467773438 675.640625 264.170898438 c 1
 807.965820312 316.817382812 875 401 875 618 c 6
 875 1346 l 1
 875 1366 l 1
 895 1366 l 1
 1064 1366 l 1
 1084 1366 l 1
 1084 1346 l 1
 1084 617 l 6
 1084 184 849.5859375 3 396 3 c 0
 304.118164062 3 230.0546875 9.0361328125 171.543945312 19.30078125 c 2
 155 22.203125 l 1
 155 39 l 1
 155 216 l 1
 155 238.727539062 l 1
 177.54296875 235.837890625 l 2
EndSplineSet
Position2: "Single Positioning lookup 2 subtable" dx=0 dy=0 dh=-143 dv=0
Position2: "Single Positioning lookup 1 subtable" dx=0 dy=0 dh=-104 dv=0
Position2: "Single Positioning lookup 0 subtable" dx=0 dy=0 dh=130 dv=0
PairPos2: "'kern' Horizontal Kerning lookup 4 subtable 0" uni0639 dx=-60 dy=0 dh=-60 dv=0 dx=0 dy=0 dh=0 dv=0
PairPos2: "'kern' Horizontal Kerning lookup 4 subtable 0" uni063A dx=-60 dy=0 dh=-60 dv=0 dx=0 dy=0 dh=0 dv=0
LCarets2: 1 0
Ligature2: "'rlig' Required Ligatures in Arabic lookup 5 subtable" uniFEDF uniFE8E
EndChar

StartChar: uniFEFC
Encoding: 65276 65276 263
GlifName: uniF_E_F_C_
Width: 1273
VWidth: 2950
GlyphClass: 3
Flags: HW
AnchorPoint: "Anchor-9" 974.01 1517.81 baselig 0
AnchorPoint: "Anchor-9" 221.642 1468.64 baselig 1
AnchorPoint: "Anchor-6" 925.078 -220.55 baselig 0
AnchorPoint: "Anchor-6" 288.021 -224.333 baselig 1
LayerCount: 2
Fore
SplineSet
277.4765625 1292.65722656 m 2
 473.228515625 820.319335938 595.91796875 518.467773438 675.640625 264.170898438 c 1
 807.965820312 316.817382812 875 401 875 618 c 2
 875 1346 l 1
 875 1366 l 1
 895 1366 l 1
 1064 1366 l 1
 1084 1366 l 1
 1084 1346 l 1
 1084 567 l 2
 1084 323 1134.08984375 220 1257 220 c 2
 1293 220 l 1
 1293 200 l 1
 1293 20 l 1
 1293 0 l 1
 1259 0 l 2
 1099.47363281 0 999.041015625 71.986328125 948.6328125 207.653320312 c 1
 830.366210938 69.9296875 649.700195312 3 396 3 c 0
 304.118164062 3 230.0546875 9.0361328125 171.543945312 19.30078125 c 2
 155 22.203125 l 1
 155 39 l 1
 155 216 l 1
 155 238.803710938 l 1
 177.609375 235.829101562 l 2
 252.799804688 225.935546875 325.9140625 221 398 221 c 0
 423.936523438 221 451.557617188 221.58984375 476.55859375 222.661132812 c 1
 406.530273438 455.494140625 286.403320312 744.833984375 91.6376953125 1196.07421875 c 2
 84.3984375 1212.84667969 l 1
 100.448242188 1221.57128906 l 1
 249.448242188 1302.57128906 l 1
 268.969726562 1313.18359375 l 1
 277.4765625 1292.65722656 l 2
EndSplineSet
PairPos2: "'kern' Horizontal Kerning lookup 4 subtable 0" uni0639 dx=-60 dy=0 dh=-60 dv=0 dx=0 dy=0 dh=0 dv=0
PairPos2: "'kern' Horizontal Kerning lookup 4 subtable 0" uni063A dx=-60 dy=0 dh=-60 dv=0 dx=0 dy=0 dh=0 dv=0
LCarets2: 1 0
Ligature2: "'rlig' Required Ligatures in Arabic lookup 5 subtable" uniFEE0 uniFE8E
EndChar

StartChar: arabic_dot
Encoding: 65536 -1 264
GlifName: arabic_dot
Width: 189
VWidth: 2682
GlyphClass: 2
Flags: HW
LayerCount: 2
Fore
SplineSet
-61.2426360573 104.920681817 m 1
 84.1291275006 250.292445376 l 1
 91.2001953125 257.363513188 l 1
 98.2712631244 250.292445376 l 1
 244.592254721 103.971453777 l 1
 251.663299235 96.900409263 l 1
 244.592278018 89.8293414512 l 1
 97.9718309859 -56.7920717412 l 1
 92.1504277822 -62.6135133052 l 1
 85.079336673 -55.5424684939 l 1
 -61.2426129082 90.778523044 l 1
 -68.3137270181 97.8495908557 l 1
 -61.2426360573 104.920681817 l 1
EndSplineSet
EndChar

StartChar: arabic_2dots
Encoding: 65537 -1 265
GlifName: arabic_2dots
Width: 504
VWidth: 2682
GlyphClass: 2
Flags: HW
LayerCount: 2
Fore
SplineSet
263.928932188 105.071067812 m 1
 403.928932188 245.071067812 l 1
 410.974880833 252.117016457 l 1
 418.045859254 245.09618682 l 1
 559.045859254 105.09618682 l 1
 566.142224542 98.050150363 l 1
 559.096009617 90.9539622821 l 1
 418.096009617 -51.0460377179 l 1
 410.974702682 -58.2178503755 l 1
 403.87896186 -51.0207418278 l 1
 263.87896186 90.9792581722 l 1
 256.907835961 98.0499715845 l 1
 263.928932188 105.071067812 l 1
-68.0710678119 105.071067812 m 1
 71.9289321881 245.071067812 l 1
 78.9748808332 252.117016457 l 1
 86.0458592535 245.09618682 l 1
 227.045859254 105.09618682 l 1
 234.142224542 98.050150363 l 1
 227.096009617 90.9539622821 l 1
 86.0960096166 -51.0460377179 l 1
 78.9747026819 -58.2178503755 l 1
 71.8789618603 -51.0207418278 l 1
 -68.1210381397 90.9792581722 l 1
 -75.0921640392 98.0499715845 l 1
 -68.0710678119 105.071067812 l 1
EndSplineSet
EndChar

StartChar: arabic_3dots
Encoding: 65538 -1 266
GlifName: arabic_3dots
Width: 504
VWidth: 2675
GlyphClass: 2
Flags: HW
LayerCount: 2
Fore
SplineSet
103.928932188 332.071067812 m 1
 235.928932188 464.071067812 l 1
 242.973367071 471.115502695 l 1
 250.044334382 464.097700551 l 1
 383.044334382 332.097700551 l 1
 390.168869244 325.02673362 l 1
 383.071067812 317.928932188 l 1
 250.071067812 184.928932188 l 1
 242.97326638 177.831130756 l 1
 235.902299449 184.955665618 l 1
 103.902299449 317.955665618 l 1
 96.8844973054 325.026632929 l 1
 103.928932188 332.071067812 l 1
275.928932188 70.0710678119 m 1
 407.928932188 202.071067812 l 1
 414.973367071 209.115502695 l 1
 422.044334382 202.097700551 l 1
 555.044334382 70.0977005514 l 1
 562.168869244 63.0267336204 l 1
 555.071067812 55.9289321881 l 1
 422.071067812 -77.0710678119 l 1
 414.97326638 -84.1688692441 l 1
 407.902299449 -77.0443343818 l 1
 275.902299449 55.9556656182 l 1
 268.884497305 63.0266329291 l 1
 275.928932188 70.0710678119 l 1
-64.0710678119 70.0710678119 m 1
 67.9289321881 202.071067812 l 1
 74.9733670709 209.115502695 l 1
 82.0443343818 202.097700551 l 1
 215.044334382 70.0977005514 l 1
 222.168869244 63.0267336204 l 1
 215.071067812 55.9289321881 l 1
 82.0710678119 -77.0710678119 l 1
 74.9732663796 -84.1688692441 l 1
 67.9022994486 -77.0443343818 l 1
 -64.0977005514 55.9556656182 l 1
 -71.1155026946 63.0266329291 l 1
 -64.0710678119 70.0710678119 l 1
EndSplineSet
EndChar

StartChar: arabic_3dots_a
Encoding: 65539 -1 267
GlifName: arabic_3dots_a
Width: 504
VWidth: 2689
GlyphClass: 2
Flags: HW
LayerCount: 2
Fore
SplineSet
104.902299449 -126.955665618 m 1
 236.902299449 6.04433438182 l 1
 243.97326638 13.1688692441 l 1
 251.071067812 6.07106781187 l 1
 384.071067812 -126.928932188 l 1
 391.168869244 -134.02673362 l 1
 384.044334382 -141.097700551 l 1
 251.044334382 -273.097700551 l 1
 243.973367071 -280.115502695 l 1
 236.928932188 -273.071067812 l 1
 104.928932188 -141.071067812 l 1
 97.8844973054 -134.026632929 l 1
 104.902299449 -126.955665618 l 1
276.902299449 135.044334382 m 1
 408.902299449 268.044334382 l 1
 415.97326638 275.168869244 l 1
 423.071067812 268.071067812 l 1
 556.071067812 135.071067812 l 1
 563.168869244 127.97326638 l 1
 556.044334382 120.902299449 l 1
 423.044334382 -11.0977005514 l 1
 415.973367071 -18.1155026946 l 1
 408.928932188 -11.0710678119 l 1
 276.928932188 120.928932188 l 1
 269.884497305 127.973367071 l 1
 276.902299449 135.044334382 l 1
-63.0977005514 135.044334382 m 1
 68.9022994486 268.044334382 l 1
 75.9732663796 275.168869244 l 1
 83.0710678119 268.071067812 l 1
 216.071067812 135.071067812 l 1
 223.168869244 127.97326638 l 1
 216.044334382 120.902299449 l 1
 83.0443343818 -11.0977005514 l 1
 75.9733670709 -18.1155026946 l 1
 68.9289321881 -11.0710678119 l 1
 -63.0710678119 120.928932188 l 1
 -70.1155026946 127.973367071 l 1
 -63.0977005514 135.044334382 l 1
EndSplineSet
EndChar

StartChar: uni066E.fina
Encoding: 65540 -1 268
GlifName: uni066E_.fina
Width: 1878
VWidth: 2970
GlyphClass: 2
Flags: HW
AnchorPoint: "Anchor-10" 892.51 1445.59 basechar 0
AnchorPoint: "Anchor-7" 795.357 -239.261 basechar 0
LayerCount: 2
Fore
SplineSet
985 0 m 2
 840 0 l 2
 358.274414062 0 78 165.641601562 78 504 c 0
 78 596.009765625 98.67578125 684.692382812 133.62890625 765.90625 c 2
 141.151367188 783.384765625 l 1
 158.982421875 776.741210938 l 1
 311.982421875 719.741210938 l 1
 330.764648438 712.744140625 l 1
 323.7265625 693.977539062 l 2
 303.521484375 640.098632812 293 584.411132812 293 529.045898438 c 0
 293.920898438 326.485351562 463.388671875 220 830 220 c 2
 980 220 l 2
 1236.36914062 220 1399.06054688 262.754882812 1464.60742188 341.76953125 c 0
 1482.82226562 363.727539062 1495 397.83984375 1495 452 c 0
 1495 504.001953125 1491.04882812 556.591796875 1488.03613281 606.801757812 c 2
 1486.91210938 625.534179688 l 1
 1505.53417969 627.84765625 l 1
 1666.53417969 647.84765625 l 1
 1687.59277344 650.462890625 l 1
 1688.95898438 629.288085938 l 1
 1704.95703125 381.30859375 l 2
 1712.4140625 269.451171875 1759.52734375 220 1873 220 c 2
 1898 220 l 5
 1898 200 l 5
 1898 20 l 5
 1898 0 l 5
 1873 0 l 2
 1733.28320312 0 1634.68066406 56.9501953125 1571.1328125 165.1796875 c 1
 1447.98144531 51.947265625 1243.24414062 0 985 0 c 2
EndSplineSet
EndChar

StartChar: uni06A1.fina
Encoding: 65543 -1 269
GlifName: uni06A_1.fina
Width: 1962
VWidth: 2970
GlyphClass: 2
Flags: HW
AnchorPoint: "Anchor-10" 713.816 1591.03 basechar 0
AnchorPoint: "Anchor-7" 590.121 -291.592 basechar 0
LayerCount: 2
Fore
SplineSet
1501 681 m 0
 1452.94238281 681 1349 565.448242188 1349 510 c 0
 1349 454.630859375 1463.80175781 310 1506 310 c 0
 1552.81347656 310 1665 457.79296875 1665 518 c 0
 1665 561.873046875 1571.31542969 681 1501 681 c 0
960 220 m 2
 1153.84472656 220 1235.15820312 221.915039062 1278.44824219 226.987304688 c 1
 1189.91796875 320.862304688 1141 404.379882812 1141 516 c 0
 1141 664.005859375 1307.31445312 896 1503 896 c 0
 1707.02734375 896 1874 685.075195312 1874 531 c 0
 1874 408.01953125 1821.81054688 325.889648438 1731.89550781 225.790039062 c 1
 1762.56054688 221.407226562 1806.56835938 220 1888 220 c 2
 1982 220 l 5
 1982 200 l 5
 1982 20 l 5
 1982 0 l 5
 1890 0 l 2
 1718.59863281 0 1601.23730469 35.802734375 1502.44921875 104.786132812 c 1
 1384.74511719 31.1845703125 1206.26660156 0 965 0 c 2
 840 0 l 2
 358.288085938 0 78 165.212890625 78 504 c 0
 78 596.108398438 98.2421875 685.313476562 133.737304688 766.477539062 c 2
 141.338867188 783.859375 l 1
 159.096679688 777.185546875 l 1
 312.442382812 719.559570312 l 1
 331.192382812 712.513671875 l 1
 324.118164062 693.774414062 l 2
 303.599609375 639.416992188 293 584.0703125 293 529.036132812 c 0
 293.927734375 326.744140625 463.400390625 220 830 220 c 2
 960 220 l 2
EndSplineSet
EndChar

StartChar: uni06A1.init
Encoding: 65544 -1 270
GlifName: uni06A_1.init
Width: 918
VWidth: 2950
GlyphClass: 2
Flags: HW
AnchorPoint: "Anchor-10" 447.443 1624.02 basechar 0
AnchorPoint: "Anchor-7" 367.886 -227.023 basechar 0
LayerCount: 2
Fore
SplineSet
645.358398438 384.107421875 m 1
 589.038085938 369.525390625 529.408203125 362 466 362 c 0
 243.5390625 362 121.137695312 458.485351562 119 650.888671875 c 0
 119 878.862304688 244.731445312 1082 466 1082 c 0
 736.819335938 1082 840 779.154296875 840 482 c 0
 840 88.18359375 665.956054688 0 265 0 c 2
 -20 0 l 5
 -20 20 l 5
 -20 200 l 5
 -20 220 l 5
 276 220 l 2
 513.908203125 220 630.076171875 254.275390625 645.358398438 384.107421875 c 1
628.99609375 593.512695312 m 1
 610.580078125 728.825195312 562.0234375 866 459 866 c 0
 389.341796875 866 320 788.215820312 320 678 c 0
 320 607.962890625 364.822265625 572 479 572 c 0
 528.336914062 572 578.943359375 579.921875 628.99609375 593.512695312 c 1
EndSplineSet
EndChar

StartChar: uni06A1.medi
Encoding: 65545 -1 271
GlifName: uni06A_1.medi
Width: 972
VWidth: 2970
GlyphClass: 2
Flags: HW
AnchorPoint: "Anchor-10" 532.544 1406.06 basechar 0
AnchorPoint: "Anchor-7" 507.517 -227.023 basechar 0
LayerCount: 2
Fore
SplineSet
511 681 m 0
 462.942382812 681 359 565.448242188 359 510 c 0
 359 454.630859375 473.801757812 310 516 310 c 0
 562.813476562 310 675 457.79296875 675 518 c 0
 675 561.77734375 580.33203125 681 511 681 c 0
743.106445312 225.467773438 m 1
 776.793945312 220.954101562 824.943359375 220 898 220 c 2
 992 220 l 5
 992 200 l 5
 992 20 l 5
 992 0 l 5
 900 0 l 2
 741.189453125 0 613.607421875 35.1142578125 513.010742188 104.432617188 c 1
 409.995117188 33.37890625 278.250976562 0 114 0 c 2
 -20 0 l 1
 -20 20 l 1
 -20 200 l 1
 -20 220 l 1
 114 220 l 2
 200.514648438 220 257.490234375 221.6640625 289.41015625 225.91796875 c 1
 200.19921875 319.986328125 151 403.639648438 151 516 c 0
 151 663.923828125 316.259765625 896 512 896 c 0
 715.971679688 896 884 685.155273438 884 531 c 0
 884 417.861328125 833.115234375 321.544921875 743.106445312 225.467773438 c 1
EndSplineSet
EndChar

StartChar: uni066F.fina
Encoding: 65546 -1 272
GlifName: uni066F_.fina
Width: 1450
VWidth: 2950
GlyphClass: 2
Flags: HW
AnchorPoint: "Anchor-10" 758.297 1019.41 basechar 0
AnchorPoint: "Anchor-7" 713.744 -678.409 basechar 0
LayerCount: 2
Fore
SplineSet
361.708007812 434.928710938 m 2
 314.349609375 309.625976562 290 193.072265625 290 81 c 0
 290 -179.954101562 426.659179688 -307 728 -307 c 0
 1022.95800781 -307 1125.82910156 -205.252929688 1151.68847656 1 c 1
 1023 1 l 2
 773.829101562 1 639 106.397460938 639 317 c 0
 639 551.317382812 781.610351562 761 993 761 c 0
 1208.6484375 761 1324.96875 568.881835938 1358.27148438 220 c 1
 1470 220 l 5
 1470 200 l 5
 1470 20 l 5
 1470 -0.154296875 l 5
 1355.72363281 0.86328125 l 1
 1311.56640625 -342.915039062 1130.63574219 -520 721 -520 c 0
 293.78125 -520 78 -318.510742188 78 76 c 0
 78 218.879882812 108.649414062 364.529296875 169.500976562 512.602539062 c 2
 177.07421875 531.029296875 l 1
 195.530273438 523.528320312 l 1
 350.530273438 460.528320312 l 1
 368.606445312 453.180664062 l 1
 361.708007812 434.928710938 l 2
1154.51757812 221 m 1
 1136.98144531 441.635742188 1075.8046875 536 979 536 c 0
 906.89453125 536 844 442.892578125 844 332 c 0
 844 260.130859375 891.768554688 221 1013 221 c 2
 1154.51757812 221 l 1
EndSplineSet
EndChar

StartChar: arabic_gaf_bar
Encoding: 65550 -1 273
GlifName: arabic_gaf_bar
Width: 751
VWidth: 2769
GlyphClass: 2
Flags: HW
LayerCount: 2
Fore
SplineSet
735 1831.37207031 m 1
 8 1560.91503906 l 1
 8 1676.62792969 l 5
 735 1947.08496094 l 5
 735 1831.37207031 l 1
EndSplineSet
EndChar

StartChar: guillemotleft
Encoding: 171 171 283
GlifName: guillemotleft
Width: 946
Flags: HW
LayerCount: 2
Fore
SplineSet
468 475 m 0
 468 572.260742188 516.537109375 752.495117188 709.137695312 966.3828125 c 2
 722.61328125 981.348632812 l 1
 737.485351562 967.76953125 l 1
 829.485351562 883.76953125 l 1
 843.127929688 871.313476562 l 1
 831.791015625 856.7265625 l 2
 683.88671875 666.422851562 665 542.443359375 665 476 c 0
 665 402.26953125 681.708007812 287.7890625 831.834960938 93.2177734375 c 2
 843.080078125 78.642578125 l 1
 829.485351562 66.23046875 l 1
 737.485351562 -17.76953125 l 1
 722.57421875 -31.3837890625 l 1
 709.102539062 -16.34375 l 2
 517.551757812 197.50390625 468 377.650390625 468 475 c 0
90 475 m 0
 90 572.260742188 138.537109375 752.495117188 331.137695312 966.3828125 c 2
 344.61328125 981.348632812 l 1
 359.485351562 967.76953125 l 1
 451.485351562 883.76953125 l 1
 465.127929688 871.313476562 l 1
 453.791015625 856.7265625 l 2
 305.88671875 666.422851562 287 542.443359375 287 476 c 0
 287 402.26953125 303.708007812 287.7890625 453.834960938 93.2177734375 c 2
 465.080078125 78.642578125 l 1
 451.485351562 66.23046875 l 1
 359.485351562 -17.76953125 l 1
 344.57421875 -31.3837890625 l 1
 331.102539062 -16.34375 l 2
 139.551757812 197.50390625 90 377.650390625 90 475 c 0
EndSplineSet
EndChar

StartChar: guillemotright
Encoding: 187 187 284
GlifName: guillemotright
Width: 946
Flags: HW
LayerCount: 2
Fore
SplineSet
478 475 m 0
 478 377.6484375 428.44921875 197.50390625 236.897460938 -16.34375 c 2
 223.42578125 -31.3837890625 l 1
 208.514648438 -17.76953125 l 1
 116.514648438 66.23046875 l 1
 102.919921875 78.642578125 l 1
 114.165039062 93.2177734375 l 2
 264.291992188 287.7890625 281 402.26953125 281 476 c 0
 281 542.443359375 262.11328125 666.422851562 114.208984375 856.7265625 c 2
 102.872070312 871.313476562 l 1
 116.514648438 883.76953125 l 1
 208.514648438 967.76953125 l 1
 223.38671875 981.348632812 l 1
 236.862304688 966.3828125 l 2
 429.461914062 752.49609375 478 572.258789062 478 475 c 0
856 475 m 0
 856 377.6484375 806.44921875 197.50390625 614.897460938 -16.34375 c 2
 601.42578125 -31.3837890625 l 1
 586.514648438 -17.76953125 l 1
 494.514648438 66.23046875 l 1
 480.919921875 78.642578125 l 1
 492.165039062 93.2177734375 l 2
 642.291992188 287.7890625 659 402.26953125 659 476 c 0
 659 542.443359375 640.11328125 666.422851562 492.208984375 856.7265625 c 2
 480.872070312 871.313476562 l 1
 494.514648438 883.76953125 l 1
 586.514648438 967.76953125 l 1
 601.38671875 981.348632812 l 1
 614.862304688 966.3828125 l 2
 807.461914062 752.49609375 856 572.258789062 856 475 c 0
EndSplineSet
EndChar

StartChar: NameMe.302
Encoding: 65562 -1 293
GlifName: N_ameM_e.302
Width: 525
VWidth: 2950
Flags: HW
LayerCount: 2
Fore
SplineSet
271.137695312 103.638671875 m 1
 216.380859375 22.92578125 133.08203125 0 22 0 c 2
 -20 0 l 1
 -20 20 l 1
 -20 200 l 1
 -20 220 l 1
 24 220 l 2
 162.879882812 220 168 281 168 449 c 2
 168 1029 l 5
 168 1049 l 5
 188 1049 l 5
 357 1049 l 5
 377 1049 l 5
 377 1029 l 5
 377 449 l 2
 377 280 382.750976562 220 502 220 c 2
 545 220 l 1
 545 200 l 1
 545 20 l 1
 545 0 l 1
 505 0 l 2
 397.41796875 0 323.188476562 26.4501953125 271.137695312 103.638671875 c 1
EndSplineSet
EndChar

StartChar: NameMe.303
Encoding: 65563 -1 294
GlifName: N_ameM_e.303
Width: 487
VWidth: 2950
Flags: HW
LayerCount: 2
Fore
SplineSet
-20 20 m 1
 -20 200 l 1
 -20 220 l 1
 11 220 l 2
 127.40625 220 150 283 150 423 c 2
 150 1182 l 5
 150 1202 l 5
 170 1202 l 5
 339 1202 l 5
 359 1202 l 5
 359 1182 l 5
 359 425 l 2
 359 163 272.461914062 0 10 0 c 2
 -20 0 l 1
 -20 20 l 1
EndSplineSet
EndChar

StartChar: NameMe.65564
Encoding: 65564 -1 297
GlifName: N_ameM_e.65564
Width: 527
VWidth: 2950
Flags: HW
AnchorPoint: "Anchor-10" 232.697 1316.11 basechar 0
AnchorPoint: "Anchor-7" 292.078 -221.903 basechar 0
LayerCount: 2
Fore
SplineSet
522 0 m 2
 268.413085938 0 128 126 128 424 c 2
 128 1147 l 5
 128 1167 l 5
 148 1167 l 5
 317 1167 l 5
 337 1167 l 5
 337 1147 l 5
 337 424 l 2
 337 264 398.919921875 220 522 220 c 2
 547 220 l 1
 547 200 l 1
 547 20 l 1
 547 0 l 1
 522 0 l 2
EndSplineSet
EndChar

StartChar: NameMe.65565
Encoding: 65565 -1 298
GlifName: N_ameM_e.65565
Width: 716
VWidth: 2957
Flags: HW
LayerCount: 2
Fore
SplineSet
116.072036474 -272.116278284 m 2
 156.693648229 -281.03321745 197.367186556 -285 233 -285 c 0
 338.550432175 -285 410.429157316 -266.853599145 448.861237744 -236.107934803 c 0
 479.217341686 -211.627205817 493 -186.976927655 493 -162 c 0
 493 -151.635792308 486.81251963 -143.956499186 462.850074937 -142.998001399 c 2
 362.873458267 -140.998398462 l 2
 281.528526863 -138.93903311 239 -95.3049815488 239 -13 c 0
 239 163.392832507 417.269693214 250.993014308 619.950497476 252.999754944 c 2
 625.36181401 253.053332335 l 1
 624.988060652 247.654672724 l 1
 615.988060652 117.654672724 l 1
 615.671892929 113.087805611 l 1
 611.0949196 113.000901054 l 2
 456.221368777 110.060264013 385.768977638 71.525135866 373.70786589 -4.2060973812 c 1
 477.147230949 -8.00203738333 l 2
 569.133002109 -10.0461656314 625 -58.2784785463 625 -151 c 0
 625 -206.625065764 599.232324087 -260.774109057 551.697614984 -313.365702107 c 0
 484.335376393 -386.85178057 375.710551112 -423 226 -423 c 0
 184.675788923 -423 140.434890586 -418.97222633 95.2314649686 -411.940582345 c 2
 90.3360912279 -411.179079763 l 1
 91.0525617731 -406.276912875 l 1
 110.052561773 -276.276912875 l 1
 110.828868721 -270.965339021 l 1
 116.072036474 -272.116278284 l 2
EndSplineSet
EndChar

StartChar: uni060D
Encoding: 1549 1549 299
Width: 828
VWidth: 4036
Flags: HW
LayerCount: 2
Fore
SplineSet
575.666992188 1439.92675781 m 1
 757 1385.40039062 l 1
 210.6875 -215.69921875 l 1
 29.3544921875 -161.172851562 l 5
 575.666992188 1439.92675781 l 1
EndSplineSet
EndChar

StartChar: NameMe.65541
Encoding: 65541 -1 300
Width: 592
VWidth: 2950
Flags: HW
AnchorPoint: "Anchor-10" 261.384 1371 basechar 0
AnchorPoint: "Anchor-7" 253.422 -205.625 basechar 0
LayerCount: 2
Fore
SplineSet
465.166992188 764.712890625 m 2
 496.6953125 658.940429688 514 537.302734375 514 438 c 0
 514 163.12109375 372.649414062 0 99 0 c 2
 -20 0 l 5
 -20 20 l 5
 -20 200 l 5
 -20 220 l 5
 99 220 l 2
 243.046875 220 303 275.403320312 303 435 c 0
 303 510.703125 289.232421875 620.653320312 266.561523438 714.293945312 c 2
 261.890625 733.587890625 l 1
 281.149414062 738.403320312 l 1
 441.149414062 778.403320312 l 1
 459.703125 783.041015625 l 1
 465.166992188 764.712890625 l 2
EndSplineSet
EndChar

StartChar: NameMe.65542
Encoding: 65542 -1 301
Width: 687
VWidth: 2950
Flags: HW
AnchorPoint: "Anchor-10" 265.665 1315.09 basechar 0
AnchorPoint: "Anchor-7" 320.537 -159.742 basechar 0
LayerCount: 2
Fore
SplineSet
683 0 m 2
 555.149414062 0 466.188476562 43.572265625 409.759765625 127.931640625 c 1
 336.127929688 42.7255859375 227.600585938 0 101 0 c 2
 101 0 26.6669921875 0 -20 0 c 1
 -20 20 l 1
 -20 200 l 1
 -20 220 l 1
 26.6669921875 220 101 220 101 220 c 2
 252.059570312 220 303 276.814453125 303 417 c 0
 303 477.95703125 298.040039062 545.686523438 295.024414062 607.017578125 c 2
 294.110351562 625.600585938 l 1
 312.579101562 627.852539062 l 1
 476.579101562 647.852539062 l 1
 497.583984375 650.415039062 l 1
 498.958007812 629.297851562 l 1
 514.956054688 383.319335938 l 2
 522.3984375 270.760742188 573.495117188 220 685 220 c 2
 685 220 693.333007812 220 707 220 c 5
 707 200 l 5
 707 20 l 5
 707 0 l 5
 692.666992188 0 683 0 683 0 c 2
EndSplineSet
EndChar

StartChar: uniFBFD.compact
Encoding: 65575 -1 321
Width: 1437
Flags: HW
AnchorPoint: "Anchor-7" 718.902 -678.086 basechar 0
AnchorPoint: "Anchor-10" 681.6 673.22 basechar 0
LayerCount: 2
Fore
SplineSet
1368.43457031 0 m 1
 1384.2890625 -42.3876953125 1386 -70.19921875 1386 -94 c 0
 1386 -344.822265625 1110.11523438 -519 720 -519 c 0
 295.646484375 -519 79 -316.411132812 79 81 c 0
 79 191.733398438 102.983398438 346.197265625 151.716796875 456.106445312 c 2
 159.591796875 473.8671875 l 1
 177.572265625 466.510742188 l 1
 331.572265625 403.510742188 l 1
 349.30859375 396.255859375 l 1
 342.817382812 378.225585938 l 2
 307.553710938 280.270507812 290 181.6796875 290 80 c 0
 290 -179.064453125 427.939453125 -307 719 -307 c 0
 958.166992188 -307 1184 -198.791015625 1184 -87 c 0
 1184 -43.9697265625 1142 0 1040 0 c 2
 907 0 l 2
 857 0 844.930664062 23.7900390625 835 66 c 2
 808 183 l 2
 801.888671875 209.482421875 814.53125 220 843 220 c 2
 1457 220 l 5
 1457 220 l 5
 1457 200 l 5
 1457 20 l 5
 1457 0 l 5
 1457 0 l 5
 1368.43457031 0 l 1
EndSplineSet
EndChar

StartChar: uniFECC.compact
Encoding: 65579 -1 324
Width: 1071
VWidth: 2970
Flags: HW
AnchorPoint: "Anchor-7" 574.511 -217.021 basechar 0
AnchorPoint: "Anchor-10" 598.107 1120.89 basechar 0
LayerCount: 2
Fore
SplineSet
784.34765625 252.104492188 m 1
 840.701171875 229.606445312 918.89453125 220 1045 220 c 2
 1091 220 l 1
 1091 200 l 1
 1091 20 l 1
 1091 0 l 1
 1045 0 l 2
 845.581054688 0 714.672851562 48.20703125 607.071289062 118.876953125 c 1
 501.073242188 48.8134765625 351.625976562 0 87 0 c 2
 -20 0 l 5
 -20 20 l 5
 -20 200 l 5
 -20 220 l 5
 90 220 l 2
 255.8984375 220 362.18359375 229.772460938 418.245117188 251.249023438 c 1
 251.564453125 354.08203125 147 453.1875 147 579 c 0
 147 759.274414062 402.340820312 816 607 816 c 0
 797.930664062 816 1060 759.338867188 1060 579 c 0
 1060 474.774414062 951.977539062 358.831054688 784.34765625 252.104492188 c 1
603.575195312 372.62890625 m 1
 699.016601562 425.849609375 842 524.38671875 842 556 c 0
 842 572.413085938 783.168945312 602 604 602 c 0
 425.537109375 602 365 574.365234375 365 556 c 0
 365 523.510742188 495.673828125 427.931640625 603.575195312 372.62890625 c 1
EndSplineSet
EndChar

StartChar: uniFEEE.compact
Encoding: 65581 -1 327
Width: 876
VWidth: 2142
Flags: HW
AnchorPoint: "Anchor-10" 430.256 1050.2 basechar 0
AnchorPoint: "Anchor-7" 415.969 -609.998 basechar 0
LayerCount: 2
Fore
SplineSet
432 760 m 0
 654.110351562 760 770.677734375 569.907226562 797.623046875 220 c 1
 896 220 l 1
 896 199 l 1
 896 20 l 1
 896 0 l 1
 783.405273438 0 l 1
 725.677734375 -274.799804688 520.822265625 -460.823242188 171.760742188 -527.643554688 c 2
 155.408203125 -530.7734375 l 1
 149.364257812 -515.260742188 l 1
 89.3642578125 -361.260742188 l 1
 80.6083984375 -338.787109375 l 1
 104.314453125 -334.342773438 l 2
 373.836914062 -283.806640625 528.34765625 -162.0703125 583.953125 0 c 1
 462 0 l 2
 212.829101562 0 78 105.397460938 78 316 c 0
 78 549.354492188 221.573242188 760 432 760 c 0
594.514648438 220 m 1
 576.940429688 440.46484375 514.877929688 535 418 535 c 0
 345.89453125 535 283 441.892578125 283 331 c 0
 283 259.130859375 330.768554688 220 452 220 c 2
 594.514648438 220 l 1
EndSplineSet
EndChar

StartChar: figuredash
Encoding: 8210 8210 329
Width: 1170
Flags: HW
LayerCount: 2
Fore
SplineSet
1003 631 m 1
 168 631 l 1
 148 631 l 1
 148 651 l 1
 148 782 l 1
 148 802 l 1
 168 802 l 1
 1003 802 l 1
 1023 802 l 1
 1023 782 l 1
 1023 651 l 1
 1023 631 l 1
 1003 631 l 1
EndSplineSet
EndChar

StartChar: NameMe.65583
Encoding: 65583 -1 340
Width: 465
VWidth: 2703
Flags: HW
AnchorPoint: "Anchor-1" 243.295 1210.37 mark 0
AnchorPoint: "Anchor-1" 266.134 1673.4 basemark 0
AnchorPoint: "Anchor-9" 243.295 1210.37 mark 0
AnchorPoint: "Anchor-10" 243.295 1210.37 mark 0
LayerCount: 2
Fore
SplineSet
202.120117188 1333.0703125 m 2
 372.259765625 1333.0703125 428.740234375 1348.79003906 428.740234375 1422.11035156 c 0
 428.740234375 1473.34082031 391.610351562 1512.35058594 337.08984375 1512.35058594 c 0
 264.709960938 1512.35058594 216.219726562 1462.79003906 132.559570312 1332.60058594 c 1
 202.120117188 1333.0703125 l 2
-44.759765625 1315.20996094 m 1
 -27.83984375 1396.52050781 l 25
 -27.83984375 1396.52050781 14.1201171875 1357.98046875 45.1396484375 1346.23046875 c 1
 152.299804688 1526.70996094 228.049804688 1597.890625 333.330078125 1597.890625 c 0
 439.080078125 1597.890625 512.400390625 1525.04003906 512.400390625 1426.34082031 c 0
 511.9296875 1294.27050781 429.599609375 1248 204 1248 c 2
 180.030273438 1248 l 2
 62.0595703125 1248 -16.08984375 1269.15039062 -44.759765625 1315.20996094 c 1
EndSplineSet
EndChar

StartChar: uni06CD
Encoding: 1741 1741 352
Width: 1681
VWidth: 2950
Flags: HW
AnchorPoint: "Anchor-7" 920.902 -656.086 basechar 0
AnchorPoint: "Anchor-10" 848.6 956.22 basechar 0
LayerCount: 2
Fore
SplineSet
322.012695312 347.583984375 m 1
 65.4599609375 244.443359375 l 1
 30.6142578125 230.434570312 l 1
 38.4384765625 267.166992188 l 1
 74.4384765625 436.166992188 l 1
 76.6650390625 446.619140625 l 1
 86.5927734375 450.577148438 l 1
 402.592773438 576.577148438 l 1
 410.071289062 579.559570312 l 1
 417.530273438 576.528320312 l 1
 572.530273438 513.528320312 l 1
 591.10546875 505.978515625 l 1
 583.508789062 487.422851562 l 2
 523.040039062 339.71875 493 219.475585938 493 102 c 0
 493 -158.9296875 632.829101562 -287.025390625 928.033203125 -288 c 0
 1161.86523438 -288 1401 -184.825195312 1401 -22 c 0
 1401 5.3134765625 1367.140625 16 1322 16 c 2
 1178 16 l 2
 1007.58886719 16 912 111.453125 912 283 c 0
 912 566.182617188 1144.54296875 746.53515625 1395.55859375 746.53515625 c 0
 1434.29785156 746.53515625 1507.70703125 745.122070312 1583.69238281 713.461914062 c 2
 1598.73730469 707.192382812 l 1
 1595.63378906 691.192382812 l 1
 1563.63378906 526.192382812 l 1
 1559.38574219 504.284179688 l 1
 1538.07226562 510.8984375 l 2
 1482.59863281 528.114257812 1433.89550781 531.233398438 1395.96875 531.233398438 c 0
 1228.13476562 531.233398438 1121 405.93359375 1121 296 c 0
 1121 243.872070312 1125.00683594 232 1188 232 c 2
 1368.04199219 232 l 2
 1518.60058594 231.372070312 1603 140.930664062 1603 18 c 0
 1603 -316.16015625 1319.98339844 -499 923 -499 c 0
 500.7265625 -499 282 -297.528320312 282 99 c 0
 282 190.619140625 294.045898438 256.91796875 322.012695312 347.583984375 c 1
EndSplineSet
Substitution2: "'fina' Terminal Forms in Arabic lookup 1 subtable" uni06CD.fina
EndChar

StartChar: uni06CD.compact
Encoding: 65585 -1 353
Width: 1677
VWidth: 2703
Flags: HW
AnchorPoint: "Anchor-7" 958.902 -678.086 basechar 0
AnchorPoint: "Anchor-10" 921.6 673.22 basechar 0
LayerCount: 2
Fore
SplineSet
38.4384765625 157.166992188 m 1
 74.4384765625 326.166992188 l 1
 76.6650390625 336.619140625 l 1
 86.5927734375 340.577148438 l 1
 402.592773438 466.577148438 l 1
 410.095703125 469.569335938 l 1
 417.572265625 466.510742188 l 1
 571.572265625 403.510742188 l 1
 589.30859375 396.255859375 l 1
 582.817382812 378.225585938 l 2
 547.553710938 280.270507812 530 181.6796875 530 80 c 0
 530 -179.064453125 667.939453125 -307 959 -307 c 0
 1198.16699219 -307 1424 -198.791015625 1424 -87 c 0
 1424 -43.9697265625 1383.49414062 0 1280 0 c 2
 1157 0 l 2
 1105.42871094 0 1081.30664062 39.0283203125 1072.52539062 77.4462890625 c 2
 1050.51074219 169.504882812 l 2
 1047.96484375 180.96484375 1047.78613281 194.27734375 1056.53320312 205.3828125 c 0
 1066.23144531 217.693359375 1080.79882812 220 1093 220 c 2
 1697 220 l 1
 1717 220 l 1
 1717 200 l 1
 1717 20 l 1
 1717 0 l 1
 1697 0 l 1
 1608.74511719 0 l 1
 1625.2890625 -42.3876953125 1626 -70.19921875 1626 -94 c 0
 1626 -344.822265625 1350.11523438 -519 960 -519 c 0
 535.646484375 -519 319 -316.411132812 319 81 c 0
 319 136.9453125 325.62109375 185.01953125 337.65234375 243.455078125 c 1
 65.435546875 134.43359375 l 1
 30.626953125 120.493164062 l 1
 38.4384765625 157.166992188 l 1
EndSplineSet
EndChar

StartChar: NameMe.65587
Encoding: 65587 -1 355
Width: 504
VWidth: 2682
Flags: HW
LayerCount: 2
Fore
SplineSet
244.424804688 108.33203125 m 1
 90.357421875 262.399414062 l 1
 244.424804688 417.56640625 l 1
 400.692382812 262.399414062 l 1
 244.424804688 108.33203125 l 1
244.424804688 -203.66796875 m 5
 90.357421875 -49.6005859375 l 5
 244.424804688 105.56640625 l 5
 400.692382812 -49.6005859375 l 5
 244.424804688 -203.66796875 l 5
EndSplineSet
EndChar

StartChar: uni06D2
Encoding: 1746 1746 385
Width: 1744
VWidth: 0
Flags: HW
AnchorPoint: "Anchor-7" 881.902 -160.086 basechar 0
AnchorPoint: "Anchor-10" 585.53 1140.1 basechar 0
LayerCount: 2
Fore
SplineSet
775.106445312 460.859375 m 2
 723.740234375 528.102539062 661.986328125 619.583984375 594.361328125 685.471679688 c 1
 540.762695312 606.053710938 524.427734375 569.783203125 458.388671875 490.225585938 c 0
 326.02734375 330.765625 291 329.53125 291 319 c 0
 291 271.461914062 519.590820312 210.009765625 807.669921875 210.009765625 c 0
 1231.9609375 210.009765625 1636.75 276.734375 1636.75 276.734375 c 1
 1659.22167969 280.435546875 l 1
 1659.98828125 257.673828125 l 1
 1665.98828125 79.673828125 l 1
 1666.59375 61.720703125 l 1
 1648.80859375 59.1982421875 l 2
 1648.30371094 59.126953125 1236.81738281 0.67578125 810.045898438 0.67578125 c 4
 502.360351562 0.67578125 78 33.09765625 78 303 c 0
 78 454.955078125 210.755859375 490.73046875 324.185546875 637.243164062 c 0
 461.572265625 814.700195312 472.766601562 912 584 912 c 0
 721.768554688 912 889.161132812 652.467773438 925.567382812 585.55859375 c 2
 933.197265625 571.537109375 l 1
 921.215820312 560.98828125 l 1
 804.215820312 457.98828125 l 1
 788.122070312 443.8203125 l 1
 775.106445312 460.859375 l 2
EndSplineSet
Position2: "Single Positioning lookup 2 subtable" dx=0 dy=0 dh=-120 dv=0
Position2: "Single Positioning lookup 1 subtable" dx=0 dy=0 dh=-120 dv=0
Substitution2: "'fina' Terminal Forms in Arabic lookup 1 subtable" uniFBAF
EndChar

StartChar: uni06D4
Encoding: 1748 1748 387
Width: 632
VWidth: 2950
Flags: HW
LayerCount: 2
Fore
SplineSet
78 20 m 1
 78 200 l 1
 78 220 l 1
 98 220 l 1
 534 220 l 1
 554 220 l 1
 554 200 l 1
 554 20 l 1
 554 0 l 1
 534 0 l 1
 98 0 l 1
 78 0 l 1
 78 20 l 1
EndSplineSet
EndChar

StartChar: uniFBA7
Encoding: 64423 64423 388
Width: 919
VWidth: 2950
Flags: HW
AnchorPoint: "Anchor-10" 465.28 914.77 basechar 0
AnchorPoint: "Anchor-7" 442.251 -186.396 basechar 0
LayerCount: 2
Fore
SplineSet
239.211914062 -19.41796875 m 1
 93.2119140625 16.58203125 l 1
 76.4345703125 20.71875 l 1
 78.091796875 37.9189453125 l 2
 110.325195312 372.333984375 302.116210938 645 479 645 c 0
 759.682617188 645 705.284179688 220 906 220 c 2
 939 220 l 5
 939 200 l 5
 939 20 l 5
 939 0 l 5
 907 0 l 2
 561.348632812 0 544.95703125 402 482 402 c 0
 422.05078125 402 297.827148438 255.37890625 263.828125 -2.61328125 c 2
 260.909179688 -24.7685546875 l 1
 239.211914062 -19.41796875 l 1
EndSplineSet
EndChar

StartChar: uniFBA9
Encoding: 64425 64425 390
Width: 1002
Flags: HW
AnchorPoint: "Anchor-7" 604.251 -687.396 basechar 0
AnchorPoint: "Anchor-10" 483.28 854.77 basechar 0
LayerCount: 2
Fore
SplineSet
202.436523438 39.0068359375 m 1
 146.493164062 13.115234375 104.823242188 0 43 0 c 2
 -20 0 l 5
 -20 20 l 5
 -20 200 l 5
 -20 220 l 5
 45 220 l 2
 206.6953125 220 245.228515625 268.900390625 362.327148438 378.595703125 c 2
 377.203125 392.532226562 l 1
 390.853515625 377.392578125 l 1
 500.853515625 255.392578125 l 1
 514.381835938 240.388671875 l 1
 499.2421875 227.01171875 l 1
 474.34375 205.012695312 l 2
 461.178710938 193.380859375 449.986328125 181.247070312 440.545898438 168.721679688 c 0
 338 32.666015625 437.4140625 -167.860351562 565.625 -263.981445312 c 1
 575.909179688 34.4306640625 715.905273438 220 988 220 c 2
 1022 220 l 1
 1022 200 l 1
 1022 20 l 1
 1022 0 l 1
 986 0 l 2
 830.5078125 0 753 -95.27734375 753 -310 c 0
 753 -337.51953125 753.99609375 -369.993164062 756.907226562 -400.073242188 c 2
 757.831054688 -409.62109375 l 1
 750.963867188 -416.318359375 l 1
 629.963867188 -534.318359375 l 1
 619.989257812 -544.045898438 l 1
 607.407226562 -538.060546875 l 2
 382.91015625 -431.250976562 221.0703125 -238.4453125 202.436523438 39.0068359375 c 1
EndSplineSet
EndChar

StartChar: uniFBAA
Encoding: 64426 64426 391
Width: 1487
VWidth: 2703
Flags: HW
AnchorPoint: "Anchor-10" 727.134 1222.79 basechar 0
AnchorPoint: "Anchor-7" 628.852 -239.953 basechar 0
LayerCount: 2
Fore
SplineSet
47 220 m 5
 119 220 l 5
 119 0 l 1
 95 0 l 1
 47 220 l 5
EndSplineSet
Refer: 246 65259 N 1 0 0 1 118 0 2
EndChar

StartChar: uniFBAB
Encoding: 64427 64427 392
Width: 1120
VWidth: 2703
Flags: HW
AnchorPoint: "Anchor-10" 659.648 1135.04 basechar 0
AnchorPoint: "Anchor-7" 705.16 -709.603 basechar 0
LayerCount: 2
Fore
SplineSet
47 220 m 5
 119 220 l 5
 119 0 l 1
 95 0 l 1
 47 220 l 5
EndSplineSet
Refer: 247 65260 N 1 0 0 1 118 0 2
EndChar

StartChar: uni0658
Encoding: 1624 1624 397
Width: 0
VWidth: 2316
Flags: HW
AnchorPoint: "Anchor-7" 711.902 -612.086 basechar 0
AnchorPoint: "Anchor-10" 603.219 1239.43 mark 0
AnchorPoint: "Anchor-9" 603.219 1239.43 mark 0
AnchorPoint: "Anchor-1" 598.537 1560.66 basemark 0
AnchorPoint: "Anchor-1" 603.219 1239.43 mark 0
LayerCount: 2
Fore
SplineSet
842.460432557 1538.54159527 m 2
 828.66421553 1388.69460965 746.964364315 1267.1953125 591.306640625 1267.1953125 c 0
 435.051016753 1267.1953125 353.843225837 1389.85755518 340.153816366 1538.5415865 c 2
 339.65125764 1544 l 1
 345.132757726 1544 l 1
 445.584259067 1544 l 1
 449.951721259 1544 l 1
 450.53886978 1539.67218501 l 2
 463.557166206 1443.71558043 499.247433929 1379.0703125 591.306640625 1379.0703125 c 0
 684.024354512 1379.0703125 717.745106226 1445.14866575 730.321189822 1539.65951175 c 2
 730.898756792 1544 l 1
 735.277503396 1544 l 1
 837.48149039 1544 l 1
 842.96298078 1544 l 1
 842.460432557 1538.54159527 l 2
EndSplineSet
EndChar

StartChar: uniFBC0
Encoding: 64448 64448 398
Width: 0
VWidth: 2712
Flags: HW
AnchorPoint: "Anchor-10" 674.729 1661.91 mark 0
AnchorPoint: "Anchor-9" 674.729 1661.91 mark 0
AnchorPoint: "Anchor-1" 673.079 2352.57 basemark 0
AnchorPoint: "Anchor-1" 674.729 1661.91 mark 0
LayerCount: 2
Fore
SplineSet
640.511145753 1837.54980469 m 2
 806.633132347 1837.54980469 867.275390625 1873.61010088 867.275390625 1922.95019531 c 0
 867.275390625 1961.99513688 840.646528892 1990.34960938 798.525390625 1990.34960938 c 0
 746.260337575 1990.34960938 679.646914432 1938.49782954 609.611332359 1837.34106714 c 1
 640.511145753 1837.54980469 l 2
481.945202207 1836.65039062 m 1
 491.221425419 1851.52497369 499.774401017 1864.93313353 506.375 1875.35358705 c 1
 506.375 2297.34960938 l 1
 506.375 2306.34960938 l 1
 506.375 2311.34960938 l 1
 506.375 2316.34960938 l 1
 511.375 2316.34960938 l 1
 516.375 2316.34960938 l 1
 525.375 2316.34960938 l 1
 601.424804688 2316.34960938 l 1
 610.424804688 2316.34960938 l 1
 615.424804688 2316.34960938 l 1
 620.424804688 2316.34960938 l 1
 620.424804688 2311.34960938 l 1
 620.424804688 2306.34960938 l 1
 620.424804688 2297.34960938 l 1
 620.424804688 2027.45154434 l 1
 674.204639012 2081.165379 730.814127271 2109.79980469 794.474609375 2109.79980469 c 0
 906.12777585 2109.79980469 985.375 2032.16672471 985.375 1926.48198194 c 0
 984.356618498 1783.43734922 859.25595562 1717.65039062 642.375 1717.65039062 c 2
 392.625 1717.65039062 l 1
 383.625 1717.65039062 l 1
 378.625 1717.65039062 l 1
 373.625 1717.65039062 l 1
 373.625 1722.65039062 l 1
 373.625 1727.65039062 l 1
 373.625 1736.65039062 l 1
 373.625 1817.65039062 l 1
 373.625 1826.65039062 l 1
 373.625 1831.65039062 l 1
 373.625 1836.65039062 l 1
 378.625 1836.65039062 l 1
 383.625 1836.65039062 l 1
 392.625 1836.65039062 l 1
 481.945202207 1836.65039062 l 1
EndSplineSet
EndChar

StartChar: uniFBBF
Encoding: 64447 64447 403
Width: 0
VWidth: 0
Flags: HW
LayerCount: 2
Fore
SplineSet
121 387 m 0
 121 337.8082802 160.685385891 299 210 299 c 0
 259.263689127 299 298 337.736341323 298 387 c 0
 298 436.314601591 259.191746384 476 210 476 c 0
 160.757474878 476 121 436.242539109 121 387 c 0
23 387 m 0
 23 489.770781249 107.229213336 574 210 574 c 0
 312.770781249 574 397 489.770786664 397 387 c 0
 397 284.229218751 312.770786664 200 210 200 c 0
 107.229218751 200 23 284.229213336 23 387 c 0
EndSplineSet
EndChar

StartChar: uniFBAF.compact
Encoding: 65613 -1 408
Width: 1207
VWidth: 2950
Flags: HW
AnchorPoint: "Anchor-7" 802.902 -612.086 basechar 0
AnchorPoint: "Anchor-10" 756.53 539.1 basechar 0
LayerCount: 2
Fore
SplineSet
656 0 m 2
 466.068359375 0 308.963867188 -123.067382812 291.153320312 -153.141601562 c 1
 298.64453125 -201.682617188 528.8515625 -259.990234375 807.669921875 -259.990234375 c 0
 1169.09667969 -259.990234375 1353.15332031 -193.208984375 1353.16308594 -193.205078125 c 2
 1374.44140625 -185.459960938 l 1
 1379.49609375 -207.537109375 l 1
 1417.49609375 -373.537109375 l 1
 1421.69726562 -391.892578125 l 1
 1403.62597656 -397.192382812 l 2
 1401.59863281 -397.787109375 1157.21972656 -469.32421875 810.045898438 -469.32421875 c 0
 502.360351562 -469.32421875 78 -436.90234375 78 -167 c 0
 78 7.6982421875 373.700195312 220 660 220 c 2
 1227 220 l 5
 1227 200 l 5
 1227 20 l 5
 1227 0 l 5
 656 0 l 2
EndSplineSet
EndChar

StartChar: uni06F4.urdu
Encoding: 65615 -1 412
Width: 1246
VWidth: 2950
Flags: HW
LayerCount: 2
Fore
SplineSet
207 1111 m 0
 207 1236.54589844 279.219726562 1316.71191406 396.576171875 1316.71191406 c 0
 615.078125 1316.71191406 784 1123 855 892 c 1
 879 1046 931 1208 991 1317 c 1
 1146 1233 l 1
 1049 1100 989 945 949 709 c 1
 786 709 l 1
 684.723632812 984.161132812 532.805664062 1141.33105469 437.58203125 1141.33105469 c 0
 393.237304688 1141.33105469 378.9765625 1124.65820312 378.9765625 1079.87304688 c 0
 378.9765625 993.912109375 477 797.882729711 477 245 c 2
 477 0 l 1
 307 0 l 1
 307 248 l 2
 307 796.104700888 207 975.091796875 207 1111 c 0
EndSplineSet
EndChar

StartChar: uni06F7.urdu
Encoding: 65616 -1 413
Width: 1056
VWidth: 2950
Flags: HW
LayerCount: 2
Fore
SplineSet
90 20 m 2
 90 380.29296875 449.307617188 947.448242188 777.443359375 1295.71484375 c 6
 791.131835938 1310.24316406 l 5
 805.686523438 1296.58398438 l 5
 935.686523438 1174.58398438 l 5
 951.243164062 1159.984375 l 5
 935.669921875 1145.40136719 l 6
 605.705078125 836.416015625 368.706054688 430.219726562 324.028320312 220 c 1
 956 220 l 1
 976 220 l 1
 976 200 l 1
 976 20 l 1
 976 0 l 1
 956 0 l 1
 110 0 l 1
 90 0 l 1
 90 20 l 2
EndSplineSet
EndChar

StartChar: uni06E9
Encoding: 1769 1769 418
Width: 1180
VWidth: 0
Flags: HW
LayerCount: 2
Fore
SplineSet
494.267554109 59.3886170471 m 1
 529.3203125 85.1625140905 l 1
 529.3203125 676.557838438 l 1
 390.114856719 815.763294219 l 1
 386.579322813 819.298828125 l 1
 390.114856719 822.834362031 l 1
 586.464466094 1019.18397141 l 1
 590 1022.71950531 l 1
 593.535533906 1019.18397141 l 1
 789.885143281 822.834362031 l 1
 793.420677187 819.298828125 l 1
 789.885143281 815.763294219 l 1
 650.6796875 676.557838438 l 1
 650.6796875 85.1625140905 l 1
 685.732445891 59.3886170471 l 1
 698.010977469 50.3603515625 l 1
 682.770507812 50.3603515625 l 1
 497.229492188 50.3603515625 l 1
 481.989022531 50.3603515625 l 1
 494.267554109 59.3886170471 l 1
513.859133004 819.298848871 m 1
 590 743.157981874 l 1
 666.140866996 819.298848871 l 1
 590 895.440609445 l 1
 513.859133004 819.298848871 l 1
231.016375596 819.298832841 m 1
 417.855846406 632.459362031 l 1
 419.3203125 630.994895937 l 1
 419.3203125 628.923828125 l 1
 419.3203125 143.345703125 l 1
 419.3203125 140.816021819 l 1
 417.282276602 139.317456775 l 1
 216.51953125 -8.30311880629 l 1
 216.51953125 -59.6396484375 l 1
 963.48046875 -59.6396484375 l 1
 963.48046875 -8.30311880629 l 1
 762.717723398 139.317456775 l 1
 760.6796875 140.816021819 l 1
 760.6796875 143.345703125 l 1
 760.6796875 628.923828125 l 1
 760.6796875 630.994895937 l 1
 762.144153594 632.459362031 l 1
 948.983624404 819.298832841 l 1
 590 1178.28341495 l 1
 231.016375596 819.298832841 l 1
107.273056241 822.834358428 m 1
 586.464462491 1302.02674124 l 1
 590 1305.56228596 l 1
 593.535537509 1302.02674124 l 1
 1072.72694376 822.834358428 l 1
 1076.26247046 819.298824522 l 1
 1072.72694016 815.763294219 l 1
 850.6796875 593.716041563 l 1
 850.6796875 186.349993806 l 1
 1051.44243285 38.7294182251 l 1
 1053.48046875 37.2308531813 l 1
 1053.48046875 34.701171875 l 1
 1053.48046875 -144.639648438 l 1
 1053.48046875 -149.639648438 l 1
 1048.48046875 -149.639648438 l 1
 131.51953125 -149.639648438 l 1
 126.51953125 -149.639648438 l 1
 126.51953125 -144.639648438 l 1
 126.51953125 34.701171875 l 1
 126.51953125 37.2308531813 l 1
 128.557567148 38.7294182251 l 1
 329.3203125 186.349993806 l 1
 329.3203125 593.716041563 l 1
 107.273059844 815.763294219 l 1
 103.737529541 819.298824522 l 1
 107.273056241 822.834358428 l 1
EndSplineSet
EndChar

StartChar: uni06DE
Encoding: 1758 1758 419
Width: 1990
VWidth: 0
Flags: HW
LayerCount: 2
Fore
SplineSet
445.599609375 229.874023438 m 5
 445.599609375 25.140625 l 5
 650.333007812 25.140625 l 5
 445.599609375 229.874023438 l 5
736.473632812 -61 m 5
 365 -61 l 5
 360 -61 l 5
 360 -56 l 5
 360 315.473632812 l 5
 97.328125 578.146484375 l 5
 93.7919921875 581.681640625 l 5
 97.328125 585.216796875 l 5
 360 847.889648438 l 5
 360 1213 l 5
 360 1218 l 5
 365 1218 l 5
 730.110351562 1218 l 5
 988.283203125 1476.171875 l 5
 991.818359375 1479.70800781 l 5
 995.353515625 1476.171875 l 5
 1253.52636719 1218 l 5
 1625 1218 l 5
 1630 1218 l 5
 1630 1213 l 5
 1630 841.526367188 l 5
 1892.671875 578.853515625 l 5
 1896.20800781 575.318359375 l 5
 1892.671875 571.783203125 l 5
 1630 309.110351562 l 5
 1630 -56 l 5
 1630 -61 l 5
 1625 -61 l 5
 1259.88964844 -61 l 5
 1001.71679688 -319.171875 l 5
 998.181640625 -322.708007812 l 5
 994.646484375 -319.171875 l 5
 736.473632812 -61 l 5
1346.03027344 25.140625 m 5
 1544.40039062 25.140625 l 5
 1544.40039062 223.510742188 l 5
 1346.03027344 25.140625 l 5
1544.40039062 927.125976562 m 5
 1544.40039062 1131.859375 l 5
 1339.66699219 1131.859375 l 5
 1544.40039062 927.125976562 l 5
445.599609375 933.489257812 m 5
 643.969726562 1131.859375 l 5
 445.599609375 1131.859375 l 5
 445.599609375 933.489257812 l 5
445.599609375 811.66796875 m 5
 445.599609375 350.931640625 l 5
 771.390625 25.140625 l 5
 1224.20898438 25.140625 l 5
 1544.40039062 345.33203125 l 5
 1544.40039062 806.068359375 l 5
 1218.609375 1131.859375 l 5
 765.791015625 1131.859375 l 5
 445.599609375 811.66796875 l 5
851.931640625 1218 m 5
 1132.46875 1218 l 5
 992.200195312 1358.26855469 l 5
 851.931640625 1218 l 5
360 726.068359375 m 5
 215.231445312 581.299804688 l 5
 360 436.53125 l 5
 360 726.068359375 l 5
1630 720.46875 m 5
 1630 430.931640625 l 5
 1774.76855469 575.700195312 l 5
 1630 720.46875 l 5
1138.06835938 -61 m 5
 857.53125 -61 l 5
 997.799804688 -201.268554688 l 5
 1138.06835938 -61 l 5
906 575 m 4
 906 525.80859375 945.685546875 487 995 487 c 4
 1044.26367188 487 1083 525.736328125 1083 575 c 4
 1083 624.314453125 1044.19140625 664 995 664 c 4
 945.7578125 664 906 624.2421875 906 575 c 4
817 575 m 4
 817 672.771484375 897.227539062 753 995 753 c 4
 1092.77148438 753 1173 672.772460938 1173 575 c 4
 1173 477.228515625 1092.77246094 397 995 397 c 4
 897.228515625 397 817 477.227539062 817 575 c 4
EndSplineSet
EndChar

StartChar: uni06DD
Encoding: 1757 1757 420
Width: 2440
VWidth: 0
Flags: HW
LayerCount: 2
Fore
SplineSet
279 1362 m 0
 279 1468.76788837 366.232085556 1556 473 1556 c 0
 510.222773625 1556 545.414914843 1545.01238614 574.446187271 1527.20014753 c 1
 757.330978815 1657.17759995 979.426428045 1733 1220 1733 c 0
 1459.87662134 1733 1682.36407611 1656.82684579 1863.70689048 1528.51083823 c 1
 1893.79804455 1546.42610834 1926.73699494 1556 1963 1556 c 0
 2069.76788837 1556 2157 1468.76791444 2157 1362 c 0
 2157 1325.78600654 2146.60875028 1291.5064007 2129.64344316 1262.92965893 c 1
 2259.39796595 1080.07544696 2335 858.300237681 2335 618 c 0
 2335 377.785012917 2258.62503996 155.034100444 2129.96771081 -26.4728379561 c 1
 2147.61243334 -56.4265381122 2157 -89.0516271826 2157 -125 c 0
 2157 -231.767888373 2069.76791444 -319 1963 -319 c 0
 1927.01446722 -319 1892.96226845 -308.749881062 1864.47283795 -291.967710812 c 1
 1681.67820124 -421.537797495 1460.10058498 -497 1220 -497 c 0
 978.978962692 -497 755.451127915 -420.063168463 573.69203529 -290.662894871 c 1
 543.388297608 -309.064205371 509.839754539 -319 473 -319 c 0
 366.232111627 -319 279 -231.767914444 279 -125 c 0
 279 -87.7233724737 290.005063908 -52.513303762 307.878304068 -23.4264183435 c 1
 179.669013635 158.712439494 105 379.238480225 105 618 c 0
 105 857.078403853 180.71786342 1078.97664387 308.208451308 1259.89501253 c 1
 289.286704486 1290.45772842 279 1324.57227042 279 1362 c 0
1854.59960938 -125 m 0
 1854.59960938 -184.632543411 1903.36749875 -233.400390625 1963 -233.400390625 c 0
 2022.63254341 -233.400390625 2071.40039062 -184.632501252 2071.40039062 -125 c 0
 2071.40039062 -65.3674565888 2022.63250125 -16.599609375 1963 -16.599609375 c 0
 1903.36745659 -16.599609375 1854.59960938 -65.3674987481 1854.59960938 -125 c 0
364.599609375 -125 m 0
 364.599609375 -184.632543411 413.367498748 -233.400390625 473 -233.400390625 c 0
 532.632543411 -233.400390625 581.400390625 -184.632501252 581.400390625 -125 c 0
 581.400390625 -65.3674565889 532.632501252 -16.599609375 473 -16.599609375 c 0
 413.367456589 -16.599609375 364.599609375 -65.3674987482 364.599609375 -125 c 0
1854.59960938 1362 m 0
 1854.59960938 1302.36745659 1903.36749875 1253.59960938 1963 1253.59960938 c 0
 2022.63254341 1253.59960938 2071.40039062 1302.36749875 2071.40039062 1362 c 0
 2071.40039062 1421.63254341 2022.63250125 1470.40039062 1963 1470.40039062 c 0
 1903.36745659 1470.40039062 1854.59960938 1421.63250125 1854.59960938 1362 c 0
364.599609375 1362 m 0
 364.599609375 1302.36745659 413.367498748 1253.59960938 473 1253.59960938 c 0
 532.632543411 1253.59960938 581.400390625 1302.36749875 581.400390625 1362 c 0
 581.400390625 1421.63254341 532.632501252 1470.40039062 473 1470.40039062 c 0
 413.367456589 1470.40039062 364.599609375 1421.63250125 364.599609375 1362 c 0
1769.36777004 1350 m 1
 666.632229961 1350 l 1
 659.889955128 1247.66552186 575.483393686 1168 473 1168 c 0
 447.630397045 1168 423.443468415 1173.03799483 401.271502704 1181.80287404 c 1
 290.130884558 1020.4759439 226 827.387465797 226 618 c 0
 226 408.853550853 290.828214646 214.833357015 400.73168997 54.9797210522 c 1
 424.791761515 64.5727360787 447.274558387 69 473 69 c 0
 574.755040454 69 657.68844197 -9.71625073506 666.344398304 -109 c 1
 1769.6556017 -109 l 1
 1778.42345964 -8.43274015361 1861.89627374 69 1963 69 c 0
 1989.78768381 69 2015.31538274 63.3710550533 2038.37837787 53.6902542115 c 1
 2149.66223741 214.982712313 2214 408.394228961 2214 618 c 0
 2214 828.045269287 2148.57277185 1022.91191833 2037.84351515 1183.08339619 c 1
 2013.20724773 1172.83613493 1989.71515573 1168 1963 1168 c 0
 1859.8535049 1168 1776.02499334 1248.956437 1769.36777004 1350 c 1
1761.00323411 1452 m 1
 1604.48853364 1553.62724914 1419.55765843 1612 1220 1612 c 0
 1020.3634639 1612 834.175776252 1552.75996631 678.996765892 1452 c 1
 1761.00323411 1452 l 1
671.381595583 -211 m 1
 829.813106843 -315.889826857 1017.17170929 -376 1220 -376 c 0
 1422.91519748 -376 1611.50676806 -315.01600164 1768.61840442 -211 c 1
 671.381595583 -211 l 1
EndSplineSet
EndChar

StartChar: uniFD3E
Encoding: 64830 64830 421
Width: 1273
Flags: HW
LayerCount: 2
Fore
SplineSet
612 603 m 0
 612 568.919760264 641.663815788 540 677 540 c 0
 713.19221177 540 742 568.635054421 742 607 c 0
 742 640.853717356 710.517437123 669 676 669 c 0
 638.05413542 669 612 637.579089154 612 603 c 0
634.867412888 203.145876575 m 0
 670.815619388 40.432941891 749.352206925 -91.4677508384 867.938281469 -193.196995101 c 1
 801.770313546 -64.421852002 758.903084137 67.4204246339 737.069478745 203.168492944 c 0
 733.800763704 221.691211507 739.59677006 236.667837872 752.464466094 249.535533906 c 2
 787.464466094 284.535533906 l 2
 797.242591082 294.313658894 810.515560259 301 826 301 c 2
 982 301 l 1
 982 911 l 1
 826 911 l 2
 810.515560259 911 797.242591082 917.686341106 787.464466094 927.464466094 c 2
 749.541289238 965.38764295 l 2
 736.32750133 977.500281866 731.841977532 994.6219145 735.072394224 1011.85080352 c 0
 760.758095992 1174.52691472 809.34413512 1323.33936114 879.184340497 1457.88746242 c 1
 748.285791163 1348.7011333 664.920206071 1197.75840206 626.906095933 1001.0353821 c 0
 624.676736995 989.888587407 619.044032801 980.972964989 611.535533906 973.464466094 c 2
 565.535533906 927.464466094 l 2
 555.87969453 917.808626718 543.539384864 911 528 911 c 2
 371 911 l 1
 371 755 l 2
 371 739.730788766 365.365707467 727.294639655 355.535533906 717.464466094 c 2
 244.071067812 606 l 1
 355.535533906 494.535533906 l 2
 365.365707467 484.705360345 371 472.269211234 371 457 c 2
 371 301 l 1
 528 301 l 2
 543.539384864 301 555.87969453 294.191373282 565.535533906 284.535533906 c 2
 620.535533906 229.535533906 l 2
 628.380920246 221.690147566 632.703658233 211.800895197 634.867412888 203.145876575 c 0
838 599 m 0
 838 513.032355674 761.670633207 441 676 441 c 0
 584.066721247 441 514 516.464254749 514 609 c 0
 514 694.967644326 590.329366793 767 676 767 c 0
 767.933278753 767 838 691.535745251 838 599 c 0
1045.40575141 1661.74272768 m 0
 1053.81531273 1664.92472386 1061.76791353 1665.38904132 1069.0946827 1663.45553854 c 0
 1097.68266563 1655.91129312 1109.14718536 1614.93379263 1097.82163074 1573.67641509 c 2
 1097.43853317 1572.28084539 l 1
 1096.36924392 1571.30565359 l 2
 972.898614581 1458.70043963 888.50193163 1274.60007649 844.367567938 1020.70349987 c 1
 847.071067812 1018 l 1
 1036 1018 l 2
 1070.63972693 1018 1089 996.283735445 1089 965 c 2
 1089 246.921894064 l 2
 1087.92710929 212.589391226 1069.43228619 194 1036 194 c 2
 847.465204689 194 l 1
 893.794164762 -49.9386854031 976.88083351 -214.554069571 1093.19008932 -311.149892195 c 0
 1099.45058642 -316.337161219 1104.10391053 -321.648136437 1107.13985015 -327.213017056 c 0
 1122.88101089 -356.066581836 1092.4110741 -381.664115408 1049.33560517 -404.42096692 c 2
 1047.53720741 -405.37106385 l 1
 1045.58626206 -404.795971751 l 2
 775.979690269 -325.322392753 606.08725081 -133.73254213 534.454891133 164.505702892 c 1
 505.882290809 194 l 1
 317 194 l 2
 292.557427515 194 264 214.796453715 264 247 c 2
 264 434.939811998 l 1
 131.464466094 568.464466094 l 2
 121.589019692 578.339912496 115 592.483835625 115 607 c 0
 115 620.477190168 120.763488206 632.834507159 131.451347366 643.522366318 c 2
 264 777.060188002 l 1
 264 965 l 2
 264 998.385158913 294.691822995 1018 317 1018 c 2
 505.860497125 1018 l 1
 524.380177507 1037.40156992 l 1
 591.249200306 1370.870147 765.966583333 1579.31822487 1045.40575141 1661.74272768 c 0
EndSplineSet
EndChar

StartChar: uniFD3F
Encoding: 64831 64831 422
Width: 1273
Flags: HW
LayerCount: 2
Fore
SplineSet
661 603 m 0
 661 637.57904555 634.94574096 669 597 669 c 0
 562.482813987 669 531 640.853723274 531 607 c 0
 531 568.635087633 559.807742725 540 596 540 c 0
 631.33609058 540 661 568.919740855 661 603 c 0
638.132587112 203.145876575 m 0
 640.326630864 211.922051583 644.598510795 221.669578607 652.464466094 229.535533906 c 2
 707.464466094 284.535533906 l 2
 717.12030547 294.191373282 729.460615136 301 745 301 c 2
 902 301 l 1
 902 457 l 2
 902 472.269211234 907.634292533 484.705360345 917.464466094 494.535533906 c 2
 1028.92893219 606 l 1
 917.464466094 717.464466094 l 2
 907.634292533 727.294639655 902 739.730788766 902 755 c 2
 902 911 l 1
 745 911 l 2
 729.460615136 911 717.12030547 917.808626718 707.464466094 927.464466094 c 2
 661.464466094 973.464466094 l 2
 653.955967199 980.972964989 648.323263005 989.888587407 646.093904067 1001.0353821 c 0
 608.038915535 1197.96994775 523.614631114 1349.61832341 393.815659503 1457.88746242 c 1
 464.485185082 1321.74166454 512.220511929 1174.66239789 537.927605776 1011.85080352 c 0
 541.157967161 994.622209467 536.673053003 977.500790004 523.458710762 965.38764295 c 2
 485.535533906 927.464466094 l 2
 475.757408918 917.686341106 462.484439741 911 447 911 c 2
 291 911 l 1
 291 301 l 1
 447 301 l 2
 462.484439741 301 475.757408918 294.313658894 485.535533906 284.535533906 c 2
 520.535533906 249.535533906 l 2
 533.403370715 236.667697097 539.199289104 221.691510753 535.930521255 203.168492944 c 0
 514.128803028 67.6186796179 470.36798323 -66.098886364 405.061718531 -193.196995101 c 1
 524.790666184 -90.4873354055 602.238293887 40.6769704018 638.132587112 203.145876575 c 0
435 599 m 0
 435 691.53574656 505.066741467 767 597 767 c 0
 682.671988224 767 759 694.967354589 759 609 c 0
 759 516.46425344 688.933258533 441 597 441 c 0
 511.328011776 441 435 513.032645411 435 599 c 0
227.594248594 1661.74272768 m 0
 507.378026097 1579.21657748 682.030115455 1369.47722954 748.619822493 1037.40156992 c 1
 767.139502875 1018 l 1
 956 1018 l 2
 978.3090277 1018 1009 998.385719671 1009 965 c 2
 1009 777.060188002 l 1
 1141.53553391 643.535533906 l 2
 1152.24943823 632.821629582 1158 620.482459182 1158 607 c 0
 1158 592.489107325 1151.39805028 578.327031331 1141.54865263 568.477633682 c 2
 1009 434.939811998 l 1
 1009 247 l 2
 1009 214.796878706 980.44206068 194 956 194 c 2
 767.117709191 194 l 1
 738.545108867 164.505702892 l 1
 666.585063853 -135.096845921 496.676833454 -325.423641357 227.413737941 -404.795971751 c 2
 225.462792593 -405.37106385 l 1
 223.664394835 -404.42096692 l 2
 201.039406453 -392.46814287 183.173672116 -380.477786609 172.431390503 -367.685679933 c 0
 157.175963694 -349.519236888 157.866716035 -329.331400601 179.805494985 -311.153555186 c 0
 296.094581622 -214.574483233 379.542457623 -48.1662471283 425.534795311 194 c 1
 237 194 l 2
 203.567517314 194 185.072873294 212.589948667 184 246.921894064 c 2
 184 965 l 2
 184 996.283867611 202.360464836 1018 237 1018 c 2
 425.928932188 1018 l 1
 428.632432062 1020.70349987 l 1
 384.187878443 1276.38453999 300.139267225 1458.66589142 176.630756076 1571.30565359 c 2
 175.561466826 1572.28084539 l 1
 175.17836926 1573.67641509 l 2
 168.912983877 1596.50031899 169.668686945 1618.35157505 175.976219036 1635.06359116 c 0
 184.356401478 1657.26716334 203.496255667 1670.86088717 227.594248594 1661.74272768 c 0
EndSplineSet
EndChar

StartChar: uni0610
Encoding: 1552 1552 423
Width: 0
VWidth: 2712
Flags: HW
AnchorPoint: "Anchor-10" 493.924 1223.86 mark 0
AnchorPoint: "Anchor-9" 493.924 1223.86 mark 0
AnchorPoint: "Anchor-1" 534.091 1760.26 basemark 0
AnchorPoint: "Anchor-1" 493.924 1223.86 mark 0
LayerCount: 2
Fore
SplineSet
457.962604461 1372.40527344 m 2
 641.623515772 1372.40527344 728.709960938 1411.26054949 728.709960938 1484.56542969 c 0
 728.709960938 1536.96250453 691.147618091 1576.52539062 635.234375 1576.52539062 c 0
 561.994207642 1576.52539062 479.712743351 1505.58654625 392.4738868 1371.96288617 c 1
 457.962604461 1372.40527344 l 2
132.391627776 1194.89641638 m 2
 151.855239802 1228.69754266 161.918121155 1272.51883894 162.099609375 1326.5 c 0
 162.099609375 1387.76476843 146.670905235 1449.12097411 117.141221598 1510.68325064 c 2
 114.710567701 1515.75057845 l 1
 120.026355059 1517.57493979 l 1
 205.371081622 1546.86497886 l 1
 210.189641188 1548.5186932 l 1
 211.752915424 1543.6700376 l 1
 241.544414516 1451.26857716 l 2
 254.971742478 1410.02584241 270.333846118 1390.90901403 286.747501907 1387.04468187 c 1
 401.45183665 1580.95572912 514.11618917 1678.43554688 632.205078125 1678.43554688 c 0
 745.3712467 1678.43554688 828.599577729 1595.97110756 828.599577729 1489.09256224 c 0
 828.079243386 1342.8443927 702.735159434 1271 460 1271 c 2
 434.244140625 1271 l 2
 353.221027636 1271 294.310681668 1280.38599177 255.264277936 1297.09663242 c 1
 253.440253669 1236.10241309 240.204646585 1185.66013146 216.622282147 1143.93999235 c 2
 214.080651156 1139.44353065 l 1
 209.669090762 1142.12982751 l 1
 134.124168887 1188.13080408 l 1
 129.956966324 1190.66830604 l 1
 132.391627776 1194.89641638 l 2
EndSplineSet
EndChar

StartChar: uni0611
Encoding: 1553 1553 424
Width: 0
VWidth: 2712
Flags: HW
AnchorPoint: "Anchor-10" 496.924 1247.86 mark 0
AnchorPoint: "Anchor-9" 496.924 1247.86 mark 0
AnchorPoint: "Anchor-1" 534.091 1790.26 basemark 0
AnchorPoint: "Anchor-1" 496.924 1247.86 mark 0
LayerCount: 2
Fore
SplineSet
258.760999979 1270.18554688 m 1
 256.3897482 1222.60871971 240.30113415 1176.01180771 216.746305585 1134.34038298 c 2
 214.204674594 1129.84392128 l 1
 209.7931142 1132.53021814 l 1
 134.248192324 1178.5311947 l 1
 130.08098976 1181.06869666 l 1
 132.515651213 1185.296807 l 2
 151.979263239 1219.09793328 162.042144592 1262.91922957 162.223632812 1316.90039062 c 0
 162.223632812 1378.03455287 146.470035109 1439.90312695 117.492403112 1500.61007142 c 2
 114.834591148 1506.15096909 l 1
 118.688721805 1507.47369449 l 1
 205.495105059 1537.26536948 l 1
 210.313664625 1538.91908382 l 1
 211.876938861 1534.07042822 l 1
 241.672835266 1441.65539547 l 2
 255.723861334 1398.07489279 271.989421258 1379.35003202 289.717337898 1376.94611353 c 2
 373.82818437 1377.17793387 l 1
 345.442583937 1414.25314179 321.903320312 1453.53199104 321.903320312 1515.58007812 c 0
 321.903320312 1641.92325698 409.659139422 1748.57714844 550.048828125 1748.57714844 c 0
 627.188239729 1748.57714844 689.042683137 1723.23879911 738.481773131 1673.25031955 c 2
 740.892010403 1670.81329863 l 1
 739.488104623 1667.68642108 l 1
 703.913885873 1588.45302264 l 1
 701.257807796 1582.537219 l 1
 696.211942873 1586.61039105 l 2
 652.039400646 1622.26777927 609.992003824 1639.95839088 567.267361668 1640.47949219 c 0
 483.371199084 1640.47949219 423.533203125 1583.6178329 423.533203125 1512.34570312 c 0
 423.533203125 1493.07901895 433.085830665 1432.88864761 503.14069543 1401.51982223 c 0
 507.223142952 1399.47859847 514.953967468 1396.976326 519.769659591 1398.08712328 c 2
 750.412390423 1456.28748473 l 1
 756.635742188 1457.85788463 l 1
 756.635742188 1451.43945312 l 1
 756.635742188 1354.41894531 l 1
 756.635742188 1350.73885472 l 1
 753.121993054 1349.64494716 l 2
 581.391548626 1296.18147406 434.16342525 1270.18554688 290.548828125 1270.18554688 c 2
 258.760999979 1270.18554688 l 1
EndSplineSet
EndChar

StartChar: uni0612
Encoding: 1554 1554 425
Width: 0
VWidth: 2712
Flags: HW
AnchorPoint: "Anchor-10" 517.924 962.86 mark 0
AnchorPoint: "Anchor-9" 517.924 962.86 mark 0
AnchorPoint: "Anchor-1" 522.091 1913.26 basemark 0
AnchorPoint: "Anchor-1" 517.924 962.86 mark 0
LayerCount: 2
Fore
SplineSet
461.255859375 992.858398438 m 2
 238.695227331 992.858398438 81.7412109375 1084.31993865 81.7412109375 1285.44238281 c 0
 81.7412109375 1461.38382565 218.688245742 1608.20600508 473.098509407 1669.97657215 c 1
 464.667026561 1673.3868998 456.215715236 1676.84157693 438.055257141 1684.30073992 c 0
 364.263829906 1713.81652977 317.076926317 1732.59375 293.407226562 1732.59375 c 0
 254.022949629 1732.59375 213.633379621 1706.38097733 187.471620549 1672.21162582 c 2
 172.709901799 1653.07588363 l 1
 170.202838041 1649.82595546 l 1
 166.526760549 1651.65184048 l 1
 83.9691433618 1692.65769986 l 1
 79.2030769948 1695.02497563 l 1
 81.8624710723 1699.63442314 l 1
 90.0970358407 1713.90714579 l 2
 136.759205992 1790.01149028 209.282062693 1839.91308594 293.954101562 1839.91308594 c 0
 341.387544635 1839.91308594 397.105094038 1818.17528926 461.807753596 1786.91942782 c 0
 574.831288329 1731.77350819 642.519169939 1708.63071089 704.268310916 1705.40922507 c 2
 709.383822893 1705.14234606 l 1
 708.99325789 1700.03478831 l 1
 701.885836015 1607.08849925 l 1
 701.560150692 1602.82939621 l 1
 697.302445661 1602.4859176 l 2
 405.927646583 1578.98005966 182.499023438 1453.77736554 182.499023438 1294.18945312 c 0
 182.499023438 1162.34335938 275.76717843 1096.35058594 468.909179688 1096.35058594 c 2
 474.335207249 1096.35058594 l 1
 473.892510551 1090.94264782 l 1
 466.239190238 997.450460317 l 1
 465.863281604 992.858398438 l 1
 461.255859375 992.858398438 l 2
882.278226829 1608.24581622 m 2
 912.039286938 1534.39345811 927.47265625 1455.1710624 927.47265625 1392.05566406 c 0
 927.47265625 1191.50562376 809.586793046 1068.68853712 577.867970291 1024.65723206 c 2
 573.784578714 1023.88130433 l 1
 572.275675519 1027.75420528 l 1
 539.471964582 1111.9514709 l 1
 537.287669712 1117.55789926 l 1
 543.199203708 1118.67903657 l 2
 732.227806915 1154.52878707 825.096173795 1244.68483415 826.16796875 1389.34078854 c 0
 826.16796875 1438.16350196 812.088026174 1507.71948011 784.466710331 1572.71029936 c 2
 782.39399801 1577.5872311 l 1
 787.383002029 1579.37341093 l 1
 875.955267654 1611.08434843 l 1
 880.481347154 1612.70479049 l 1
 882.278226829 1608.24581622 l 2
EndSplineSet
EndChar

StartChar: uni06DC
Encoding: 1756 1756 426
Width: 0
VWidth: 2712
Flags: HW
AnchorPoint: "Anchor-10" 556.924 1187.86 mark 0
AnchorPoint: "Anchor-9" 556.924 1187.86 mark 0
AnchorPoint: "Anchor-1" 558.091 1694.26 basemark 0
AnchorPoint: "Anchor-1" 556.924 1187.86 mark 0
LayerCount: 2
Fore
SplineSet
498.709960938 1270.60546875 m 0
 462.165364323 1270.60546875 433.122232322 1278.97924216 409.400509296 1294.82148834 c 1
 402.736833655 1109.32986826 284.851706569 1011.77539062 95.5322265625 1011.77539062 c 0
 -113.247967536 1011.77539062 -219.566406248 1109.68680926 -219.56640625 1303.47851562 c 0
 -219.56640625 1373.6710711 -204.135350882 1446.22968488 -174.597401437 1518.41748848 c 2
 -172.500012288 1523.52105311 l 1
 -166.869897959 1521.23274797 l 1
 -90.734545837 1490.28827551 l 1
 -86.2144001759 1488.45110633 l 1
 -87.9405246883 1483.88740152 l 2
 -111.99591731 1420.28729029 -123.953125 1360.98781857 -123.953125 1305.96777344 c 0
 -123.953125 1173.38076447 -51.0602177315 1107.88574219 99.0166015625 1107.88574219 c 0
 245.336826777 1107.88574219 317.179154138 1179.43008338 317.505859375 1325.37988281 c 0
 317.505859375 1384.60380875 302.795682807 1445.06729712 273.199130773 1506.8908187 c 2
 270.774260275 1511.95607203 l 1
 276.085907257 1513.77903514 l 1
 360.206024444 1542.64915233 l 1
 365.024697319 1544.30292619 l 1
 366.587908572 1539.45411738 l 1
 395.95408048 1448.36537125 l 2
 412.883967817 1395.85638597 444.023403812 1370.67974552 499.726600289 1370.20019531 c 0
 562.466750759 1370.20019531 586.7890625 1403.44436077 586.7890625 1469.22949219 c 0
 586.7890625 1484.84896571 585.139707813 1514.37165719 581.826251009 1557.44659563 c 2
 581.459226941 1562.2179085 l 1
 586.209863075 1562.7937466 l 1
 668.338769325 1572.74882473 l 1
 673.556764758 1573.38131279 l 1
 673.927946815 1568.13824676 l 1
 681.89256315 1455.63531298 l 2
 685.29832731 1406.01023648 707.311739341 1370.20019531 755.548828125 1370.20019531 c 0
 796.699196169 1370.20019531 819.736328125 1402.96663194 819.736328125 1475.70117188 c 0
 819.736328125 1510.52857208 812.542081822 1553.94125901 798.020458713 1605.75716094 c 2
 796.655520452 1610.6275192 l 1
 801.541298368 1611.93619035 l 1
 885.16336868 1634.33462785 l 1
 889.7930556 1635.57470422 l 1
 891.22776266 1631.00158646 l 2
 907.286421475 1579.81473456 915.348632813 1530.52452671 915.348632812 1483.16699219 c 0
 915.348632812 1368.39562979 873.566666475 1271.12046267 756.046875 1270.60546875 c 0
 699.880037936 1270.60546875 659.096656637 1294.03731925 634.85511845 1337.45281213 c 1
 599.956650942 1292.69357719 554.609680274 1270.60546875 498.709960938 1270.60546875 c 0
EndSplineSet
EndChar

StartChar: uni220E
Encoding: 8718 8718 429
Width: 970
Flags: HW
LayerCount: 2
Fore
SplineSet
180 20 m 1
 180 864 l 1
 180 884 l 1
 200 884 l 1
 770 884 l 1
 790 884 l 1
 790 864 l 1
 790 20 l 1
 790 0 l 1
 770 0 l 1
 200 0 l 1
 180 0 l 1
 180 20 l 1
EndSplineSet
EndChar
